<?xml version="1.0" encoding="UTF-8"?>
<svg id="Layer_1" data-name="Layer 1" xmlns="http://www.w3.org/2000/svg" viewBox="0 0 116.19 83">
  <defs>
    <style>
      .cls-1 {
        fill: #fff;
      }

      .cls-2 {
        fill: #ddc193;
      }
    </style>
  </defs>
  <g>
    <circle class="cls-2" cx="57.62" cy="57.37" r="25.47"/>
    <path class="cls-1" d="M69.42,64.37c-.49,0-.98-.21-1.33-.61l-10.47-12.08-10.47,12.08c-.63,.73-1.74,.81-2.48,.18-.73-.63-.81-1.74-.18-2.48l13.13-15.14,13.13,15.14c.63,.73,.56,1.84-.18,2.48-.33,.29-.74,.43-1.15,.43Z"/>
  </g>
  <g>
    <path class="cls-2" d="M1.9,17.61c-.06-.06-.09-.14-.09-.23V3.14c0-.12,.03-.21,.1-.28,.07-.07,.15-.1,.26-.1H7.35c1.91,0,3.37,.33,4.39,1,1.02,.66,1.53,1.63,1.53,2.91,0,.77-.2,1.41-.6,1.93-.4,.52-1.08,.98-2.03,1.37-.04,.01-.06,.04-.06,.08s.02,.07,.06,.08c1.02,.31,1.78,.74,2.27,1.31,.49,.56,.73,1.31,.73,2.24,0,1.36-.51,2.37-1.54,3.03s-2.53,1-4.52,1H2.15c-.11,0-.19-.03-.25-.09ZM7.65,9.1c.34,0,.66-.04,.98-.11,.32-.07,.6-.2,.85-.37,.25-.17,.45-.39,.6-.65,.15-.26,.23-.58,.23-.96,0-.72-.27-1.27-.8-1.64-.53-.37-1.23-.55-2.08-.55h-2.3c-.23,0-.34,.1-.34,.3v3.64c0,.23,.09,.34,.26,.34h2.6Zm-.18,6.54c1.03,0,1.8-.19,2.31-.57,.5-.38,.76-.92,.76-1.62,0-.51-.12-.93-.37-1.27-.25-.34-.59-.58-1.03-.75-.44-.16-.93-.24-1.48-.24h-2.5c-.24,0-.36,.11-.36,.32v3.79c0,.23,.09,.34,.26,.34h2.42Z"/>
    <path class="cls-2" d="M20.28,17.55c-.54,.23-1.15,.35-1.83,.35-1.03,0-1.85-.27-2.44-.82-.59-.54-.89-1.25-.89-2.12,0-.74,.22-1.38,.67-1.92,.45-.54,1.1-.97,1.94-1.28,.85-.31,1.86-.49,3.04-.54l1.01-.06c.08-.01,.15-.04,.22-.08,.07-.04,.1-.11,.1-.22v-.46c0-.59-.17-1.05-.52-1.38-.35-.33-.83-.49-1.45-.49-.47,0-.91,.1-1.32,.31-.41,.21-.76,.55-1.06,1.02-.04,.09-.08,.15-.13,.17-.05,.02-.13,.02-.25-.01l-1.71-.42c-.05-.03-.1-.07-.13-.12-.03-.05-.01-.16,.07-.32,.35-.77,.92-1.34,1.71-1.73,.79-.39,1.77-.58,2.94-.58,1.03,0,1.87,.14,2.51,.42,.64,.28,1.1,.67,1.4,1.18,.3,.5,.44,1.1,.44,1.78v7.09c0,.15-.02,.25-.07,.31-.05,.06-.14,.09-.27,.09h-1.71c-.12,0-.21-.05-.26-.14-.05-.09-.09-.21-.1-.34l-.04-.6c-.03-.23-.15-.23-.38-.02-.46,.4-.95,.72-1.49,.96Zm1.53-5.06l-.83,.06c-.43,.03-.84,.09-1.24,.19-.4,.1-.74,.24-1.05,.4-.3,.17-.54,.38-.72,.62-.18,.25-.27,.54-.27,.88,0,.46,.16,.82,.49,1.09,.33,.27,.78,.4,1.34,.4,.36,0,.7-.06,1.01-.18,.31-.12,.58-.27,.81-.46,.23-.19,.41-.39,.55-.59,.14-.21,.21-.42,.21-.63v-1.43c0-.23-.1-.34-.3-.34Z"/>
    <path class="cls-2" d="M33.93,7.24c.59,.28,1.08,.63,1.46,1.07,.38,.44,.67,.9,.88,1.38,.08,.24,.01,.37-.2,.38l-1.77,.22c-.13,.03-.23-.03-.28-.18-.17-.29-.36-.56-.54-.79-.19-.23-.4-.41-.64-.53-.24-.13-.54-.19-.89-.19-.54,0-1.01,.14-1.42,.42-.41,.28-.72,.71-.95,1.27-.22,.56-.33,1.26-.33,2.07s.12,1.53,.35,2.09c.23,.56,.56,.99,.98,1.28,.42,.29,.91,.43,1.49,.43s1.1-.16,1.49-.47c.39-.32,.75-.76,1.09-1.32,.04-.05,.08-.09,.12-.1,.04-.01,.11,0,.2,.02l1.27,.34c.13,.04,.17,.15,.12,.34-.13,.31-.33,.64-.57,.99-.25,.35-.55,.67-.92,.96-.36,.29-.8,.52-1.3,.71-.5,.18-1.08,.27-1.72,.27-1.02,0-1.93-.23-2.72-.69-.79-.46-1.41-1.11-1.86-1.93-.45-.83-.67-1.78-.67-2.87s.23-2.07,.68-2.91c.46-.84,1.08-1.49,1.87-1.96,.79-.47,1.69-.7,2.7-.7,.81,0,1.5,.14,2.09,.41Z"/>
    <path class="cls-2" d="M48.33,17.56c-.04,.09-.13,.14-.28,.14h-2.22c-.12,0-.22-.03-.29-.09-.07-.06-.14-.15-.19-.27l-2.42-4.51c-.04-.09-.08-.15-.12-.16-.04-.01-.1,.02-.18,.1l-1.67,1.65c-.05,.05-.1,.11-.13,.18-.03,.07-.05,.16-.05,.28v2.38c0,.16-.03,.28-.1,.34-.07,.07-.19,.1-.36,.1h-1.75c-.16,0-.27-.03-.32-.09-.05-.06-.08-.15-.08-.27V3.1c0-.23,.1-.34,.3-.34h2.03c.19,0,.28,.11,.28,.32V11.72c0,.08,.02,.13,.06,.16,.04,.03,.1,0,.18-.1l4.19-4.47c.19-.19,.36-.28,.5-.28h1.83c.17,0,.28,.05,.31,.14,.03,.09-.01,.2-.13,.32l-2.96,2.98c-.05,.07-.09,.13-.1,.2-.01,.07,.01,.17,.08,.3l3.54,6.3c.07,.09,.08,.19,.04,.28Z"/>
    <path class="cls-2" d="M53.7,3.08c0-.09,.03-.17,.08-.23,.05-.06,.14-.09,.26-.09h11.32c.12,0,.21,.03,.26,.09,.05,.06,.08,.14,.08,.23v1.57c0,.19-.11,.28-.32,.28h-3.87c-.15,0-.22,.07-.22,.2v12.22c0,.23-.1,.34-.3,.34h-2.4c-.19,0-.28-.11-.28-.32V5.17c0-.16-.07-.24-.22-.24h-4.05c-.23,0-.34-.09-.34-.28v-1.57Z"/>
    <path class="cls-2" d="M67.47,17.19c-.8-.47-1.42-1.12-1.86-1.94-.44-.83-.66-1.77-.66-2.83,0-1.11,.23-2.09,.69-2.93,.46-.84,1.09-1.49,1.89-1.96,.8-.47,1.71-.7,2.73-.7s1.99,.24,2.78,.71c.79,.48,1.41,1.13,1.85,1.97s.66,1.8,.66,2.89-.22,2.02-.67,2.85c-.45,.83-1.07,1.47-1.86,1.94-.79,.47-1.72,.7-2.78,.7s-1.97-.23-2.77-.7Zm4.24-1.52c.39-.29,.68-.71,.89-1.27,.2-.56,.3-1.24,.3-2.04s-.1-1.51-.31-2.07c-.21-.56-.51-.99-.9-1.29-.39-.29-.87-.44-1.43-.44s-1.03,.15-1.43,.44c-.4,.3-.71,.73-.92,1.29-.21,.56-.31,1.26-.31,2.07s.1,1.49,.31,2.04c.21,.56,.51,.98,.92,1.27,.4,.29,.88,.43,1.43,.43s1.06-.14,1.45-.43Z"/>
    <path class="cls-2" d="M81.21,3.08c0-.09,.03-.17,.08-.23,.05-.06,.14-.09,.26-.09h11.32c.12,0,.21,.03,.26,.09,.05,.06,.08,.14,.08,.23v1.57c0,.19-.11,.28-.32,.28h-3.87c-.15,0-.22,.07-.22,.2v12.22c0,.23-.1,.34-.3,.34h-2.4c-.19,0-.28-.11-.28-.32V5.17c0-.16-.07-.24-.22-.24h-4.05c-.23,0-.34-.09-.34-.28v-1.57Z"/>
    <path class="cls-2" d="M94.97,17.19c-.8-.47-1.42-1.12-1.86-1.94-.44-.83-.66-1.77-.66-2.83,0-1.11,.23-2.09,.69-2.93,.46-.84,1.09-1.49,1.89-1.96,.8-.47,1.71-.7,2.73-.7s1.99,.24,2.78,.71c.79,.48,1.41,1.13,1.85,1.97s.66,1.8,.66,2.89-.22,2.02-.67,2.85c-.45,.83-1.07,1.47-1.86,1.94-.79,.47-1.72,.7-2.78,.7s-1.97-.23-2.77-.7Zm4.24-1.52c.39-.29,.68-.71,.89-1.27,.2-.56,.3-1.24,.3-2.04s-.1-1.51-.31-2.07c-.21-.56-.51-.99-.9-1.29-.39-.29-.87-.44-1.43-.44s-1.03,.15-1.43,.44c-.4,.3-.71,.73-.92,1.29-.21,.56-.31,1.26-.31,2.07s.1,1.49,.31,2.04c.21,.56,.51,.98,.92,1.27,.4,.29,.88,.43,1.43,.43s1.06-.14,1.45-.43Z"/>
    <path class="cls-2" d="M107.67,7.39v.68c0,.09,.03,.14,.08,.15,.05,0,.11-.02,.18-.09,.2-.19,.43-.38,.69-.58,.26-.2,.58-.37,.96-.51,.38-.14,.83-.21,1.37-.21,.81,0,1.52,.2,2.15,.59,.63,.4,1.13,.99,1.51,1.79,.38,.8,.56,1.82,.56,3.05s-.19,2.31-.56,3.14c-.38,.83-.9,1.46-1.56,1.87-.66,.42-1.43,.62-2.29,.62-.55,0-1.05-.09-1.51-.26-.46-.17-.87-.43-1.23-.77-.13-.12-.23-.17-.28-.16-.05,.01-.08,.11-.08,.28v3.71c0,.21-.09,.32-.28,.32h-2.05c-.19,0-.28-.11-.28-.32V7.43c0-.13,.03-.23,.08-.3,.05-.07,.16-.1,.32-.1h1.83c.25,0,.38,.12,.38,.36Zm1,8.5c.36,.2,.76,.3,1.2,.3,.54,0,1-.14,1.4-.41,.4-.28,.7-.71,.93-1.29s.33-1.34,.33-2.27-.11-1.64-.33-2.17-.53-.92-.93-1.16c-.4-.23-.84-.35-1.32-.35-.44,0-.84,.09-1.18,.27-.34,.18-.61,.41-.81,.69-.19,.28-.29,.58-.29,.89v4.69c.31,.34,.64,.6,1,.81Z"/>
  </g>
</svg>