<?xml version="1.0" encoding="utf-8"?>
<!-- Generator: Adobe Illustrator 27.1.1, SVG Export Plug-In . SVG Version: 6.00 Build 0)  -->
<svg version="1.1" id="Layer_1" xmlns="http://www.w3.org/2000/svg" xmlns:xlink="http://www.w3.org/1999/xlink" x="0px" y="0px"
	 viewBox="0 0 32.4 32.4" style="enable-background:new 0 0 32.4 32.4;" xml:space="preserve">
<style type="text/css">
	.st0{fill:#022A2A;}
</style>
<path class="st0" d="M31.6,21.5l0.8-6.8L29,14.3c-0.2-1.1-0.5-2.1-0.9-3.1l2.7-2.1l-4.3-5.4l-2.7,2.1c-0.9-0.6-1.8-1.2-2.8-1.6
	l0.4-3.4L14.7,0l-0.4,3.4c-1.1,0.2-2.1,0.5-3.1,0.9L9.1,1.6L3.7,5.8l2.1,2.7c-0.6,0.9-1.2,1.8-1.6,2.8l-3.4-0.4L0,17.8l3.4,0.4
	c0.2,1.1,0.5,2.1,0.9,3.1l-2.7,2.1l4.3,5.4l2.7-2.1c0.9,0.6,1.8,1.2,2.8,1.6l-0.4,3.4l6.8,0.8l0.4-3.4c1.1-0.2,2.1-0.5,3.1-0.9
	l2.1,2.7l5.4-4.3l-2.1-2.7c0.6-0.9,1.2-1.8,1.6-2.8L31.6,21.5z M22.1,16.9c-0.4,3.2-3.3,5.6-6.6,5.2c-3.2-0.4-5.6-3.3-5.2-6.6
	c0.4-3.2,3.3-5.6,6.6-5.2C20.2,10.7,22.5,13.7,22.1,16.9z"/>
</svg>
