<?xml version="1.0" encoding="utf-8"?>
<!-- Generator: Adobe Illustrator 27.1.1, SVG Export Plug-In . SVG Version: 6.00 Build 0)  -->
<svg version="1.1" id="Layer_1" xmlns="http://www.w3.org/2000/svg" xmlns:xlink="http://www.w3.org/1999/xlink" x="0px" y="0px"
	 viewBox="0 0 44.9 83" style="enable-background:new 0 0 44.9 83;" xml:space="preserve">
<style type="text/css">
	.st0{fill:#002A2A;}
</style>
<path class="st0" d="M42.9,45.4c-0.4,0.9-1.1,1.2-2.1,1.2c-3.4,0-6.7,0-10.1,0h-1.2c0,0.5,0,0.9,0,1.3c0,10,0,20.1,0,30.1
	c0,1.7-0.5,2.2-2.2,2.2c-3.9,0-7.9,0-11.8,0c-1.9,0-2.4-0.4-2.4-2.3c0-5.8,0-11.5,0-17.3c0-4.3,0-8.5,0-12.8c0-0.4,0-0.7,0-1.2
	c-0.8,0-1.5,0-2.2,0c-2.5,0-5.1,0-7.6,0c-1.2,0-1.8-0.6-1.9-1.8c0-4.1,0-8.1,0-12.2c0-0.9,0.5-1.5,1.2-1.9c3.1,0,6.3,0,9.4,0
	c0.3,0,0.7-0.1,1-0.2c0-2.8,0-5.6,0.1-8.4c0.1-3.1,0.5-6.2,1.8-9c3-6.6,8.4-9.6,15.4-10c3.7-0.2,7.3-0.1,11-0.1c1.4,0,1.9,0.6,1.9,2
	c0,3.7,0,7.4,0,11.1c0,1.4-0.5,1.9-1.9,1.9c-2.6,0-5.2,0-7.8,0.1c-2.5,0.1-3.8,1.2-4,3.7c-0.2,2.9-0.1,5.8-0.1,8.7
	c0.3,0.1,0.7,0.2,1,0.2c3.7,0,7.4,0,11.2,0c0.4,0.4,0.8,0.8,1.2,1.1C42.9,36.3,42.9,40.8,42.9,45.4L42.9,45.4z"/>
<path class="st0" d="M42.9,45.4c0-4.5,0-9.1,0-13.6c0.1,0.3,0.2,0.5,0.2,0.8c0,4,0,8,0,11.9C43.1,44.8,43,45.1,42.9,45.4L42.9,45.4z
	"/>
<path class="st0" d="M41.7,30.6c-3.7,0-7.4,0-11.2,0c-0.3,0-0.7-0.1-1-0.2c3.8,0,7.5,0,11.2,0C41.1,30.4,41.4,30.6,41.7,30.6
	L41.7,30.6z"/>
<path class="st0" d="M13.1,30.4c-0.3,0.1-0.7,0.2-1,0.2c-3.1,0-6.3,0-9.4,0c0.3-0.1,0.7-0.2,1-0.2C6.9,30.4,10,30.4,13.1,30.4
	L13.1,30.4z"/>
</svg>
