<?xml version="1.0" encoding="utf-8"?>
<!-- Generator: Adobe Illustrator 27.0.1, SVG Export Plug-In . SVG Version: 6.00 Build 0)  -->
<svg version="1.1" id="Layer_1" xmlns="http://www.w3.org/2000/svg" xmlns:xlink="http://www.w3.org/1999/xlink" x="0px" y="0px"
	 viewBox="0 0 63.1 57" style="enable-background:new 0 0 63.1 57;" xml:space="preserve">
<style type="text/css">
	.st0{fill:#DDC193;}
</style>
<g>
	<path class="st0" d="M52,18H11.1c-1.3,0-2.3-1-2.3-2.3s1-2.3,2.3-2.3H52c1.3,0,2.3,1,2.3,2.3S53.3,18,52,18z"/>
	<path class="st0" d="M52,30.8H11.1c-1.3,0-2.3-1-2.3-2.3s1-2.3,2.3-2.3H52c1.3,0,2.3,1,2.3,2.3S53.3,30.8,52,30.8z"/>
	<path class="st0" d="M52,43.7H11.1c-1.3,0-2.3-1-2.3-2.3s1-2.3,2.3-2.3H52c1.3,0,2.3,1,2.3,2.3S53.3,43.7,52,43.7z"/>
</g>
</svg>
