<?xml version="1.0" encoding="utf-8"?>
<!-- Generator: Adobe Illustrator 27.1.1, SVG Export Plug-In . SVG Version: 6.00 Build 0)  -->
<svg version="1.1" id="Layer_1" xmlns="http://www.w3.org/2000/svg" xmlns:xlink="http://www.w3.org/1999/xlink" x="0px" y="0px"
	 viewBox="0 0 63.1 57" style="enable-background:new 0 0 63.1 57;" xml:space="preserve">
<style type="text/css">
	.st0{fill:#013F3D;}
	.st1{fill-rule:evenodd;clip-rule:evenodd;fill:#013F3D;}
</style>
<g>
	<g>
		<g>
			<path class="st0" d="M60.5,45.7c-0.2-1-0.5-1.9-1-2.8c-6.1-10.6-12.2-21.1-18.3-31.7c-1-1.7-2-3.5-3-5.2
				c-1.3-2.1-3.2-3.4-5.6-3.7c-0.2,0-0.4-0.1-0.7-0.1c-0.3,0-0.5,0-0.8,0c-0.1,0-0.1,0-0.2,0c-0.6,0-1.3,0.2-1.9,0.4
				c-1.9,0.6-3.3,1.8-4.3,3.5c-4.7,8.2-9.4,16.3-14.1,24.5C8.3,34.8,6,38.9,3.6,43c-0.9,1.5-1.2,3.1-1,4.9c0.3,2,1.2,3.7,2.7,5
				c1.4,1.2,3.1,1.8,5,1.8c14.1,0,28.2,0,42.3,0c0.6,0,1.2-0.1,1.8-0.2c3.4-0.7,5.5-3.5,6-6.3c0-0.2,0.1-0.4,0.1-0.6
				c0-0.4,0-0.9,0-1.3C60.5,46.1,60.5,45.9,60.5,45.7z M54.2,52.5c-0.5,0.1-1,0.2-1.5,0.2c-4.3,0-8.6,0-12.9,0c-2.8,0-5.5,0-8.3,0
				c-7.1,0-14.2,0-21.2,0c-1.3,0-2.5-0.4-3.5-1.2c-1.3-1-2-2.4-2.2-4c-0.1-1.2,0.2-2.4,0.8-3.4c3.6-6.3,7.3-12.6,10.9-18.9
				c3.2-5.6,6.4-11.2,9.7-16.7c0.2-0.4,0.4-0.8,0.7-1.1c0.9-1.6,2.3-2.5,4.1-2.8c2.3-0.3,4.6,0.7,5.8,2.8c1,1.8,2,3.5,3.1,5.3
				c3.5,6,6.9,12,10.4,17.9c2.6,4.5,5.2,9,7.8,13.5C59.7,47.3,57.9,51.5,54.2,52.5z"/>
		</g>
		<path class="st1" d="M32.4,39.9c-0.1,0.1-0.2,0.2-0.3,0.3c-1,1-2,2-2.9,2.9c-0.3,0.3-0.4,0.5-0.3,0.9c0.4,2.5-1.2,4.9-3.7,5.5
			c-0.8,0.2-1.6,0.2-2.4,0c0.1-0.1,0.1-0.2,0.2-0.3c1-1,2.1-2,3.1-3.1c0.1-0.1,0.2-0.2,0.3-0.3c-0.1-0.1-0.2-0.2-0.2-0.3
			c-0.9-0.9-1.9-1.9-2.8-2.8c-0.3-0.3-0.3-0.3-0.5,0c-1,1-2,2-3,3c-0.1,0.1-0.2,0.2-0.4,0.3c-0.1-0.2-0.1-0.4-0.2-0.5
			c-0.3-2.6,1.1-4.4,2.8-5.2c0.9-0.4,1.8-0.6,2.8-0.4c0.4,0.1,0.7,0,1-0.3c1.1-1.2,2.3-2.3,3.4-3.4c0.1-0.1,0.2-0.2,0.3-0.3
			c-2.1-2.2-4.2-4.3-6.4-6.4c-0.1,0.1-0.2,0.1-0.3,0.2c-0.3,0.3-0.5,0.5-0.8,0.8c-0.3,0.3-0.6,0.5-1.1,0.3c-0.2-0.1-0.4,0-0.6,0.2
			c-0.1,0.1-0.2,0.2-0.3,0.3c0.3,0.3,0.6,0.6,0.9,0.9c-0.8,0.8-1.7,1.7-2.5,2.4c-1.4-1.4-2.8-2.8-4.2-4.2c0.1-0.1,0.1-0.2,0.2-0.3
			c0.6-0.6,1.2-1.3,1.9-1.9c0.3-0.3,0.4-0.3,0.7,0c0.2,0.2,0.3,0.3,0.5,0.5c0.1,0.1,0.3,0.1,0.4,0c0.1-0.1,0.1-0.2,0.2-0.2
			c0.2-0.1,0.2-0.3,0.1-0.5c-0.2-0.4,0-0.7,0.2-1c0.2-0.2,0.5-0.5,0.7-0.7c0.1-0.1,0.2-0.2,0.3-0.3c-0.1-0.1-0.1-0.2-0.2-0.3
			c0.7-0.7,1.4-1.4,2.1-2.1c0.1,0.1,0.2,0.1,0.3,0.2c0.1-0.1,0.2-0.1,0.2-0.2c0.3-0.3,0.7-0.7,1-1c0.4-0.4,0.8-0.6,1.3-0.3
			c0.1-0.1,0.2-0.2,0.3-0.3c0.4-0.3,0.9-0.6,1.3-0.9c1.2-0.7,2.4-0.7,3.6-0.2c0.5,0.2,1.1,0.5,1.5,0.9c0.6,0.4,1.2,1,1.7,1.4
			c0.1,0.1,0.2,0.2,0.3,0.3c-0.1,0.1-0.1,0.2-0.2,0.3c-0.2,0.3-0.3,0.3-0.7,0.2c-0.3-0.1-0.7-0.3-1-0.4c-1.5-0.5-2.9-0.2-4.1,0.7
			c-0.2,0.2-0.3,0.3-0.2,0.6c0.1,0.3-0.1,0.6-0.3,0.8c-0.3,0.3-0.6,0.6-0.9,0.8c-0.1,0.1-0.2,0.2-0.2,0.2c2.2,2.2,4.3,4.3,6.5,6.5
			c0,0,0.1-0.1,0.2-0.2c1.3-1.3,2.6-2.6,4-3.9c0.3-0.3,0.4-0.7,0.4-1.1c-0.4-2.9,1.5-4.7,3.2-5.3c0.8-0.3,1.7-0.3,2.5-0.2
			c0.1,0,0.1,0,0.1,0c0,0,0,0,0.1,0.1c-0.3,0.3-0.5,0.6-0.8,0.9c-0.8,0.8-1.5,1.6-2.3,2.3c-0.1,0.1-0.2,0.2-0.2,0.3
			c-0.1,0.1-0.1,0.2,0,0.4c0,0,0.1,0.1,0.1,0.1c0.9,0.9,1.9,1.9,2.8,2.8c0.1,0.1,0.2,0.2,0.3,0.3c0.1-0.1,0.2-0.2,0.3-0.3
			c1-1,2-2,3-3c0.1-0.1,0.2-0.2,0.4-0.3c0.1,0.2,0.1,0.4,0.2,0.5c0.4,2.5-1.2,5-3.9,5.5c-0.6,0.1-1.1,0.1-1.7,0
			c-0.3-0.1-0.6,0-0.8,0.2c-1.2,1.2-2.4,2.4-3.6,3.6c0,0,0,0.1-0.1,0.1c0.1,0.1,0.2,0.2,0.3,0.3c1.8,1.8,3.7,3.7,5.5,5.5
			c0.9,0.9,1.8,1.8,2.7,2.7c0.1,0.1,0.2,0.1,0.2,0.2c0.4,0.5,0.5,0.9,0,1.4c-0.7,0.7-1.3,1.4-2,2c-0.5,0.5-0.9,0.4-1.4,0
			c-0.8-0.8-1.6-1.6-2.4-2.4c-2-2-4-4-6-6C32.6,40.1,32.5,40,32.4,39.9z"/>
	</g>
</g>
</svg>
