<?xml version="1.0" encoding="UTF-8"?>
<svg id="Layer_1" data-name="Layer 1" xmlns="http://www.w3.org/2000/svg" viewBox="0 0 83 83">
  <defs>
    <style>
      .cls-1 {
        fill: #ddc193;
      }
    </style>
  </defs>
  <path class="cls-1" d="M41.5,50.53c-10.79,0-19.57-8.78-19.57-19.57S30.71,11.38,41.5,11.38s19.57,8.78,19.57,19.57-8.78,19.57-19.57,19.57Zm0-32.29c-7.01,0-12.72,5.7-12.72,12.72s5.7,12.72,12.72,12.72,12.72-5.7,12.72-12.72-5.7-12.72-12.72-12.72Z"/>
  <g>
    <path class="cls-1" d="M62.77,76.68l-.48-6.81c-.77-10.84-9.9-19.33-20.79-19.33s-20.01,8.49-20.79,19.33l-.48,6.81-5.17-4.46C6.1,64.51,.96,53.31,.96,41.5,.96,19.15,19.15,.96,41.5,.96s40.54,18.18,40.54,40.54c0,11.81-5.14,23.01-14.09,30.72l-5.17,4.46Zm-21.27-33.01c12.09,0,22.56,7.89,26.26,18.9,4.76-5.93,7.41-13.35,7.41-21.08,0-18.57-15.11-33.68-33.68-33.68S7.82,22.93,7.82,41.5c0,7.73,2.65,15.14,7.41,21.08,3.71-11.01,14.17-18.9,26.26-18.9Z"/>
    <path class="cls-1" d="M41.5,82.04c-9.71,0-19.1-3.49-26.44-9.81l-1.3-1.12,.12-1.72c1.03-14.41,13.16-25.71,27.63-25.71s26.6,11.29,27.63,25.71l.12,1.72-1.3,1.12c-7.35,6.33-16.74,9.81-26.44,9.81Zm-20.59-13.89c5.88,4.54,13.12,7.03,20.59,7.03s14.71-2.48,20.59-7.03c-1.56-10.01-10.29-17.62-20.59-17.62s-19.03,7.61-20.59,17.62Z"/>
  </g>
</svg>