<?xml version="1.0" encoding="UTF-8"?>
<svg id="Layer_1" data-name="Layer 1" xmlns="http://www.w3.org/2000/svg" viewBox="0 0 99.67 83">
  <defs>
    <style>
      .cls-1 {
        fill: #ddc193;
      }
    </style>
  </defs>
  <path class="cls-1" d="M9.72,30.38c-2.78-3.25-4.69-6.9-5.27-11.19-.61-4.5,.11-8.76,2.26-12.77,.79-1.47,1.48-1.51,2.59-.2,7.61,9.03,17.12,15.07,28.59,17.92,2.48,.61,5.03,.94,7.55,1.35,.94,.15,1.35-.16,1.29-1.29-.5-8.58,2.65-15.42,10.19-19.79,7.36-4.26,16.63-3.51,23.1,1.73,1.61,1.31,3.1,1.63,4.91,.86,2.67-1.13,5.31-2.32,7.99-3.42,.52-.21,1.16-.13,1.74-.18,.05,.59,.3,1.26,.11,1.76-.56,1.42-1.2,2.83-1.99,4.13-.77,1.27-1.75,2.4-2.88,3.9,2.07-.73,3.87-1.38,5.68-1.99,.43-.15,.92-.3,1.35-.23,.82,.15,1.05,1.14,.34,1.96-2.37,2.73-4.71,5.51-7.3,8.04-1.37,1.34-2.02,2.68-2.06,4.57-.29,13.93-5.08,26.2-14.08,36.77-8.3,9.76-18.88,15.75-31.47,18-13.66,2.43-26.67,.5-38.85-6.33-.58-.33-1.2-.9-1.42-1.5-.37-.98,.47-1.79,1.67-1.78,5.37,.05,10.64-.59,15.65-2.58,2.62-1.04,5.11-2.4,7.6-3.78-6.34-1.53-11.18-4.85-14.37-10.42-.63-1.1-1.13-2.3-1.56-3.5-.44-1.23,.18-1.88,1.49-1.72,.92,.12,1.85,.21,3.15,.36-1.49-1.01-2.71-1.74-3.82-2.61-4.2-3.33-6.7-7.68-7.58-12.96-.17-1.04-.26-2.11-.29-3.16-.03-1.23,.78-1.66,1.94-1.16,1.17,.51,2.37,.93,3.56,1.39,.11,.02,.22,.04,.33,.06-.05-.09-.09-.17-.14-.26Z"/>
  <path class="cls-1" d="M9.72,30.38c.05,.09,.09,.17,.14,.26-.11-.02-.22-.04-.33-.06,.06-.07,.13-.13,.19-.2Z"/>
</svg>