<?xml version="1.0" encoding="utf-8"?>
<!-- Generator: Adobe Illustrator 27.1.1, SVG Export Plug-In . SVG Version: 6.00 Build 0)  -->
<svg version="1.1" id="Layer_1" xmlns="http://www.w3.org/2000/svg" xmlns:xlink="http://www.w3.org/1999/xlink" x="0px" y="0px"
	 viewBox="0 0 32.4 32.4" style="enable-background:new 0 0 32.4 32.4;" xml:space="preserve">
<style type="text/css">
	.st0{fill:#033F3D;}
</style>
<path class="st0" d="M32.4,15.8l-1.6-6.7l-3.3,0.8C27,9,26.3,8.1,25.6,7.4l1.8-2.9l-5.9-3.6l-1.8,2.9c-1-0.3-2.1-0.5-3.1-0.5L15.8,0
	L9.1,1.6L9.9,5C9,5.5,8.1,6.1,7.4,6.8L4.4,5.1l-3.6,5.9l2.9,1.8c-0.3,1-0.5,2.1-0.5,3.1L0,16.7l1.6,6.7L5,22.5
	c0.5,0.9,1.1,1.8,1.9,2.6L5.1,28l5.9,3.6l1.8-2.9c1,0.3,2.1,0.5,3.1,0.5l0.8,3.3l6.7-1.6l-0.8-3.3c0.9-0.5,1.8-1.1,2.6-1.9l2.9,1.8
	l3.6-5.9l-2.9-1.8c0.3-1,0.5-2.1,0.5-3.1L32.4,15.8z M21.2,19.3c-1.7,2.8-5.3,3.7-8.1,2c-2.8-1.7-3.7-5.3-2-8.1
	c1.7-2.8,5.3-3.7,8.1-2C22,12.9,22.9,16.5,21.2,19.3z"/>
</svg>
