<?xml version="1.0" encoding="UTF-8"?>
<svg id="Layer_1" data-name="Layer 1" xmlns="http://www.w3.org/2000/svg" viewBox="0 0 82.97 83">
  <defs>
    <style>
      .cls-1 {
        fill: #ddc193;
      }
    </style>
  </defs>
  <path class="cls-1" d="M1.48,21.55c.7-2.44,1.06-5.04,2.15-7.29C7.42,6.47,13.74,1.88,22.44,1.67c12.69-.31,25.39-.22,38.09-.03,9.57,.15,18.07,7.29,20.23,16.61,.45,1.95,.68,3.99,.69,5.99,.06,11.48,.05,22.95,.02,34.43-.02,10.11-5.69,18.46-14.83,21.54-2.34,.79-4.91,1.21-7.39,1.23-12.2,.11-24.4,.13-36.6-.01-10.6-.12-19.88-8.78-21.02-19.33-.03-.26-.12-.51-.18-.76,0-13.27,0-26.53,.01-39.8ZM22.7,8.75c-.27,0-.54-.02-.8,.01-7.76,1.01-13.29,7.27-13.31,15.11-.02,11.7,0,23.41,0,35.11,0,8.69,6.54,15.33,15.22,15.37,11.74,.05,23.49,.01,35.23,.01,2.2,0,4.34-.35,6.33-1.3,6.15-2.95,8.97-7.97,8.98-14.68,.01-11.21,.02-22.42-.01-33.63,0-1.44-.14-2.9-.4-4.31-1.2-6.38-7.55-11.76-13.73-11.7-4.12-.01-8.23-.04-12.35-.03-8.38,0-16.77,.02-25.15,.03Z"/>
  <path class="cls-1" d="M60.2,8.76c-.4,.07-.8,.19-1.2,.19-11.7,.01-23.4,.01-35.1,0-.4,0-.8-.13-1.2-.19,8.38-.01,16.77-.03,25.15-.03,4.12,0,8.23,.02,12.35,.03Z"/>
  <path class="cls-1" d="M41.43,62.07c-10.95,.32-20.73-9.23-20.59-20.76,.13-10.63,8.49-19.4,18.38-20.23,6.45-.55,12.16,1.19,16.79,5.84,4,4.02,6.02,8.9,6.05,14.59,.06,11.99-10.11,20.94-20.64,20.57Zm.12-33.96c-7.43,0-13.54,5.93-13.56,13.19-.02,7.59,5.93,13.64,13.45,13.68,7.36,.04,13.48-6.02,13.52-13.4,.04-7.39-6-13.46-13.41-13.47Z"/>
  <path class="cls-1" d="M62.97,14.89c2.83,.02,5.16,2.33,5.2,5.15,.04,2.92-2.5,5.49-5.49,5.35-2.71-.13-5.04-2.44-4.99-5.35,.05-2.89,2.36-5.17,5.28-5.15Z"/>
</svg>