<?xml version="1.0" encoding="UTF-8"?>
<svg id="Layer_1" data-name="Layer 1" xmlns="http://www.w3.org/2000/svg" viewBox="0 0 82.99 83">
  <defs>
    <style>
      .cls-1 {
        fill: #ddc193;
      }
    </style>
  </defs>
  <path class="cls-1" d="M34.13,66.98C16.01,66.98,1.27,52.24,1.27,34.13S16.01,1.27,34.13,1.27s32.86,14.74,32.86,32.86-14.74,32.86-32.86,32.86Zm0-58.94c-14.38,0-26.08,11.7-26.08,26.08s11.7,26.08,26.08,26.08,26.08-11.7,26.08-26.08-11.7-26.08-26.08-26.08Z"/>
  <path class="cls-1" d="M78.33,81.73c-.85,0-1.71-.32-2.37-.97l-23.66-23.15c-1.34-1.31-1.36-3.45-.05-4.79,1.31-1.34,3.45-1.36,4.79-.05l23.66,23.15c1.34,1.31,1.36,3.45,.05,4.79-.66,.68-1.54,1.02-2.42,1.02Z"/>
</svg>