<?xml version="1.0" encoding="utf-8"?>
<!-- Generator: Adobe Illustrator 27.1.1, SVG Export Plug-In . SVG Version: 6.00 Build 0)  -->
<svg version="1.1" id="Layer_1" xmlns="http://www.w3.org/2000/svg" xmlns:xlink="http://www.w3.org/1999/xlink" x="0px" y="0px"
	 viewBox="0 0 32.4 32.4" style="enable-background:new 0 0 32.4 32.4;" xml:space="preserve">
<style type="text/css">
	.st0{fill:#0A5E5A;}
</style>
<g id="_x31_2">
	<path class="st0" d="M30.2,25.2l-2.5-2.5c0.5-0.9,1-1.9,1.2-3h3.5v-7h-3.5c-0.3-1.1-0.7-2.1-1.2-3l2.5-2.5l-5-5l-2.5,2.5
		c-0.9-0.5-1.9-1-3-1.2V0h-7v3.5c-1.1,0.3-2.1,0.7-3,1.2L7.2,2.3l-5,5l2.5,2.5c-0.5,0.9-1,1.9-1.2,3H0v7h3.5c0.3,1.1,0.7,2.1,1.2,3
		l-2.5,2.5l5,5l2.5-2.5c0.9,0.5,1.9,1,3,1.2v3.5h7v-3.5c1.1-0.3,2.1-0.7,3-1.2l2.5,2.5L30.2,25.2z M16.2,22.2c-3.3,0-6-2.7-6-6
		c0-3.3,2.7-6,6-6s6,2.7,6,6C22.2,19.5,19.5,22.2,16.2,22.2z"/>
</g>
</svg>
