<?xml version="1.0" encoding="UTF-8"?>
<svg id="Layer_1" data-name="Layer 1" xmlns="http://www.w3.org/2000/svg" viewBox="0 0 85.56 83">
  <defs>
    <style>
      .cls-1 {
        fill: #ddc193;
      }
    </style>
  </defs>
  <path class="cls-1" d="M76.12,81.61H9.44c-4.41,0-8.01-3.59-8.01-8.01V26.84c0-4.42,3.59-8.01,8.01-8.01H76.12c4.41,0,8.01,3.59,8.01,8.01v46.76c0,4.41-3.59,8.01-8.01,8.01ZM9.44,25.61c-.68,0-1.23,.55-1.23,1.23v46.76c0,.68,.55,1.23,1.23,1.23H76.12c.68,0,1.23-.55,1.23-1.23V26.84c0-.68-.55-1.23-1.23-1.23H9.44Z"/>
  <path class="cls-1" d="M66.43,25.61H19.13V6.9c0-3.04,2.47-5.51,5.51-5.51H60.93c3.04,0,5.51,2.47,5.51,5.51V25.61Zm-40.52-6.78H59.65V8.17H25.91v10.66ZM60.93,8.17h0Z"/>
</svg>