<?xml version="1.0" encoding="utf-8"?>
<!-- Generator: Adobe Illustrator 27.0.1, SVG Export Plug-In . SVG Version: 6.00 Build 0)  -->
<svg version="1.1" id="Layer_1" xmlns="http://www.w3.org/2000/svg" xmlns:xlink="http://www.w3.org/1999/xlink" x="0px" y="0px"
	 viewBox="0 0 108.7 225" style="enable-background:new 0 0 108.7 225;" xml:space="preserve">
<style type="text/css">
	.st0{fill:#FFF780;}
</style>
<g>
	<g>
		<g>
			<path class="st0" d="M87.4,125.3l-0.4-0.9C71.5,88.8,54.4,82.8,54.3,82.8l-1.5-0.5l1.5-0.4c43.9-12.6,46.9-59.8,46.9-60.3
				l0.1-1.4l0.8,1.1c6.1,8.5,10.9,60.2-14.1,103.2L87.4,125.3z M55.8,82.4c4.3,2,18.4,10.7,31.7,40.8c24.3-42.4,19.1-89.7,14.4-100
				C101.1,31.5,94.6,70.4,55.8,82.4z"/>
			<g>
				<path class="st0" d="M21.5,125.3l-0.5-0.8C-4.2,81.6,0.5,30,6.6,21.4l0.8-1.1l0.1,1.4c0,0.5,3.2,47.7,47.1,60.2l1.5,0.4
					l-1.5,0.5c-0.2,0.1-17.3,6.2-32.7,41.7L21.5,125.3z M6.7,23.3C2,33.6-3.1,80.9,21.4,123.2C34.6,93.1,48.7,84.4,53,82.4
					C14.2,70.5,7.6,31.6,6.7,23.3z"/>
				<path class="st0" d="M54.4,82.8l-0.1,0C9.7,70.1,6.5,22.2,6.5,21.7l0-0.2l0.1-0.1C6.8,21.2,20.7,3.7,54.3,3.7h0.1
					c33.5,0,47.5,17.4,47.6,17.6l0.1,0.1l0,0.2c0,0.5-3.1,48.4-47.6,61.2L54.4,82.8z M7.5,21.8c0.3,3.2,4.5,47.8,46.9,60
					c42.3-12.3,46.5-56.8,46.8-60.1C99.8,20.1,85.9,4.6,54.4,4.6h-0.1C22.8,4.7,8.9,20.2,7.5,21.8z"/>
			</g>
			<path class="st0" d="M54.5,122.7l-21.4-20.9l0.2-0.3C44.5,85.2,53.9,82,54.3,81.8l0.2-0.1l0.2,0c0.4,0.1,9.7,3.4,21,19.6l0.2,0.3
				L54.5,122.7z M34.3,101.7l20.1,19.7l20.1-19.7C64.3,87.1,55.7,83.3,54.4,82.8C53.2,83.3,44.5,87.2,34.3,101.7z"/>
			<path class="st0" d="M54.6,200.8l-21.7-21.1l11.8-68l9.8,9.6l9.8-9.6l12,67.9L54.6,200.8z M33.8,179.4l20.7,20.1l20.7-20.2
				l-11.6-65.6l-9.1,9l-9.2-9L33.8,179.4z"/>
		</g>
		<g>
			<path class="st0" d="M82.3,176.7h-1.9l0-0.7l4.7,0v0.7l-1.9,0l0,5.6l-0.8,0L82.3,176.7z"/>
			<path class="st0" d="M91.1,179.5c0-0.9-0.1-1.9-0.1-2.7h0c-0.2,0.7-0.5,1.5-0.8,2.4l-1.1,3.1l-0.6,0l-1-3
				c-0.3-0.9-0.6-1.7-0.7-2.4h0c0,0.8-0.1,1.8-0.1,2.8l-0.2,2.7h-0.8L86,176h1l1.1,3c0.3,0.8,0.5,1.5,0.6,2.1h0
				c0.2-0.6,0.4-1.3,0.7-2.1l1.1-3h1l0.4,6.3h-0.8L91.1,179.5z"/>
		</g>
	</g>
	<path class="st0" d="M10.7,38.8L10.3,38c0.2-0.1,20.7-9.4,44-9.4c0,0,0.1,0,0.1,0c23.3,0,43.8,9.2,44,9.3L98,38.7
		c-0.2-0.1-20.5-9.2-43.6-9.2c0,0-0.1,0-0.1,0C31.2,29.6,10.9,38.8,10.7,38.8z"/>
	<path class="st0" d="M46.1,16.2c-1.5,0.4-2.7,0.1-3.9-0.4c-2.8-1.3-5.1,0.8-6,2.7c-0.3,0.6-0.3,1.3,0.2,1.8
		c0.5,0.5,1.1,0.5,1.7,0.3c2-0.5,3-1.9,3.5-3.8c0,0.3,0.1,0.5,0.1,0.8c-0.2,2-2.6,4-4.6,3.4c-1.1-0.3-1.6-1.3-1.3-2.4
		c0.4-1.2,1-2.1,1.9-2.9c0.5-0.4,1.1-0.8,1.6-1.1c1.4-0.8,2.9-0.7,4.3-0.2c0.5,0.2,1.1,0.4,1.6,0.6c1,0.3,2,0.3,2.8-0.4
		c0.1-0.1,0.3-0.1,0.4-0.2c0,0.1,0.1,0.1,0.1,0.1c-0.7,0.7-1.5,1.4-2.2,2.1c-0.7,0.8-1.4,1.6-2,2.5c-0.6,0.9-1.2,1.8-1.9,2.6
		c-0.7,0.8-1.4,1.6-2,2.5c1.2-0.1,2.3-0.4,3.2-1.3c0.9-0.8,1.5-1.8,1.3-3.1c0.4,0.8,0.3,1.6,0,2.4c-0.4,0.9-1.1,1.5-2,1.8
		c-0.7,0.2-1.4,0.4-2.2,0.5c-0.7,0.1-1.3,0.5-1.7,1c-1.5,1.6-3.2,2.9-5.2,3.8c-0.5,0.2-1.2,0.3-1.8,0.3c-0.7,0-1.1-0.7-0.9-1.5
		c0.2-0.9,0.8-1.5,1.6-1.8c1.2-0.5,2.4-1.1,3.7-1.4c1.1-0.3,1.9-0.9,2.5-1.8c1.8-2.5,3.9-4.6,6.3-6.5C45.6,16.7,45.7,16.5,46.1,16.2
		z M37.6,25.4c0-0.1-0.1-0.2-0.1-0.2c-1.2,0.4-2.5,0.8-3.7,1.3c-0.6,0.3-1.2,0.7-1.7,1.1c-0.7,0.7-0.5,1.7,0.5,2
		C34.8,29,36,26.9,37.6,25.4z"/>
	<g>
		<g>
			<path class="st0" d="M52.4,21.2c-1.6,0-2.4,0-4,0c-0.3,0.6-0.4,0.9-0.7,1.6c-0.2,0.4-0.2,0.7-0.2,0.9c0,0.1,0.1,0.3,0.2,0.4
				c0.1,0.1,0.5,0.2,0.9,0.2c0,0.1,0,0.2,0,0.3c-1.3,0-1.9,0-3.1,0.1c0-0.1,0-0.2,0-0.3c0.4-0.1,0.7-0.2,0.8-0.3
				c0.2-0.2,0.5-0.7,0.8-1.5c1.3-3.3,2-5,3.5-8.3c0.1,0,0.2,0,0.3,0c1.5,3.3,2.2,5,3.6,8.3c0.3,0.7,0.5,1.1,0.7,1.3
				c0.2,0.2,0.5,0.3,0.9,0.4c0,0.1,0,0.2,0,0.3c-1.6-0.1-2.4-0.1-3.9-0.1c0-0.1,0-0.2,0-0.3c0.4,0,0.7-0.1,0.8-0.2
				c0.1-0.1,0.2-0.2,0.2-0.4c0-0.2-0.1-0.6-0.3-1C52.8,22.1,52.7,21.8,52.4,21.2z M52.2,20.7c-0.7-1.6-1-2.4-1.8-4
				c-0.7,1.6-1.1,2.4-1.8,4C50.1,20.7,50.8,20.7,52.2,20.7z"/>
			<path class="st0" d="M66.5,15.1c0,1.4-0.1,2-0.1,3.4c-0.1,0-0.1,0-0.2,0c-0.2-1-0.6-1.8-1.2-2.3c-0.6-0.5-1.3-0.8-2.1-0.9
				c-0.7-0.1-1.4,0.1-2,0.4c-0.6,0.3-1.1,0.8-1.4,1.5c-0.4,0.7-0.6,1.6-0.6,2.7c0,0.9,0.1,1.7,0.3,2.4c0.3,0.7,0.7,1.2,1.2,1.6
				c0.6,0.4,1.2,0.6,2,0.7c0.6,0.1,1.2,0,1.8-0.3c0.5-0.2,1.1-0.7,1.8-1.5c0.1,0.1,0.1,0.1,0.2,0.2c-0.6,0.8-1.3,1.4-2,1.8
				c-0.7,0.3-1.5,0.5-2.4,0.4c-1.6-0.1-2.9-0.8-3.7-2.1c-0.6-0.9-0.9-2-0.9-3.3c0-1,0.3-1.9,0.8-2.7c0.5-0.8,1.2-1.4,2.1-1.8
				c0.9-0.4,1.8-0.6,2.8-0.5c0.8,0.1,1.5,0.3,2.2,0.7c0.2,0.1,0.4,0.2,0.5,0.2c0.1,0,0.3,0,0.4-0.1c0.1-0.1,0.3-0.3,0.3-0.5
				C66.3,15.1,66.4,15.1,66.5,15.1z"/>
			<path class="st0" d="M71.7,20.5c1.3,1.7,1.9,2.5,3.2,4.2c0.5,0.7,0.9,1.2,1.3,1.5c0.4,0.3,0.8,0.5,1.2,0.6c0,0.1,0,0.2-0.1,0.3
				c-1.9-0.4-2.8-0.5-4.7-0.8c0-0.1,0-0.2,0-0.3c0.3,0,0.5,0,0.6,0c0.1-0.1,0.2-0.2,0.2-0.3c0-0.1,0-0.2,0-0.3
				c0-0.1-0.2-0.3-0.4-0.6c-1.2-1.6-1.8-2.3-3-3.9c-0.2,1.3-0.3,1.9-0.4,3.2c-0.1,0.5-0.1,0.8,0,1c0,0.1,0.1,0.2,0.3,0.4
				c0.2,0.1,0.4,0.2,0.6,0.3c0.1,0,0.2,0,0.3,0c0,0.1,0,0.2,0,0.3c-1.7-0.2-2.5-0.4-4.2-0.6c0-0.1,0-0.2,0-0.3c0.1,0,0.2,0,0.4,0
				c0.4,0,0.7,0,0.9-0.3c0.1-0.1,0.2-0.5,0.3-1.1c0.3-2.6,0.5-3.8,0.8-6.4c0.1-0.5,0.1-0.8,0-1c0-0.1-0.1-0.2-0.3-0.3
				c-0.2-0.1-0.5-0.2-0.7-0.3c-0.1,0-0.2,0-0.4,0c0-0.1,0-0.2,0-0.3c1.8,0.2,2.7,0.3,4.5,0.6c0,0.1,0,0.2,0,0.3
				c-0.1,0-0.2,0-0.4-0.1c-0.2,0-0.5,0-0.7,0.1c-0.2,0.1-0.3,0.2-0.4,0.3c-0.1,0.1-0.2,0.5-0.2,0.9c-0.2,1.2-0.2,1.8-0.4,3
				c0.1-0.1,0.5-0.3,1.2-0.8c1.7-1.1,2.8-1.8,3.2-2.2c0.2-0.2,0.3-0.3,0.3-0.5c0-0.1,0-0.2-0.1-0.3c-0.1-0.1-0.3-0.2-0.5-0.2
				c-0.1,0-0.1,0-0.2,0c0-0.1,0-0.2,0-0.3c1.6,0.2,2.3,0.4,3.9,0.7c0,0.1,0,0.2,0,0.3c-0.2,0-0.4,0-0.6,0c-0.2,0-0.4,0.1-0.7,0.2
				c-0.3,0.1-0.7,0.3-1.1,0.6c-0.1,0.1-0.7,0.5-1.8,1.2C72.8,19.7,72.4,20,71.7,20.5z"/>
		</g>
	</g>
	<g>
		<g>
			<path class="st0" d="M14.3,63.8c0.1,0,0.1,0,0.2,0c0.1,1.3,0.2,1.9,0.4,3.1c-0.1,0-0.1,0-0.2,0c0-0.1,0-0.2,0-0.3
				c0-0.3-0.2-0.6-0.5-0.7c-0.1-0.1-0.5-0.1-0.9,0c-1.4,0.2-2.1,0.3-3.6,0.5c-0.9,0.1-1.6,0.1-2.1,0c-0.5-0.1-1-0.4-1.4-0.9
				c-0.4-0.5-0.7-1.2-0.8-2.1c-0.1-1,0-1.8,0.3-2.4c0.3-0.6,0.7-1,1.2-1.2c0.4-0.2,1.1-0.3,2.2-0.4c1.4-0.1,2.1-0.2,3.4-0.3
				c0.5-0.1,0.9-0.2,1-0.3c0.2-0.2,0.2-0.4,0.2-0.8c0-0.1,0-0.2,0-0.3c0.1,0,0.1,0,0.2,0c0.1,1.5,0.2,2.3,0.4,3.8
				c-0.1,0-0.1,0-0.2,0c0-0.1,0-0.2,0-0.3c0-0.4-0.2-0.6-0.4-0.7c-0.2-0.1-0.5-0.1-1-0.1c-1.5,0.2-2.3,0.2-3.8,0.4
				c-0.3,0-0.7,0.1-1.2,0.2c-0.4,0.1-0.8,0.3-1,0.5C6.3,61.4,6.1,61.7,6,62c-0.1,0.3-0.2,0.7-0.1,1.2c0.1,0.6,0.3,1.1,0.6,1.6
				c0.3,0.4,0.7,0.7,1.1,0.9c0.4,0.1,1.1,0.1,2,0c1.4-0.2,2.1-0.3,3.6-0.4c0.5-0.1,0.9-0.2,1-0.3c0.2-0.2,0.2-0.5,0.2-0.8
				C14.3,64,14.3,63.9,14.3,63.8z"/>
			<path class="st0" d="M16,73.1c-1.2,0.2-1.8,0.3-3,0.5c0-0.1,0-0.1,0-0.2c0.6-0.2,1-0.4,1.3-0.6c0.3-0.3,0.5-0.6,0.7-1
				c0.1-0.4,0.2-0.8,0.1-1.2c-0.1-0.5-0.3-0.8-0.6-1.1c-0.3-0.3-0.7-0.4-1-0.3c-0.3,0-0.5,0.2-0.7,0.4c-0.3,0.3-0.6,1-1,2.1
				c-0.3,0.9-0.5,1.5-0.7,1.9c-0.2,0.3-0.4,0.6-0.7,0.8c-0.3,0.2-0.6,0.4-1,0.4c-0.7,0.1-1.3-0.1-1.8-0.5c-0.6-0.5-0.9-1.1-1.1-2
				c0-0.3-0.1-0.5-0.1-0.8c0-0.1,0-0.4,0.1-0.9c0.1-0.5,0.1-0.7,0.1-0.9c0-0.1-0.1-0.2-0.1-0.3c-0.1-0.1-0.2-0.1-0.4-0.1
				c0-0.1,0-0.2,0-0.3c1.2-0.2,1.8-0.3,3-0.4c0,0.1,0,0.2,0,0.2c-0.6,0.2-1.1,0.4-1.3,0.7c-0.3,0.2-0.5,0.6-0.6,1
				C7,71.1,6.9,71.6,7,72.1c0.1,0.6,0.3,1,0.6,1.3c0.3,0.3,0.7,0.4,1.1,0.3c0.2,0,0.4-0.1,0.6-0.3c0.2-0.2,0.4-0.4,0.5-0.7
				c0.1-0.2,0.3-0.7,0.6-1.5c0.3-0.8,0.6-1.4,0.8-1.8c0.2-0.4,0.4-0.7,0.7-0.9c0.3-0.2,0.6-0.3,1-0.4c0.6-0.1,1.2,0.1,1.7,0.5
				c0.5,0.4,0.8,1,1,1.7c0.1,0.5,0,1-0.1,1.5c-0.1,0.3-0.1,0.4-0.1,0.5c0,0.1,0.1,0.2,0.1,0.3c0.1,0.1,0.2,0.1,0.4,0.1
				C16,72.9,16,73,16,73.1z"/>
			<path class="st0" d="M17.5,82c-0.8,0.2-1.2,0.3-2,0.5c0-0.1,0-0.1-0.1-0.2c0.3-0.1,0.6-0.2,0.7-0.4c0.2-0.2,0.4-0.4,0.4-0.7
				c0.1-0.2,0.1-0.5,0-0.9c-0.1-0.5-0.2-0.7-0.2-1.2c-2.7,0.5-4,0.8-6.6,1.3c-0.5,0.1-0.9,0.2-1,0.4c-0.1,0.2-0.2,0.5-0.1,0.8
				c0,0.1,0,0.2,0.1,0.3c-0.1,0-0.1,0-0.2,0c-0.3-1.5-0.5-2.3-0.8-3.9c0.1,0,0.1,0,0.2,0c0,0.1,0,0.2,0.1,0.3
				c0.1,0.4,0.2,0.6,0.5,0.8c0.2,0.1,0.5,0.1,1,0c2.7-0.5,4-0.8,6.6-1.3c-0.1-0.4-0.1-0.6-0.2-1c-0.1-0.4-0.2-0.7-0.3-0.9
				c-0.1-0.2-0.3-0.4-0.6-0.5c-0.3-0.1-0.6-0.2-1-0.1c0-0.1,0-0.2,0-0.3c0.8-0.1,1.2-0.2,2.1-0.3C16.7,77.7,16.9,79.2,17.5,82z"/>
			<path class="st0" d="M18.9,86.9c0.3,1.1,0.1,2.2-0.5,3.2c-0.6,1-1.6,1.7-2.8,2.1c-1.3,0.3-2.5,0.2-3.6-0.4
				c-1.1-0.6-1.8-1.6-2.1-2.8c-0.3-1.2-0.1-2.4,0.5-3.4c0.7-1,1.7-1.7,3-2c1.4-0.3,2.6-0.1,3.7,0.7C18,84.9,18.6,85.8,18.9,86.9z
				 M18.4,86.9c-0.2-0.8-0.6-1.3-1.3-1.7c-0.8-0.4-2-0.5-3.3-0.2c-1.4,0.3-2.4,0.9-3,1.7c-0.5,0.6-0.6,1.3-0.4,2.1
				c0.2,0.8,0.7,1.5,1.5,1.9c0.8,0.4,1.8,0.4,3.2,0.1c1.5-0.4,2.5-1,3.1-1.7C18.5,88.5,18.6,87.7,18.4,86.9z"/>
			<path class="st0" d="M12.9,99.4c2.4-2.2,3.7-3.3,6.2-5.5c-2.3,0.6-3.4,1-5.7,1.6c-0.5,0.1-0.8,0.3-0.9,0.5
				c-0.1,0.2-0.1,0.5,0,0.8c0,0.1,0.1,0.2,0.1,0.3c-0.1,0-0.1,0-0.2,0.1c-0.4-1.2-0.5-1.9-0.9-3.1c0.1,0,0.1,0,0.2-0.1
				c0,0.1,0.1,0.2,0.1,0.3c0.1,0.4,0.3,0.6,0.5,0.7c0.2,0.1,0.5,0,1-0.1c2.2-0.6,3.3-0.9,5.6-1.5c0.4-0.1,0.6-0.2,0.8-0.4
				c0.1-0.1,0.2-0.2,0.2-0.4c0-0.2,0-0.4-0.1-0.8c0.1,0,0.1,0,0.2-0.1c0.3,1,0.4,1.5,0.7,2.4c-2.3,2-3.5,3-5.7,5.1
				c3,0.5,4.5,0.7,7.6,1c0.3,1,0.5,1.4,0.8,2.4c-0.1,0-0.1,0-0.2,0.1c0-0.1-0.1-0.2-0.1-0.3c-0.1-0.4-0.3-0.6-0.6-0.7
				c-0.2,0-0.5,0-1,0.2c-2.2,0.7-3.3,1.1-5.5,1.8c-0.5,0.2-0.8,0.3-0.9,0.5c-0.1,0.2-0.1,0.5,0,0.8c0,0.1,0.1,0.2,0.1,0.3
				c-0.1,0-0.1,0-0.2,0.1c-0.5-1.5-0.7-2.2-1.2-3.8c0.1,0,0.1,0,0.2-0.1c0,0.1,0.1,0.2,0.1,0.3c0.1,0.4,0.3,0.6,0.6,0.7
				c0.2,0.1,0.5,0,1-0.2c2.3-0.7,3.4-1.1,5.6-1.8c-3.3-0.4-4.9-0.6-8.2-1.1C12.9,99.6,12.9,99.5,12.9,99.4z"/>
		</g>
	</g>
	<g>
		<g>
			<path class="st0" d="M96.9,89.5c-0.3,1.3-0.5,2-0.8,3.3c0.5,0.4,0.7,0.5,1.1,0.9c0.3,0.2,0.5,0.4,0.6,0.4c0.1,0,0.3,0,0.4-0.1
				c0.1-0.1,0.3-0.3,0.4-0.7c0.1,0,0.1,0,0.2,0.1c-0.3,1.1-0.4,1.6-0.7,2.7c-0.1,0-0.1,0-0.2-0.1c0-0.4,0-0.6,0-0.8
				c-0.1-0.3-0.5-0.6-1-1c-2.3-1.9-3.5-2.8-5.9-4.7c0-0.1,0-0.1,0.1-0.2c3-0.5,4.5-0.7,7.5-1.3c0.6-0.1,1-0.2,1.2-0.4
				c0.2-0.2,0.4-0.4,0.5-0.8c0.1,0,0.1,0,0.2,0.1c-0.3,1.4-0.5,2-0.8,3.4c-0.1,0-0.1,0-0.2-0.1c0.1-0.3,0.1-0.6,0-0.7
				c-0.1-0.1-0.2-0.2-0.3-0.3c-0.2,0-0.5,0-0.9,0C97.7,89.3,97.5,89.4,96.9,89.5z M96.4,89.5c-1.5,0.2-2.2,0.4-3.7,0.6
				c1.2,0.9,1.8,1.4,2.9,2.3C96,91.3,96.2,90.7,96.4,89.5z"/>
			<path class="st0" d="M101.1,82.6c0.1,0,0.1,0,0.2,0c-0.3,1.5-0.5,2.2-0.8,3.7c-0.1,0-0.1,0-0.2-0.1c0-0.1,0-0.2,0.1-0.3
				c0.1-0.4,0-0.6-0.1-0.8c-0.1-0.1-0.4-0.2-0.9-0.4c-2.1-0.5-3.2-0.7-5.3-1.2c-0.4-0.1-0.7-0.1-0.8-0.1c-0.1,0-0.2,0.1-0.3,0.2
				c-0.1,0.2-0.2,0.3-0.3,0.5c0,0.1,0,0.2-0.1,0.3c-0.1,0-0.1,0-0.2-0.1c0.3-1.4,0.5-2.1,0.8-3.5c0.1,0,0.1,0,0.2,0
				c0,0.1,0,0.2-0.1,0.3c-0.1,0.3,0,0.6,0.1,0.8c0.1,0.1,0.4,0.2,0.9,0.3c2.1,0.4,3.2,0.7,5.3,1.1c0.4,0.1,0.7,0.1,0.8,0.1
				c0.1,0,0.2-0.1,0.3-0.2c0.1-0.2,0.2-0.3,0.3-0.6C101.1,82.8,101.1,82.8,101.1,82.6z"/>
			<path class="st0" d="M100.5,74.5c0-0.1,0-0.1,0.1-0.2c0.9,0.4,1.3,0.7,2.1,1.1c-0.4,2.7-0.7,4-1.2,6.7c-0.1,0-0.1,0-0.2,0
				c0-0.1,0-0.2,0.1-0.3c0.1-0.4,0-0.6-0.2-0.8c-0.1-0.1-0.4-0.2-0.9-0.3c-2.1-0.4-3.2-0.6-5.3-1c-0.5-0.1-0.8-0.1-1,0
				c-0.2,0.1-0.3,0.3-0.4,0.7c0,0.1,0,0.2-0.1,0.3c-0.1,0-0.1,0-0.2,0c0.3-1.5,0.4-2.2,0.7-3.8c0.1,0,0.1,0,0.2,0
				c-0.1,0.4-0.1,0.8,0,1c0.1,0.2,0.1,0.3,0.3,0.4c0.1,0.1,0.4,0.2,0.9,0.3c2.1,0.4,3.1,0.6,5.2,1c0.3,0.1,0.6,0.1,0.7,0
				c0.1,0,0.2-0.1,0.2-0.2c0.1-0.1,0.1-0.4,0.2-1c0-0.3,0.1-0.4,0.1-0.6c0.1-0.7,0.1-1.1,0.1-1.4c-0.1-0.3-0.2-0.6-0.4-0.8
				C101.3,75.1,100.9,74.8,100.5,74.5z"/>
			<path class="st0" d="M95,68.4c0.1-1.1,0.7-2,1.6-2.7c0.9-0.7,2-1,3.2-0.9c1.3,0.1,2.3,0.7,3,1.6c0.7,0.9,1,2,0.9,3.2
				c-0.2,1.2-0.7,2.2-1.6,2.9c-0.9,0.7-2,0.9-3.3,0.7c-1.3-0.2-2.3-0.8-3-1.9C95.1,70.5,94.9,69.5,95,68.4z M95.5,68.6
				c-0.1,0.7,0.1,1.4,0.6,1.9c0.6,0.7,1.6,1.1,2.9,1.3c1.4,0.2,2.5,0.1,3.3-0.5c0.6-0.4,1-1,1.1-1.7c0.1-0.8-0.1-1.5-0.7-2.1
				c-0.5-0.6-1.5-1-2.8-1.1c-1.4-0.2-2.5,0-3.3,0.5C95.9,67.2,95.6,67.8,95.5,68.6z"/>
			<path class="st0" d="M104.9,55.8c-0.1,0.9-0.1,1.4-0.2,2.3c-1.7,1.1-2.5,1.6-4.2,2.6c0,0.2,0,0.4,0,0.5c0,0.1,0,0.1,0,0.2
				c0,0.1,0,0.1,0,0.2c1,0.1,1.5,0.1,2.4,0.2c0.5,0,0.9,0,1-0.1c0.2-0.1,0.3-0.4,0.3-0.7c0-0.1,0-0.2,0-0.3c0.1,0,0.1,0,0.2,0
				c-0.1,1.5-0.2,2.3-0.4,3.8c-0.1,0-0.1,0-0.2,0c0-0.1,0-0.2,0-0.3c0-0.4-0.1-0.6-0.3-0.8c-0.1-0.1-0.4-0.2-0.9-0.2
				c-2.2-0.2-3.2-0.3-5.4-0.5c-0.5-0.1-0.9,0-1,0.1c-0.2,0.1-0.3,0.4-0.3,0.7c0,0.1,0,0.2,0,0.3c-0.1,0-0.1,0-0.2,0
				c0.1-1.2,0.2-1.8,0.3-3.1c0.1-0.9,0.2-1.6,0.4-2c0.2-0.4,0.4-0.8,0.8-1c0.4-0.3,0.8-0.4,1.3-0.4c0.5,0,1,0.2,1.3,0.6
				c0.4,0.4,0.6,0.9,0.7,1.7c1-0.6,1.5-1,2.5-1.6c0.6-0.4,1-0.7,1.2-1c0.2-0.3,0.3-0.7,0.4-1.1C104.7,55.8,104.8,55.8,104.9,55.8z
				 M100.1,61.7c0-0.1,0-0.2,0-0.2c0-0.1,0-0.1,0-0.1c0.1-0.8-0.1-1.5-0.4-1.9c-0.3-0.4-0.7-0.7-1.3-0.7c-0.5,0-1,0.1-1.3,0.4
				c-0.4,0.3-0.6,0.7-0.6,1.3c0,0.2,0,0.6,0,1C98,61.5,98.7,61.6,100.1,61.7z"/>
			<path class="st0" d="M96.5,49.6c1.2,0,1.7,0,2.9,0.1c0,0.1,0,0.1,0,0.2c-0.6,0.1-1,0.2-1.3,0.4c-0.3,0.2-0.6,0.5-0.8,0.8
				c-0.2,0.4-0.3,0.7-0.3,1.1c0,0.4,0.1,0.8,0.3,1.1c0.2,0.3,0.5,0.5,0.9,0.5c0.3,0,0.5-0.1,0.7-0.2c0.3-0.2,0.8-0.8,1.3-1.8
				c0.5-0.8,0.8-1.3,1-1.6c0.2-0.3,0.5-0.5,0.8-0.7c0.3-0.1,0.6-0.2,1-0.2c0.6,0,1.2,0.3,1.6,0.8c0.4,0.5,0.7,1.2,0.6,2
				c0,0.3,0,0.5-0.1,0.7c0,0.1-0.1,0.4-0.3,0.8c-0.2,0.4-0.2,0.7-0.2,0.8c0,0.1,0,0.2,0.1,0.3c0.1,0.1,0.2,0.1,0.4,0.2
				c0,0.1,0,0.1,0,0.2c-1.1-0.1-1.7-0.1-2.9-0.2c0-0.1,0-0.1,0-0.2c0.6-0.1,1.1-0.2,1.4-0.4c0.3-0.2,0.6-0.4,0.8-0.8
				c0.2-0.4,0.3-0.8,0.4-1.3c0-0.5-0.1-1-0.4-1.3c-0.3-0.3-0.6-0.5-1-0.5c-0.2,0-0.4,0-0.6,0.2c-0.2,0.1-0.4,0.3-0.6,0.5
				c-0.1,0.2-0.4,0.6-0.8,1.3c-0.4,0.7-0.8,1.2-1,1.5c-0.3,0.3-0.5,0.5-0.8,0.7c-0.3,0.1-0.6,0.2-1,0.2c-0.6,0-1.1-0.3-1.5-0.8
				c-0.4-0.5-0.6-1.1-0.6-1.8c0-0.4,0.1-0.9,0.4-1.4c0.1-0.2,0.2-0.4,0.2-0.5c0-0.1,0-0.2-0.1-0.3c-0.1-0.1-0.2-0.1-0.4-0.2
				C96.5,49.7,96.5,49.7,96.5,49.6z"/>
		</g>
	</g>
	<path class="st0" d="M6.6,50.9c0-0.4,0-0.8,0-1.1c0-1.2,1.2-2.2,2.6-1.8c1.5,0.5,2.7,2.5,2.6,3.9c0,0.1-0.1,0.1-0.2,0.3
		c-0.1-0.4-0.1-0.6-0.2-0.8c-0.2-1-0.6-1.9-1.5-2.5c-0.7-0.5-1.5-0.5-2.2,0c-0.8,0.6-1,1-0.8,2c0.9,0.3,1.9,0.7,2.8,1
		c2.2,0.8,3.9,2.1,4.9,4.2c0.2,0.4,0.2,0.9-0.1,1.2c-0.3,0.4-0.7,0.4-1.1,0.3c-1.5-0.3-2.7-1.1-3.7-2.2c-0.9-0.9-1.7-1.8-2.6-2.8
		c-1.3-0.3-2.8-0.7-4.3-0.1c-0.4,0.5-0.4,1,0,1.5c1,1.3,2.3,2,3.9,2.1C7,56.1,7.4,56,7.9,56c-0.1-0.4-0.1-0.7-0.2-0.9
		c-0.4-0.6-1-0.9-1.7-1.1c-0.4-0.1-0.8-0.2-1.3-0.4c0-0.1,0-0.1,0-0.2c0.5,0.1,1,0.2,1.5,0.4c0.5,0.3,1.1,0.6,1.5,1
		c0.7,0.7,0.4,1.6-0.6,1.8c-1,0.2-1.8,0-2.7-0.4c-0.9-0.5-1.6-1.3-2-2.2c-0.6-1.4,0.2-2.6,1.5-2.9c0.6-0.1,1.3-0.1,2-0.1
		C6.1,50.8,6.3,50.9,6.6,50.9z M14.6,56.9c0-0.2,0-0.4,0-0.6c-0.3-0.5-0.5-1-0.9-1.3c-1.2-1.1-2.7-1.5-4.2-2c-0.5-0.2-1-0.2-1.5-0.3
		c0.2,0.4,0.4,0.8,0.7,1.1c1.1,1.4,2.4,2.4,4,3.1C13.2,57.2,13.9,57.6,14.6,56.9z"/>
	<g>
		<path class="st0" d="M93.8,104.9c0.1,0.2,0.2,0.5,0.3,0.7c0.8-0.8,0.9-2.5,0.2-3.3c-1.2-1.5-2.4-2.8-3.6-4.3
			c-1.3-1.6-2.2-3.3-2.2-5.4c0-0.1,0.1-0.3,0.1-0.6c0.1,0.2,0.2,0.3,0.2,0.3c0.1,1.5,1,2.5,1.9,3.5c1.1,1.3,2.3,2.5,3.2,3.8
			c1.2,1.9,1.5,3.9,0.4,6c-0.3,0.6-0.9,0.8-1.5,0.5c-0.4-0.2-0.6-0.5-0.4-1c0.1-0.4,0.5-0.6,0.9-0.5
			C93.6,104.8,93.7,104.9,93.8,104.9z"/>
		<path class="st0" d="M87.6,99c0.7-0.4,1.3-0.3,1.9-0.2c1.2,0.3,2,1.6,1.8,2.8c-0.2,1.2-1.2,1.7-2.2,1.2c-1.4-0.7-2.1-1.9-2.5-3.3
			c-0.5-1.6-0.3-3.2,0.1-4.7c0.4-1.4,0.6-2.7,0.9-4.1c0.1-0.4-0.1-0.9-0.1-1.5c0.7,0.6,1.1,1.2,1.1,2c-0.1,1-0.3,1.9-0.5,2.9
			c-0.1,0.6-0.3,1.2-0.4,1.8c-0.2,1-0.3,2-0.5,3c-0.2,1.4,0.9,3.2,2.1,3.8c0.5,0.2,0.9,0.2,1.3-0.1c0.4-0.3,0.5-0.7,0.4-1.1
			c-0.1-1.2-1.4-2.2-2.6-2.2C88.2,99.1,88,99.1,87.6,99z"/>
	</g>
	<g>
		<path class="st0" d="M33,212.7l0,2.9h-0.2c-0.1-0.5-0.2-1-0.4-1.3c-0.2-0.3-0.5-0.6-0.8-0.8c-0.3-0.2-0.7-0.3-1.1-0.3
			c-0.4,0-0.8,0.1-1,0.4c-0.3,0.3-0.4,0.6-0.4,0.9c0,0.3,0.1,0.5,0.3,0.7c0.3,0.3,0.9,0.7,1.8,1.2c0.8,0.4,1.3,0.7,1.6,0.9
			c0.3,0.2,0.5,0.5,0.7,0.8c0.2,0.3,0.2,0.6,0.2,0.9c0,0.6-0.2,1.2-0.7,1.6c-0.5,0.5-1.1,0.7-1.9,0.7c-0.2,0-0.5,0-0.7-0.1
			c-0.1,0-0.4-0.1-0.8-0.2c-0.4-0.1-0.6-0.2-0.8-0.2c-0.1,0-0.2,0-0.2,0.1c-0.1,0.1-0.1,0.2-0.1,0.4h-0.2l0-2.8h0.2
			c0.1,0.6,0.3,1,0.4,1.3c0.2,0.3,0.5,0.5,0.8,0.7c0.4,0.2,0.8,0.3,1.2,0.3c0.5,0,0.9-0.1,1.2-0.4c0.3-0.3,0.4-0.6,0.4-1
			c0-0.2-0.1-0.4-0.2-0.6c-0.1-0.2-0.3-0.4-0.5-0.6c-0.2-0.1-0.6-0.4-1.3-0.8c-0.7-0.4-1.2-0.7-1.5-0.9c-0.3-0.2-0.5-0.5-0.7-0.8
			c-0.2-0.3-0.2-0.6-0.2-0.9c0-0.6,0.2-1.1,0.7-1.5c0.5-0.4,1-0.6,1.7-0.6c0.4,0,0.9,0.1,1.4,0.3c0.2,0.1,0.4,0.2,0.5,0.2
			c0.1,0,0.2,0,0.3-0.1c0.1-0.1,0.1-0.2,0.2-0.4L33,212.7z"/>
		<path class="st0" d="M36.5,215.4l0,4.5c0,0.3,0,0.6,0.1,0.7c0.1,0.1,0.1,0.2,0.2,0.3c0.1,0.1,0.3,0.1,0.5,0.1v0.2l-2.7,0v-0.2
			c0.3,0,0.5,0,0.5-0.1c0.1-0.1,0.2-0.1,0.2-0.3c0.1-0.1,0.1-0.4,0.1-0.7l0-2.2c0-0.6,0-1-0.1-1.2c0-0.1-0.1-0.2-0.1-0.3
			c-0.1-0.1-0.1-0.1-0.3-0.1c-0.1,0-0.3,0-0.4,0.1l-0.1-0.2l1.7-0.7L36.5,215.4z M36,212.4c0.2,0,0.3,0.1,0.4,0.2
			c0.1,0.1,0.2,0.3,0.2,0.4c0,0.2-0.1,0.3-0.2,0.4c-0.1,0.1-0.3,0.2-0.4,0.2c-0.2,0-0.3-0.1-0.4-0.2c-0.1-0.1-0.2-0.3-0.2-0.4
			c0-0.2,0.1-0.3,0.2-0.4C35.7,212.5,35.8,212.4,36,212.4z"/>
		<path class="st0" d="M39.7,216.5c0.7-0.8,1.3-1.2,1.9-1.2c0.3,0,0.6,0.1,0.8,0.2c0.2,0.2,0.4,0.4,0.5,0.7c0.1,0.2,0.1,0.6,0.1,1.1
			l0,2.4c0,0.4,0,0.6,0.1,0.7c0,0.1,0.1,0.2,0.2,0.2s0.3,0.1,0.6,0.1v0.2l-2.8,0v-0.2h0.1c0.3,0,0.4,0,0.5-0.1
			c0.1-0.1,0.2-0.2,0.2-0.4c0-0.1,0-0.3,0-0.6l0-2.3c0-0.5-0.1-0.9-0.2-1.1c-0.1-0.2-0.4-0.3-0.7-0.3c-0.5,0-1,0.3-1.4,0.8l0,2.9
			c0,0.4,0,0.6,0.1,0.7c0.1,0.1,0.1,0.2,0.2,0.3c0.1,0.1,0.3,0.1,0.6,0.1v0.2l-2.8,0v-0.2H38c0.3,0,0.5-0.1,0.6-0.2
			c0.1-0.1,0.1-0.4,0.1-0.8l0-2.1c0-0.7,0-1.1,0-1.2c0-0.1-0.1-0.2-0.1-0.3c-0.1-0.1-0.1-0.1-0.3-0.1c-0.1,0-0.3,0-0.4,0.1l-0.1-0.2
			l1.7-0.7h0.3L39.7,216.5z"/>
		<path class="st0" d="M49.1,218.9c-0.1,0.7-0.4,1.3-0.9,1.7c-0.4,0.4-0.9,0.6-1.5,0.6c-0.6,0-1.2-0.3-1.7-0.8
			c-0.5-0.5-0.7-1.3-0.7-2.2c0-0.9,0.3-1.6,0.8-2.1c0.5-0.6,1.1-0.8,1.9-0.8c0.6,0,1,0.1,1.4,0.4c0.4,0.3,0.5,0.6,0.5,0.9
			c0,0.2,0,0.3-0.1,0.4c-0.1,0.1-0.2,0.1-0.4,0.1c-0.2,0-0.4-0.1-0.5-0.2c-0.1-0.1-0.1-0.2-0.1-0.5c0-0.2-0.1-0.4-0.2-0.5
			c-0.1-0.1-0.3-0.2-0.6-0.2c-0.4,0-0.7,0.2-1,0.5c-0.3,0.4-0.5,0.9-0.5,1.6c0,0.7,0.2,1.3,0.5,1.8c0.3,0.5,0.8,0.8,1.3,0.8
			c0.4,0,0.8-0.1,1.1-0.4c0.2-0.2,0.4-0.5,0.7-1L49.1,218.9z"/>
		<path class="st0" d="M50.8,217.6c0,0.8,0.2,1.5,0.6,2c0.4,0.5,0.9,0.7,1.4,0.7c0.4,0,0.7-0.1,1-0.3c0.3-0.2,0.5-0.5,0.7-1l0.2,0.1
			c-0.1,0.6-0.3,1.1-0.7,1.5c-0.4,0.5-0.9,0.7-1.5,0.7c-0.7,0-1.2-0.3-1.7-0.8c-0.5-0.5-0.7-1.2-0.7-2.1c0-1,0.2-1.7,0.7-2.2
			c0.5-0.5,1.1-0.8,1.8-0.8c0.6,0,1.1,0.2,1.5,0.6c0.4,0.4,0.6,1,0.6,1.7L50.8,217.6z M50.8,217.2l2.6,0c0-0.4-0.1-0.6-0.1-0.8
			c-0.1-0.2-0.3-0.4-0.5-0.5c-0.2-0.1-0.4-0.2-0.6-0.2c-0.3,0-0.6,0.1-0.9,0.4C51,216.4,50.9,216.8,50.8,217.2z"/>
		<path class="st0" d="M59.6,213.6l2-1h0.2l0,7c0,0.5,0,0.8,0.1,0.9c0,0.1,0.1,0.2,0.2,0.3c0.1,0.1,0.4,0.1,0.7,0.1v0.2l-3.1,0
			l0-0.2c0.4,0,0.6,0,0.8-0.1c0.1-0.1,0.2-0.1,0.2-0.2c0-0.1,0.1-0.4,0.1-0.9l0-4.5c0-0.6,0-1-0.1-1.2c0-0.1-0.1-0.2-0.2-0.3
			c-0.1-0.1-0.2-0.1-0.3-0.1c-0.2,0-0.4,0.1-0.6,0.2L59.6,213.6z"/>
		<path class="st0" d="M65.1,221.2V221c0.5,0,1-0.1,1.5-0.4c0.5-0.2,0.9-0.7,1.3-1.3c0.4-0.6,0.7-1.3,0.9-2
			c-0.6,0.4-1.2,0.6-1.7,0.6c-0.6,0-1.1-0.2-1.5-0.7c-0.4-0.5-0.6-1-0.6-1.8c0-0.7,0.2-1.4,0.6-1.9c0.5-0.7,1.2-1,2-1
			c0.7,0,1.3,0.3,1.7,0.8c0.6,0.7,0.9,1.6,0.9,2.6c0,0.9-0.2,1.8-0.7,2.6c-0.4,0.8-1.1,1.5-1.9,2c-0.7,0.4-1.4,0.7-2.1,0.7
			L65.1,221.2L65.1,221.2z M68.8,216.9c0.1-0.5,0.1-1,0.1-1.3c0-0.4-0.1-0.8-0.2-1.3c-0.1-0.5-0.3-0.8-0.6-1.1
			c-0.2-0.2-0.5-0.4-0.8-0.4c-0.4,0-0.7,0.2-1,0.5c-0.3,0.3-0.4,0.8-0.4,1.5c0,0.9,0.2,1.5,0.6,2c0.3,0.3,0.6,0.5,1,0.5
			c0.2,0,0.4,0,0.7-0.1C68.4,217.2,68.6,217.1,68.8,216.9z"/>
		<path class="st0" d="M73,216.8c-0.7-0.5-1.1-1-1.3-1.3c-0.2-0.3-0.3-0.7-0.3-1c0-0.5,0.2-1,0.6-1.4c0.4-0.4,1-0.6,1.7-0.6
			c0.7,0,1.2,0.2,1.6,0.5c0.4,0.4,0.6,0.8,0.6,1.2c0,0.3-0.1,0.6-0.3,0.9c-0.2,0.3-0.7,0.7-1.4,1.1c0.7,0.6,1.2,1,1.4,1.3
			c0.3,0.4,0.5,0.8,0.5,1.3c0,0.6-0.2,1.1-0.7,1.5c-0.4,0.4-1,0.6-1.7,0.6c-0.8,0-1.4-0.2-1.8-0.7c-0.4-0.4-0.5-0.8-0.5-1.3
			c0-0.4,0.1-0.7,0.4-1.1C72,217.7,72.4,217.3,73,216.8z M73.3,217.1c-0.3,0.3-0.6,0.6-0.7,0.9c-0.2,0.3-0.2,0.7-0.2,1.1
			c0,0.5,0.1,0.9,0.4,1.3c0.3,0.3,0.7,0.5,1.1,0.5c0.4,0,0.8-0.1,1.1-0.4c0.3-0.3,0.4-0.6,0.4-0.9c0-0.3-0.1-0.6-0.2-0.8
			C74.8,218.3,74.2,217.8,73.3,217.1z M74,216.2c0.5-0.4,0.8-0.8,0.9-1c0.1-0.3,0.2-0.5,0.2-0.9c0-0.4-0.1-0.8-0.4-1
			c-0.2-0.2-0.6-0.4-1-0.4c-0.4,0-0.8,0.1-1,0.4c-0.3,0.2-0.4,0.5-0.4,0.8c0,0.2,0.1,0.4,0.2,0.6c0.1,0.2,0.3,0.4,0.5,0.6L74,216.2z
			"/>
		<path class="st0" d="M79.3,216.8c-0.7-0.5-1.1-1-1.3-1.3c-0.2-0.3-0.3-0.7-0.3-1c0-0.5,0.2-1,0.6-1.4c0.4-0.4,1-0.6,1.7-0.6
			c0.7,0,1.2,0.2,1.6,0.5c0.4,0.4,0.6,0.8,0.6,1.2c0,0.3-0.1,0.6-0.3,0.9c-0.2,0.3-0.7,0.7-1.4,1.1c0.7,0.6,1.2,1,1.4,1.3
			c0.3,0.4,0.5,0.8,0.5,1.3c0,0.6-0.2,1.1-0.7,1.5c-0.4,0.4-1,0.6-1.7,0.6c-0.8,0-1.4-0.2-1.8-0.7c-0.4-0.4-0.5-0.8-0.5-1.3
			c0-0.4,0.1-0.7,0.4-1.1C78.3,217.7,78.7,217.3,79.3,216.8z M79.6,217c-0.3,0.3-0.6,0.6-0.7,0.9c-0.2,0.3-0.2,0.7-0.2,1.1
			c0,0.5,0.1,0.9,0.4,1.3c0.3,0.3,0.7,0.5,1.1,0.5c0.4,0,0.8-0.1,1.1-0.4c0.3-0.3,0.4-0.6,0.4-0.9c0-0.3-0.1-0.6-0.2-0.8
			C81,218.3,80.5,217.7,79.6,217z M80.2,216.2c0.5-0.4,0.8-0.8,0.9-1c0.1-0.3,0.2-0.5,0.2-0.9c0-0.4-0.1-0.8-0.4-1
			c-0.2-0.2-0.6-0.4-1-0.4c-0.4,0-0.8,0.1-1,0.4c-0.3,0.2-0.4,0.5-0.4,0.8c0,0.2,0.1,0.4,0.2,0.6c0.1,0.2,0.3,0.4,0.5,0.6
			L80.2,216.2z"/>
	</g>
</g>
</svg>
