<?xml version="1.0" encoding="utf-8"?>
<!-- Generator: Adobe Illustrator 27.0.1, SVG Export Plug-In . SVG Version: 6.00 Build 0)  -->
<svg version="1.1" id="Layer_1" xmlns="http://www.w3.org/2000/svg" xmlns:xlink="http://www.w3.org/1999/xlink" x="0px" y="0px"
	 viewBox="0 0 72.5 150" style="enable-background:new 0 0 72.5 150;" xml:space="preserve">
<style type="text/css">
	.st0{fill:#FFF780;}
</style>
<g>
	<g>
		<g>
			<path class="st0" d="M58.1,83.4l-0.2-0.6C47.6,59.3,36.3,55.4,36.2,55.3l-1-0.3l1-0.3c29-8.3,31-39.6,31-39.9l0-0.9l0.5,0.7
				c4.1,5.7,7.2,39.8-9.4,68.3L58.1,83.4z M37.2,55.1c2.8,1.3,12.2,7.1,21,27c16.1-28,12.6-59.4,9.6-66.2
				C67.1,21.4,62.9,47.1,37.2,55.1z"/>
			<g>
				<path class="st0" d="M14.5,83.5L14.2,83C-2.5,54.6,0.6,20.4,4.6,14.7L5.2,14l0.1,0.9c0,0.3,2.1,31.6,31.1,39.8l1,0.3l-1,0.3
					c-0.1,0-11.4,4.1-21.6,27.6L14.5,83.5z M4.7,15.9c-3.1,6.8-6.4,38.2,9.7,66.1c8.8-19.9,18.1-25.7,20.9-27
					C9.6,47.2,5.3,21.4,4.7,15.9z"/>
				<path class="st0" d="M36.3,55.3L36.3,55.3C6.7,46.9,4.6,15.2,4.6,14.9l0-0.1l0.1-0.1C4.7,14.6,14,3,36.2,3h0.1
					c22.2,0,31.4,11.5,31.5,11.6l0.1,0.1l0,0.1C67.8,15.2,65.8,46.8,36.3,55.3L36.3,55.3z M5.2,15c0.2,2.1,3,31.6,31,39.7
					c28-8.1,30.8-37.6,30.9-39.8C66.3,13.8,57.1,3.6,36.3,3.6h-0.1C15.3,3.7,6.1,13.9,5.2,15z"/>
			</g>
			<path class="st0" d="M36.3,81.7L22.2,67.9l0.2-0.2c7.4-10.7,13.6-12.9,13.9-13l0.1,0l0.1,0c0.3,0.1,6.4,2.2,13.9,13l0.2,0.2
				L36.3,81.7z M23,67.8l13.3,13l13.3-13c-6.7-9.6-12.5-12.1-13.3-12.5C35.4,55.7,29.7,58.2,23,67.8z"/>
			<path class="st0" d="M36.4,133.4l-14.4-14l7.8-45l6.5,6.3l6.5-6.4l8,44.9L36.4,133.4z M22.7,119.3l13.7,13.3L50,119.2l-7.7-43.4
				l-6.1,5.9l-6.1-5.9L22.7,119.3z"/>
		</g>
		<g>
			<path class="st0" d="M54.7,117.5h-1.3l0-0.5l3.1,0v0.5l-1.3,0l0,3.7l-0.5,0L54.7,117.5z"/>
			<path class="st0" d="M60.5,119.3c0-0.6-0.1-1.3-0.1-1.8h0c-0.1,0.5-0.3,1-0.5,1.6l-0.7,2l-0.4,0l-0.7-2c-0.2-0.6-0.4-1.1-0.5-1.6
				h0c0,0.5,0,1.2-0.1,1.8l-0.1,1.8h-0.5l0.3-4.2h0.7l0.7,2c0.2,0.5,0.3,1,0.4,1.4h0c0.1-0.4,0.3-0.9,0.4-1.4l0.7-2h0.7l0.3,4.2
				h-0.5L60.5,119.3z"/>
		</g>
	</g>
	<path class="st0" d="M7.3,26.3l-0.3-0.6c0.1-0.1,13.7-6.2,29.1-6.2c0,0,0,0,0.1,0c15.4,0,29,6.1,29.1,6.1l-0.3,0.6
		c-0.1-0.1-13.6-6.1-28.8-6.1c0,0,0,0-0.1,0C20.9,20.1,7.5,26.2,7.3,26.3z"/>
	<path class="st0" d="M30.8,11.2c-1,0.3-1.8,0.1-2.6-0.3c-1.9-0.8-3.4,0.6-4,1.8C24,13.2,24,13.6,24.3,14c0.3,0.3,0.7,0.3,1.1,0.2
		c1.3-0.3,2-1.2,2.3-2.5c0,0.2,0.1,0.3,0.1,0.5c-0.1,1.3-1.7,2.6-3.1,2.3c-0.7-0.2-1.1-0.9-0.9-1.6c0.2-0.8,0.7-1.4,1.3-1.9
		c0.3-0.3,0.7-0.5,1.1-0.7c0.9-0.5,1.9-0.5,2.9-0.1c0.4,0.1,0.7,0.3,1.1,0.4c0.7,0.2,1.3,0.2,1.9-0.3c0.1-0.1,0.2-0.1,0.3-0.1
		c0,0,0.1,0.1,0.1,0.1c-0.5,0.5-1,0.9-1.5,1.4c-0.5,0.5-0.9,1.1-1.3,1.7c-0.4,0.6-0.8,1.2-1.2,1.7c-0.4,0.6-0.9,1.1-1.3,1.6
		c0.8-0.1,1.5-0.3,2.1-0.9c0.6-0.5,1-1.2,0.9-2c0.3,0.5,0.2,1.1,0,1.6c-0.3,0.6-0.7,1-1.4,1.2c-0.5,0.2-1,0.3-1.4,0.4
		c-0.5,0.1-0.8,0.3-1.2,0.6c-1,1.1-2.1,1.9-3.4,2.5c-0.4,0.2-0.8,0.2-1.2,0.2c-0.5,0-0.7-0.5-0.6-1c0.2-0.6,0.6-1,1.1-1.2
		c0.8-0.4,1.6-0.7,2.5-0.9c0.8-0.2,1.2-0.6,1.7-1.2c1.2-1.6,2.6-3,4.1-4.3C30.4,11.6,30.5,11.5,30.8,11.2z M25.1,17.4
		c0-0.1-0.1-0.1-0.1-0.2c-0.8,0.3-1.7,0.6-2.5,0.9c-0.4,0.2-0.8,0.4-1.2,0.8c-0.5,0.5-0.3,1.1,0.3,1.3
		C23.3,19.8,24.1,18.4,25.1,17.4z"/>
	<g>
		<g>
			<path class="st0" d="M35,14.6c-1,0-1.6,0-2.6,0c-0.2,0.4-0.3,0.6-0.4,1c-0.1,0.3-0.2,0.5-0.1,0.6c0,0.1,0.1,0.2,0.2,0.3
				c0.1,0.1,0.3,0.1,0.6,0.1c0,0.1,0,0.1,0,0.2c-0.8,0-1.2,0-2.1,0.1c0-0.1,0-0.1,0-0.2c0.3-0.1,0.5-0.1,0.5-0.2
				c0.2-0.2,0.3-0.5,0.5-1c0.9-2.2,1.3-3.3,2.3-5.5c0.1,0,0.1,0,0.2,0c1,2.2,1.5,3.3,2.4,5.5c0.2,0.4,0.3,0.7,0.5,0.9
				c0.1,0.1,0.4,0.2,0.6,0.2c0,0.1,0,0.1,0,0.2c-1,0-1.6,0-2.6-0.1c0-0.1,0-0.1,0-0.2c0.3,0,0.4-0.1,0.5-0.1
				c0.1-0.1,0.1-0.2,0.1-0.3c0-0.1-0.1-0.4-0.2-0.7C35.2,15.2,35.1,15,35,14.6z M34.8,14.2c-0.5-1.1-0.7-1.6-1.2-2.7
				c-0.5,1.1-0.7,1.6-1.2,2.7C33.4,14.2,33.9,14.2,34.8,14.2z"/>
			<path class="st0" d="M44.3,10.6c0,0.9,0,1.3-0.1,2.2c-0.1,0-0.1,0-0.2,0c-0.1-0.7-0.4-1.2-0.8-1.5c-0.4-0.3-0.8-0.5-1.4-0.6
				c-0.5,0-0.9,0-1.3,0.2c-0.4,0.2-0.7,0.5-0.9,1c-0.2,0.5-0.4,1.1-0.4,1.8c0,0.6,0,1.1,0.2,1.6c0.2,0.4,0.4,0.8,0.8,1.1
				c0.4,0.3,0.8,0.4,1.3,0.4c0.4,0,0.8,0,1.2-0.2c0.3-0.1,0.7-0.5,1.2-1c0.1,0,0.1,0.1,0.1,0.1c-0.4,0.5-0.8,0.9-1.3,1.2
				c-0.5,0.2-1,0.3-1.6,0.3c-1.1-0.1-1.9-0.5-2.5-1.4c-0.4-0.6-0.6-1.3-0.6-2.2c0-0.7,0.2-1.3,0.5-1.8c0.3-0.5,0.8-0.9,1.4-1.2
				c0.6-0.3,1.2-0.4,1.9-0.3c0.5,0,1,0.2,1.5,0.5c0.1,0.1,0.2,0.1,0.3,0.1c0.1,0,0.2,0,0.3-0.1c0.1-0.1,0.2-0.2,0.2-0.3
				C44.2,10.6,44.2,10.6,44.3,10.6z"/>
			<path class="st0" d="M47.7,14.1c0.9,1.1,1.3,1.7,2.1,2.8c0.3,0.5,0.6,0.8,0.9,1c0.3,0.2,0.5,0.3,0.8,0.4c0,0.1,0,0.1,0,0.2
				c-1.2-0.2-1.9-0.4-3.1-0.6c0-0.1,0-0.1,0-0.2c0.2,0,0.3,0,0.4,0c0.1-0.1,0.1-0.1,0.2-0.2c0-0.1,0-0.1,0-0.2
				c0-0.1-0.1-0.2-0.2-0.4c-0.8-1-1.2-1.5-2-2.6c-0.1,0.8-0.2,1.3-0.3,2.1c0,0.3-0.1,0.6,0,0.7c0,0.1,0.1,0.2,0.2,0.2
				c0.1,0.1,0.3,0.2,0.4,0.2c0.1,0,0.1,0,0.2,0c0,0.1,0,0.1,0,0.2c-1.1-0.2-1.7-0.2-2.8-0.4c0-0.1,0-0.1,0-0.2c0.1,0,0.1,0,0.2,0
				c0.3,0,0.5,0,0.6-0.2c0.1-0.1,0.2-0.3,0.2-0.7c0.2-1.7,0.3-2.5,0.5-4.2c0-0.3,0-0.6,0-0.7c0-0.1-0.1-0.2-0.2-0.2
				c-0.1-0.1-0.3-0.2-0.5-0.2c-0.1,0-0.1,0-0.2,0c0-0.1,0-0.1,0-0.2c1.2,0.1,1.8,0.2,3,0.4c0,0.1,0,0.1,0,0.2c-0.1,0-0.1,0-0.2,0
				c-0.2,0-0.3,0-0.5,0c-0.1,0-0.2,0.1-0.3,0.2c-0.1,0.1-0.1,0.3-0.1,0.6c-0.1,0.8-0.2,1.2-0.3,2c0.1-0.1,0.3-0.2,0.8-0.5
				c1.1-0.7,1.8-1.2,2.1-1.5c0.1-0.1,0.2-0.2,0.2-0.3c0-0.1,0-0.1-0.1-0.2c-0.1-0.1-0.2-0.1-0.4-0.1c-0.1,0-0.1,0-0.2,0
				c0-0.1,0-0.1,0-0.2c1,0.2,1.5,0.3,2.6,0.4c0,0.1,0,0.1,0,0.2c-0.2,0-0.3,0-0.4,0c-0.1,0-0.3,0.1-0.5,0.1
				c-0.2,0.1-0.4,0.2-0.7,0.4c-0.1,0.1-0.5,0.3-1.2,0.8C48.4,13.6,48.2,13.8,47.7,14.1z"/>
		</g>
	</g>
	<g>
		<g>
			<path class="st0" d="M9.7,42.8c0.1,0,0.1,0,0.2,0c0.1,0.8,0.1,1.2,0.3,2.1c-0.1,0-0.1,0-0.2,0c0-0.1,0-0.1,0-0.2
				c0-0.2-0.2-0.4-0.4-0.5c-0.1,0-0.3-0.1-0.6,0c-0.9,0.1-1.4,0.2-2.4,0.3c-0.6,0.1-1,0.1-1.4,0c-0.3-0.1-0.6-0.3-0.9-0.6
				C4,43.5,3.9,43,3.8,42.4c-0.1-0.7,0-1.2,0.2-1.6c0.2-0.4,0.5-0.6,0.8-0.8c0.2-0.1,0.7-0.2,1.4-0.3c0.9-0.1,1.4-0.1,2.3-0.2
				c0.4,0,0.6-0.1,0.7-0.2c0.1-0.1,0.1-0.3,0.1-0.5c0-0.1,0-0.1,0-0.2c0.1,0,0.1,0,0.2,0c0.1,1,0.1,1.5,0.2,2.5c-0.1,0-0.1,0-0.2,0
				c0-0.1,0-0.1,0-0.2c0-0.2-0.1-0.4-0.3-0.5c-0.1-0.1-0.3-0.1-0.7,0c-1,0.1-1.5,0.1-2.5,0.3c-0.2,0-0.5,0.1-0.8,0.1
				C5,40.8,4.8,40.9,4.6,41c-0.2,0.1-0.3,0.3-0.4,0.5c-0.1,0.2-0.1,0.5-0.1,0.8c0,0.4,0.2,0.7,0.4,1C4.7,43.7,5,43.9,5.3,44
				c0.3,0.1,0.7,0.1,1.3,0c0.9-0.1,1.4-0.2,2.4-0.3c0.4,0,0.6-0.1,0.7-0.2c0.1-0.1,0.2-0.3,0.1-0.5C9.7,42.9,9.7,42.8,9.7,42.8z"/>
			<path class="st0" d="M10.9,48.9c-0.8,0.1-1.2,0.2-2,0.3c0-0.1,0-0.1,0-0.2c0.4-0.1,0.7-0.3,0.9-0.4c0.2-0.2,0.4-0.4,0.5-0.7
				c0.1-0.3,0.1-0.5,0.1-0.8c0-0.3-0.2-0.5-0.4-0.7c-0.2-0.2-0.4-0.2-0.7-0.2c-0.2,0-0.3,0.1-0.5,0.3c-0.2,0.2-0.4,0.7-0.7,1.4
				c-0.2,0.6-0.4,1-0.5,1.2c-0.1,0.2-0.3,0.4-0.5,0.6C7,49.9,6.7,50,6.5,50c-0.4,0.1-0.8,0-1.2-0.3c-0.4-0.3-0.6-0.7-0.7-1.3
				c0-0.2,0-0.3,0-0.5c0-0.1,0-0.3,0.1-0.6c0-0.3,0.1-0.5,0.1-0.6c0-0.1,0-0.1-0.1-0.2c-0.1,0-0.1-0.1-0.3-0.1c0-0.1,0-0.1,0-0.2
				c0.8-0.1,1.2-0.2,2-0.3c0,0.1,0,0.1,0,0.2c-0.4,0.1-0.7,0.3-0.9,0.4C5.2,46.8,5.1,47,5,47.3c-0.1,0.3-0.1,0.6-0.1,0.9
				c0.1,0.4,0.2,0.7,0.4,0.8c0.2,0.2,0.5,0.3,0.7,0.2c0.1,0,0.3-0.1,0.4-0.2c0.1-0.1,0.2-0.3,0.3-0.4c0.1-0.1,0.2-0.5,0.4-1
				c0.2-0.6,0.4-0.9,0.5-1.2C7.8,46.2,8,46,8.2,45.9c0.2-0.1,0.4-0.2,0.6-0.3c0.4-0.1,0.8,0.1,1.1,0.3c0.3,0.3,0.6,0.7,0.6,1.2
				c0,0.3,0,0.6-0.1,1c0,0.2-0.1,0.3-0.1,0.4c0,0.1,0,0.1,0.1,0.2c0.1,0,0.1,0.1,0.3,0.1C10.9,48.8,10.9,48.8,10.9,48.9z"/>
			<path class="st0" d="M11.9,54.8c-0.5,0.1-0.8,0.2-1.3,0.4c0-0.1,0-0.1,0-0.2c0.2-0.1,0.4-0.2,0.5-0.2c0.1-0.1,0.2-0.3,0.3-0.4
				c0-0.2,0-0.4,0-0.6c-0.1-0.3-0.1-0.5-0.2-0.8c-1.8,0.4-2.6,0.5-4.4,0.9c-0.4,0.1-0.6,0.2-0.6,0.3C6,54.2,6,54.4,6,54.6
				c0,0.1,0,0.1,0,0.2c-0.1,0-0.1,0-0.2,0c-0.2-1-0.3-1.5-0.5-2.6c0.1,0,0.1,0,0.2,0c0,0.1,0,0.1,0,0.2c0.1,0.3,0.2,0.4,0.3,0.5
				c0.1,0,0.3,0,0.6,0c1.8-0.3,2.6-0.5,4.4-0.8c-0.1-0.3-0.1-0.4-0.1-0.7c-0.1-0.3-0.1-0.5-0.2-0.6c-0.1-0.1-0.2-0.2-0.4-0.3
				c-0.2-0.1-0.4-0.1-0.7-0.1c0-0.1,0-0.1,0-0.2c0.5-0.1,0.8-0.1,1.4-0.2C11.3,52,11.5,52.9,11.9,54.8z"/>
			<path class="st0" d="M12.8,58.1c0.2,0.7,0.1,1.5-0.4,2.1c-0.4,0.7-1,1.2-1.9,1.4c-0.9,0.2-1.7,0.1-2.4-0.3
				c-0.7-0.4-1.2-1-1.4-1.9c-0.2-0.8-0.1-1.6,0.3-2.3c0.4-0.7,1.1-1.1,2-1.3c0.9-0.2,1.7,0,2.4,0.4C12.2,56.7,12.6,57.3,12.8,58.1z
				 M12.4,58.1c-0.1-0.5-0.4-0.9-0.9-1.1c-0.6-0.3-1.3-0.3-2.2-0.1c-0.9,0.2-1.6,0.6-2,1.1c-0.3,0.4-0.4,0.9-0.3,1.4
				c0.1,0.6,0.5,1,1,1.2c0.5,0.3,1.2,0.3,2.1,0c1-0.3,1.6-0.6,2-1.1C12.5,59.1,12.6,58.6,12.4,58.1z"/>
			<path class="st0" d="M8.8,66.4c1.6-1.5,2.4-2.2,4.1-3.6c-1.5,0.4-2.3,0.6-3.8,1.1c-0.3,0.1-0.6,0.2-0.6,0.3
				c-0.1,0.1-0.1,0.3,0,0.6c0,0.1,0,0.1,0.1,0.2c-0.1,0-0.1,0-0.2,0c-0.2-0.8-0.4-1.2-0.6-2.1c0.1,0,0.1,0,0.2,0C8,62.9,8,62.9,8,63
				c0.1,0.3,0.2,0.4,0.4,0.5c0.1,0,0.3,0,0.6-0.1c1.5-0.4,2.2-0.6,3.7-1c0.2-0.1,0.4-0.1,0.5-0.2c0.1-0.1,0.1-0.2,0.1-0.3
				c0-0.1,0-0.3-0.1-0.5c0.1,0,0.1,0,0.2,0c0.2,0.6,0.3,1,0.4,1.6c-1.5,1.3-2.3,2-3.8,3.4c2,0.3,3,0.4,5,0.7c0.2,0.6,0.3,1,0.5,1.6
				c-0.1,0-0.1,0-0.2,0c0-0.1,0-0.1-0.1-0.2c-0.1-0.2-0.2-0.4-0.4-0.4c-0.1,0-0.3,0-0.6,0.1c-1.5,0.5-2.2,0.7-3.6,1.2
				c-0.3,0.1-0.5,0.2-0.6,0.3c-0.1,0.1-0.1,0.3,0,0.6c0,0.1,0,0.1,0.1,0.2c-0.1,0-0.1,0-0.1,0.1c-0.3-1-0.5-1.5-0.8-2.5
				c0.1,0,0.1,0,0.2,0c0,0.1,0,0.1,0.1,0.2c0.1,0.3,0.2,0.4,0.4,0.5c0.1,0,0.3,0,0.6-0.1c1.5-0.5,2.2-0.7,3.7-1.2
				c-2.2-0.3-3.2-0.4-5.4-0.8C8.8,66.4,8.8,66.4,8.8,66.4z"/>
		</g>
	</g>
	<g>
		<g>
			<path class="st0" d="M64.4,59.8c-0.2,0.9-0.3,1.3-0.6,2.2c0.3,0.2,0.5,0.4,0.7,0.6c0.2,0.1,0.3,0.2,0.4,0.3c0.1,0,0.2,0,0.3-0.1
				c0.1-0.1,0.2-0.2,0.3-0.5c0.1,0,0.1,0,0.1,0c-0.2,0.7-0.3,1.1-0.5,1.8c-0.1,0-0.1,0-0.1,0c0-0.2,0-0.4,0-0.5
				c-0.1-0.2-0.3-0.4-0.6-0.7c-1.6-1.3-2.3-1.9-3.9-3.1c0-0.1,0-0.1,0-0.1c2-0.3,3-0.5,5-0.8c0.4-0.1,0.7-0.2,0.8-0.3
				c0.1-0.1,0.2-0.3,0.3-0.5c0.1,0,0.1,0,0.1,0c-0.2,0.9-0.3,1.3-0.5,2.2c-0.1,0-0.1,0-0.1,0c0-0.2,0-0.4,0-0.5
				c0-0.1-0.1-0.2-0.2-0.2c-0.1,0-0.3,0-0.6,0C64.9,59.7,64.8,59.7,64.4,59.8z M64.1,59.8c-1,0.2-1.4,0.2-2.4,0.4
				c0.8,0.6,1.2,0.9,1.9,1.5C63.8,60.9,63.9,60.6,64.1,59.8z"/>
			<path class="st0" d="M67.2,55.2c0.1,0,0.1,0,0.1,0c-0.2,1-0.3,1.5-0.5,2.4c-0.1,0-0.1,0-0.1,0c0-0.1,0-0.1,0-0.2
				c0.1-0.2,0-0.4-0.1-0.6c-0.1-0.1-0.3-0.2-0.6-0.2c-1.4-0.3-2.1-0.5-3.5-0.8c-0.3-0.1-0.5-0.1-0.6-0.1c-0.1,0-0.1,0.1-0.2,0.1
				c-0.1,0.1-0.1,0.2-0.2,0.4c0,0.1,0,0.1,0,0.2c-0.1,0-0.1,0-0.1,0c0.2-0.9,0.3-1.4,0.5-2.3c0.1,0,0.1,0,0.1,0c0,0.1,0,0.1,0,0.2
				c0,0.2,0,0.4,0.1,0.5c0.1,0.1,0.3,0.2,0.6,0.2c1.4,0.3,2.1,0.4,3.5,0.7c0.3,0.1,0.5,0.1,0.6,0.1c0.1,0,0.1-0.1,0.2-0.1
				c0.1-0.1,0.1-0.2,0.2-0.4C67.2,55.4,67.2,55.3,67.2,55.2z"/>
			<path class="st0" d="M66.8,49.8c0-0.1,0-0.1,0.1-0.1c0.6,0.3,0.8,0.4,1.4,0.7c-0.3,1.8-0.5,2.7-0.8,4.4c-0.1,0-0.1,0-0.1,0
				c0-0.1,0-0.1,0-0.2c0-0.2,0-0.4-0.1-0.6c-0.1-0.1-0.3-0.1-0.6-0.2c-1.4-0.3-2.1-0.4-3.5-0.7c-0.3-0.1-0.6-0.1-0.7,0
				c-0.1,0.1-0.2,0.2-0.3,0.4c0,0.1,0,0.1,0,0.2c-0.1,0-0.1,0-0.1,0c0.2-1,0.3-1.5,0.5-2.5c0.1,0,0.1,0,0.1,0
				c-0.1,0.3-0.1,0.5,0,0.6c0,0.1,0.1,0.2,0.2,0.3c0.1,0.1,0.3,0.1,0.6,0.2c1.4,0.3,2.1,0.4,3.4,0.6c0.2,0,0.4,0,0.5,0
				c0.1,0,0.1-0.1,0.2-0.1c0-0.1,0.1-0.3,0.2-0.7c0-0.2,0-0.2,0.1-0.4c0.1-0.4,0.1-0.8,0.1-0.9c0-0.2-0.1-0.4-0.2-0.5
				C67.3,50.2,67.1,50,66.8,49.8z"/>
			<path class="st0" d="M63.1,45.8c0.1-0.7,0.4-1.3,1-1.8c0.6-0.5,1.3-0.7,2.1-0.6c0.8,0.1,1.5,0.4,2,1.1c0.5,0.6,0.7,1.3,0.6,2.1
				c-0.1,0.8-0.5,1.4-1.1,1.9c-0.6,0.5-1.4,0.6-2.2,0.5c-0.9-0.1-1.5-0.5-2-1.2C63.2,47.2,63.1,46.5,63.1,45.8z M63.4,45.9
				c-0.1,0.5,0.1,0.9,0.4,1.3c0.4,0.4,1,0.7,1.9,0.9c0.9,0.1,1.6,0,2.2-0.3c0.4-0.3,0.7-0.6,0.7-1.1c0.1-0.5-0.1-1-0.4-1.4
				c-0.4-0.4-1-0.6-1.9-0.8c-0.9-0.1-1.7,0-2.2,0.3C63.7,45,63.5,45.4,63.4,45.9z"/>
			<path class="st0" d="M69.7,37.5c0,0.6-0.1,0.9-0.1,1.6c-1.1,0.7-1.6,1.1-2.7,1.7c0,0.1,0,0.3,0,0.4c0,0,0,0.1,0,0.1
				c0,0,0,0.1,0,0.1c0.6,0.1,1,0.1,1.6,0.1c0.3,0,0.6,0,0.7-0.1c0.1-0.1,0.2-0.3,0.2-0.5c0-0.1,0-0.1,0-0.2c0.1,0,0.1,0,0.2,0
				c-0.1,1-0.1,1.5-0.2,2.5c-0.1,0-0.1,0-0.2,0c0-0.1,0-0.1,0-0.2c0-0.2,0-0.4-0.2-0.5c-0.1-0.1-0.3-0.1-0.6-0.2
				c-1.4-0.1-2.1-0.2-3.6-0.3c-0.3,0-0.6,0-0.7,0c-0.1,0.1-0.2,0.2-0.2,0.5c0,0.1,0,0.1,0,0.2c-0.1,0-0.1,0-0.1,0
				c0.1-0.8,0.1-1.2,0.2-2c0.1-0.6,0.1-1,0.2-1.3c0.1-0.3,0.3-0.5,0.5-0.7c0.2-0.2,0.5-0.3,0.8-0.2c0.3,0,0.6,0.2,0.9,0.4
				c0.2,0.2,0.4,0.6,0.5,1.1c0.7-0.4,1-0.6,1.7-1.1c0.4-0.2,0.6-0.5,0.8-0.7c0.1-0.2,0.2-0.4,0.3-0.8C69.6,37.5,69.6,37.5,69.7,37.5
				z M66.5,41.4c0-0.1,0-0.1,0-0.1c0,0,0-0.1,0-0.1c0-0.5,0-1-0.2-1.3s-0.5-0.5-0.8-0.5c-0.3,0-0.6,0.1-0.9,0.3
				c-0.2,0.2-0.4,0.5-0.4,0.8c0,0.2,0,0.4,0,0.7C65.1,41.2,65.6,41.3,66.5,41.4z"/>
			<path class="st0" d="M64.1,33.4c0.8,0,1.2,0,1.9,0.1c0,0.1,0,0.1,0,0.2c-0.4,0-0.7,0.1-0.9,0.2c-0.2,0.1-0.4,0.3-0.5,0.5
				c-0.1,0.2-0.2,0.5-0.2,0.7c0,0.3,0.1,0.5,0.2,0.7c0.2,0.2,0.4,0.3,0.6,0.3c0.2,0,0.3,0,0.5-0.2c0.2-0.2,0.5-0.6,0.9-1.2
				c0.3-0.5,0.5-0.9,0.7-1.1c0.2-0.2,0.3-0.3,0.5-0.4c0.2-0.1,0.4-0.1,0.6-0.1c0.4,0,0.8,0.2,1.1,0.5s0.4,0.8,0.4,1.3
				c0,0.2,0,0.3-0.1,0.5c0,0.1-0.1,0.3-0.2,0.5c-0.1,0.3-0.2,0.4-0.2,0.5c0,0.1,0,0.1,0.1,0.2c0,0,0.1,0.1,0.2,0.1
				c0,0.1,0,0.1,0,0.2c-0.8,0-1.1-0.1-1.9-0.1c0-0.1,0-0.1,0-0.2c0.4-0.1,0.7-0.1,0.9-0.3c0.2-0.1,0.4-0.3,0.5-0.5
				c0.1-0.3,0.2-0.5,0.2-0.8c0-0.4-0.1-0.6-0.2-0.9c-0.2-0.2-0.4-0.3-0.6-0.3c-0.1,0-0.3,0-0.4,0.1c-0.1,0.1-0.3,0.2-0.4,0.3
				c-0.1,0.1-0.3,0.4-0.6,0.9c-0.3,0.5-0.5,0.8-0.7,1c-0.2,0.2-0.4,0.3-0.5,0.4c-0.2,0.1-0.4,0.1-0.6,0.1c-0.4,0-0.7-0.2-1-0.5
				c-0.3-0.3-0.4-0.7-0.4-1.2c0-0.3,0.1-0.6,0.3-0.9c0.1-0.1,0.1-0.3,0.1-0.3c0-0.1,0-0.1-0.1-0.2c0,0-0.1-0.1-0.3-0.1
				C64.1,33.5,64.1,33.4,64.1,33.4z"/>
		</g>
	</g>
	<path class="st0" d="M4.6,34.2c0-0.3,0-0.5,0-0.7c0-0.8,0.8-1.5,1.7-1.2c1,0.3,1.8,1.7,1.7,2.6c0,0,0,0.1-0.1,0.2
		c0-0.2-0.1-0.4-0.1-0.5c-0.1-0.7-0.4-1.2-1-1.6c-0.5-0.3-1-0.3-1.4,0c-0.5,0.4-0.6,0.6-0.5,1.3c0.6,0.2,1.2,0.4,1.9,0.7
		c1.4,0.5,2.6,1.4,3.3,2.8c0.1,0.3,0.2,0.6,0,0.8c-0.2,0.2-0.5,0.3-0.8,0.2c-1-0.2-1.8-0.7-2.5-1.4C6.2,36.6,5.6,36,5,35.3
		c-0.9-0.2-1.9-0.4-2.9,0c-0.3,0.3-0.3,0.7,0,1c0.6,0.9,1.5,1.3,2.6,1.4c0.2,0,0.4,0,0.8-0.1c-0.1-0.3-0.1-0.5-0.2-0.6
		c-0.3-0.4-0.7-0.6-1.1-0.7c-0.3-0.1-0.6-0.2-0.8-0.2c0,0,0-0.1,0-0.1c0.3,0.1,0.7,0.1,1,0.2c0.4,0.2,0.7,0.4,1,0.7
		c0.5,0.5,0.2,1-0.4,1.2c-0.6,0.2-1.2,0-1.8-0.3c-0.6-0.3-1.1-0.8-1.3-1.5c-0.4-0.9,0.1-1.7,1-1.9c0.4-0.1,0.9-0.1,1.3-0.1
		C4.3,34.2,4.5,34.2,4.6,34.2z M10,38.2c0-0.1,0-0.3,0-0.4c-0.2-0.3-0.3-0.6-0.6-0.9c-0.8-0.7-1.8-1-2.8-1.3c-0.3-0.1-0.7-0.1-1-0.2
		c0.1,0.3,0.3,0.5,0.4,0.7c0.7,0.9,1.6,1.6,2.6,2.1C9,38.4,9.5,38.7,10,38.2z"/>
	<g>
		<path class="st0" d="M62.4,70c0.1,0.2,0.1,0.3,0.2,0.5c0.5-0.5,0.6-1.6,0.2-2.2c-0.8-1-1.6-1.9-2.4-2.8c-0.8-1-1.5-2.2-1.4-3.6
			c0-0.1,0-0.2,0.1-0.4c0.1,0.1,0.1,0.2,0.1,0.2c0.1,1,0.7,1.7,1.3,2.3c0.7,0.8,1.5,1.6,2.1,2.5c0.8,1.2,1,2.6,0.3,4
			c-0.2,0.4-0.6,0.5-1,0.3c-0.3-0.1-0.4-0.4-0.3-0.6c0.1-0.3,0.3-0.4,0.6-0.3C62.2,69.9,62.3,70,62.4,70z"/>
		<path class="st0" d="M58.3,66.1c0.5-0.3,0.9-0.2,1.3-0.1c0.8,0.2,1.3,1.1,1.2,1.9c-0.1,0.8-0.8,1.1-1.5,0.8
			c-1-0.4-1.4-1.3-1.7-2.2c-0.3-1-0.2-2.1,0.1-3.1c0.2-0.9,0.4-1.8,0.6-2.7c0-0.3-0.1-0.6-0.1-1c0.5,0.4,0.8,0.8,0.7,1.3
			c0,0.6-0.2,1.3-0.3,1.9c-0.1,0.4-0.2,0.8-0.3,1.2c-0.1,0.6-0.2,1.3-0.3,2c-0.1,0.9,0.6,2.1,1.4,2.5c0.3,0.1,0.6,0.1,0.9-0.1
			c0.3-0.2,0.3-0.4,0.3-0.7c-0.1-0.8-0.9-1.5-1.7-1.5C58.6,66.2,58.5,66.1,58.3,66.1z"/>
	</g>
	<g>
		<path class="st0" d="M22.1,141.3l0,1.9h-0.1c-0.1-0.4-0.1-0.7-0.3-0.9c-0.1-0.2-0.3-0.4-0.5-0.5c-0.2-0.1-0.5-0.2-0.7-0.2
			c-0.3,0-0.5,0.1-0.7,0.3c-0.2,0.2-0.3,0.4-0.3,0.6c0,0.2,0.1,0.3,0.2,0.5c0.2,0.2,0.6,0.5,1.2,0.8c0.5,0.3,0.9,0.5,1,0.6
			c0.2,0.1,0.3,0.3,0.4,0.5c0.1,0.2,0.2,0.4,0.2,0.6c0,0.4-0.2,0.8-0.5,1.1c-0.3,0.3-0.7,0.5-1.2,0.5c-0.2,0-0.3,0-0.4,0
			c-0.1,0-0.3-0.1-0.5-0.1c-0.3-0.1-0.4-0.1-0.5-0.1c-0.1,0-0.1,0-0.2,0.1c0,0-0.1,0.1-0.1,0.3h-0.2l0-1.9H19
			c0.1,0.4,0.2,0.7,0.3,0.9c0.1,0.2,0.3,0.4,0.5,0.5c0.2,0.1,0.5,0.2,0.8,0.2c0.3,0,0.6-0.1,0.8-0.3c0.2-0.2,0.3-0.4,0.3-0.6
			c0-0.1,0-0.3-0.1-0.4c-0.1-0.1-0.2-0.3-0.3-0.4c-0.1-0.1-0.4-0.3-0.9-0.5s-0.8-0.5-1-0.6c-0.2-0.2-0.3-0.3-0.5-0.5
			c-0.1-0.2-0.2-0.4-0.2-0.6c0-0.4,0.1-0.7,0.4-1c0.3-0.3,0.7-0.4,1.1-0.4c0.3,0,0.6,0.1,0.9,0.2c0.1,0.1,0.3,0.1,0.3,0.1
			c0.1,0,0.1,0,0.2-0.1c0,0,0.1-0.1,0.1-0.3L22.1,141.3z"/>
		<path class="st0" d="M24.4,143.1l0,3c0,0.2,0,0.4,0.1,0.5c0,0.1,0.1,0.1,0.2,0.2c0.1,0,0.2,0.1,0.4,0.1v0.1l-1.8,0v-0.1
			c0.2,0,0.3,0,0.4-0.1c0.1,0,0.1-0.1,0.1-0.2s0.1-0.2,0.1-0.5l0-1.4c0-0.4,0-0.7,0-0.8c0-0.1,0-0.1-0.1-0.2c0,0-0.1-0.1-0.2,0
			c-0.1,0-0.2,0-0.3,0.1l-0.1-0.1l1.1-0.5L24.4,143.1z M24.1,141.1c0.1,0,0.2,0,0.3,0.1c0.1,0.1,0.1,0.2,0.1,0.3
			c0,0.1,0,0.2-0.1,0.3c-0.1,0.1-0.2,0.1-0.3,0.1s-0.2,0-0.3-0.1c-0.1-0.1-0.1-0.2-0.1-0.3c0-0.1,0-0.2,0.1-0.3
			C23.9,141.2,24,141.1,24.1,141.1z"/>
		<path class="st0" d="M26.5,143.8c0.4-0.5,0.8-0.8,1.2-0.8c0.2,0,0.4,0,0.5,0.2c0.1,0.1,0.3,0.3,0.3,0.5c0.1,0.2,0.1,0.4,0.1,0.7
			l0,1.6c0,0.2,0,0.4,0.1,0.5c0,0.1,0.1,0.1,0.1,0.2s0.2,0.1,0.4,0.1v0.1l-1.8,0v-0.1h0.1c0.2,0,0.3,0,0.4-0.1
			c0.1-0.1,0.1-0.1,0.1-0.2c0,0,0-0.2,0-0.4l0-1.5c0-0.3,0-0.6-0.1-0.7c-0.1-0.2-0.2-0.2-0.4-0.2c-0.3,0-0.6,0.2-1,0.5l0,2
			c0,0.3,0,0.4,0,0.5c0,0.1,0.1,0.1,0.2,0.2c0.1,0,0.2,0.1,0.4,0.1v0.1l-1.8,0v-0.1h0.1c0.2,0,0.3,0,0.4-0.1
			c0.1-0.1,0.1-0.3,0.1-0.5l0-1.4c0-0.4,0-0.7,0-0.8c0-0.1-0.1-0.2-0.1-0.2c0,0-0.1-0.1-0.2-0.1c-0.1,0-0.2,0-0.3,0.1l-0.1-0.1
			l1.1-0.5h0.2L26.5,143.8z"/>
		<path class="st0" d="M32.7,145.4c-0.1,0.5-0.3,0.9-0.6,1.1c-0.3,0.3-0.6,0.4-1,0.4c-0.4,0-0.8-0.2-1.1-0.5
			c-0.3-0.4-0.5-0.8-0.5-1.4c0-0.6,0.2-1.1,0.5-1.4c0.3-0.4,0.8-0.5,1.2-0.5c0.4,0,0.7,0.1,0.9,0.3c0.2,0.2,0.4,0.4,0.4,0.6
			c0,0.1,0,0.2-0.1,0.2c-0.1,0.1-0.2,0.1-0.3,0.1c-0.2,0-0.3-0.1-0.4-0.2c0-0.1-0.1-0.2-0.1-0.3c0-0.2-0.1-0.3-0.2-0.4
			c-0.1-0.1-0.2-0.1-0.4-0.1c-0.3,0-0.5,0.1-0.6,0.3c-0.2,0.3-0.3,0.6-0.3,1c0,0.4,0.1,0.8,0.3,1.2c0.2,0.3,0.5,0.5,0.9,0.5
			c0.3,0,0.5-0.1,0.7-0.3c0.1-0.1,0.3-0.3,0.4-0.7L32.7,145.4z"/>
		<path class="st0" d="M33.9,144.5c0,0.5,0.1,1,0.4,1.3c0.3,0.3,0.6,0.5,0.9,0.5c0.2,0,0.5-0.1,0.6-0.2c0.2-0.1,0.3-0.4,0.4-0.7
			l0.1,0.1c-0.1,0.4-0.2,0.7-0.5,1c-0.3,0.3-0.6,0.5-1,0.5c-0.4,0-0.8-0.2-1.1-0.5c-0.3-0.3-0.5-0.8-0.5-1.4c0-0.6,0.2-1.1,0.5-1.5
			c0.3-0.4,0.7-0.5,1.2-0.5c0.4,0,0.8,0.1,1,0.4c0.3,0.3,0.4,0.6,0.4,1.1L33.9,144.5z M33.9,144.3l1.7,0c0-0.2,0-0.4-0.1-0.5
			c-0.1-0.2-0.2-0.3-0.3-0.4c-0.1-0.1-0.3-0.1-0.4-0.1c-0.2,0-0.4,0.1-0.6,0.3C34,143.7,33.9,144,33.9,144.3z"/>
		<path class="st0" d="M39.7,141.9l1.3-0.7h0.1l0,4.6c0,0.3,0,0.5,0,0.6c0,0.1,0.1,0.1,0.2,0.2c0.1,0,0.2,0.1,0.5,0.1v0.1l-2.1,0
			l0-0.1c0.3,0,0.4,0,0.5-0.1c0.1,0,0.1-0.1,0.2-0.2c0-0.1,0-0.3,0-0.6l0-3c0-0.4,0-0.7,0-0.8c0-0.1-0.1-0.1-0.1-0.2
			c0,0-0.1-0.1-0.2-0.1c-0.1,0-0.2,0-0.4,0.1L39.7,141.9z"/>
		<path class="st0" d="M43.3,146.9v-0.2c0.3,0,0.7-0.1,1-0.2c0.3-0.2,0.6-0.4,0.9-0.8c0.3-0.4,0.5-0.8,0.6-1.3
			c-0.4,0.3-0.8,0.4-1.1,0.4c-0.4,0-0.7-0.1-1-0.4c-0.3-0.3-0.4-0.7-0.4-1.2c0-0.5,0.1-0.9,0.4-1.3c0.3-0.5,0.8-0.7,1.3-0.7
			c0.4,0,0.8,0.2,1.2,0.6c0.4,0.5,0.6,1,0.6,1.7c0,0.6-0.1,1.2-0.4,1.7c-0.3,0.5-0.7,1-1.2,1.3c-0.4,0.3-0.9,0.4-1.4,0.4L43.3,146.9
			L43.3,146.9z M45.8,144.1c0-0.4,0.1-0.6,0.1-0.8c0-0.3,0-0.5-0.1-0.8c-0.1-0.3-0.2-0.5-0.4-0.7c-0.2-0.2-0.3-0.2-0.6-0.2
			c-0.2,0-0.5,0.1-0.6,0.3c-0.2,0.2-0.3,0.5-0.3,1c0,0.6,0.1,1,0.4,1.3c0.2,0.2,0.4,0.3,0.6,0.3c0.1,0,0.3,0,0.4-0.1
			C45.5,144.3,45.7,144.2,45.8,144.1z"/>
		<path class="st0" d="M48.6,144c-0.4-0.4-0.7-0.6-0.8-0.9c-0.1-0.2-0.2-0.4-0.2-0.7c0-0.4,0.1-0.7,0.4-0.9c0.3-0.3,0.6-0.4,1.1-0.4
			c0.4,0,0.8,0.1,1.1,0.4c0.3,0.2,0.4,0.5,0.4,0.8c0,0.2-0.1,0.4-0.2,0.6c-0.1,0.2-0.4,0.5-0.9,0.8c0.5,0.4,0.8,0.7,0.9,0.9
			c0.2,0.3,0.3,0.6,0.3,0.9c0,0.4-0.1,0.7-0.4,1c-0.3,0.3-0.7,0.4-1.2,0.4c-0.5,0-0.9-0.2-1.2-0.5c-0.2-0.3-0.3-0.5-0.3-0.9
			c0-0.2,0.1-0.5,0.2-0.7C47.9,144.6,48.2,144.3,48.6,144z M48.8,144.2c-0.2,0.2-0.4,0.4-0.5,0.6c-0.1,0.2-0.2,0.5-0.2,0.7
			c0,0.3,0.1,0.6,0.3,0.8c0.2,0.2,0.4,0.3,0.7,0.3c0.3,0,0.5-0.1,0.7-0.2c0.2-0.2,0.3-0.4,0.3-0.6c0-0.2-0.1-0.4-0.2-0.5
			C49.8,145,49.4,144.7,48.8,144.2z M49.2,143.6c0.3-0.3,0.5-0.5,0.6-0.7c0.1-0.2,0.1-0.4,0.1-0.6c0-0.3-0.1-0.5-0.2-0.7
			c-0.2-0.2-0.4-0.2-0.7-0.2c-0.3,0-0.5,0.1-0.7,0.2c-0.2,0.2-0.3,0.3-0.3,0.6c0,0.1,0,0.3,0.1,0.4c0.1,0.1,0.2,0.3,0.3,0.4
			L49.2,143.6z"/>
		<path class="st0" d="M52.7,144c-0.4-0.4-0.7-0.6-0.8-0.9c-0.1-0.2-0.2-0.4-0.2-0.7c0-0.4,0.1-0.7,0.4-0.9s0.6-0.4,1.1-0.4
			c0.4,0,0.8,0.1,1.1,0.4c0.3,0.2,0.4,0.5,0.4,0.8c0,0.2-0.1,0.4-0.2,0.6c-0.1,0.2-0.4,0.5-0.9,0.8c0.5,0.4,0.8,0.7,0.9,0.9
			c0.2,0.3,0.3,0.6,0.3,0.9c0,0.4-0.1,0.7-0.4,1c-0.3,0.3-0.7,0.4-1.2,0.4c-0.5,0-0.9-0.2-1.2-0.5c-0.2-0.3-0.3-0.5-0.4-0.9
			c0-0.2,0.1-0.5,0.2-0.7C52.1,144.6,52.3,144.3,52.7,144z M52.9,144.2c-0.2,0.2-0.4,0.4-0.5,0.6c-0.1,0.2-0.2,0.5-0.2,0.7
			c0,0.3,0.1,0.6,0.3,0.8c0.2,0.2,0.4,0.3,0.7,0.3c0.3,0,0.5-0.1,0.7-0.2c0.2-0.2,0.3-0.4,0.3-0.6c0-0.2-0.1-0.4-0.2-0.5
			C53.9,145,53.5,144.6,52.9,144.2z M53.4,143.6c0.3-0.3,0.5-0.5,0.6-0.7c0.1-0.2,0.1-0.4,0.1-0.6c0-0.3-0.1-0.5-0.2-0.7
			s-0.4-0.2-0.7-0.2c-0.3,0-0.5,0.1-0.7,0.2c-0.2,0.2-0.3,0.3-0.3,0.6c0,0.1,0,0.3,0.1,0.4c0.1,0.1,0.2,0.3,0.3,0.4L53.4,143.6z"/>
	</g>
</g>
</svg>
