<?xml version="1.0" encoding="utf-8"?>
<!-- Generator: Adobe Illustrator 27.0.1, SVG Export Plug-In . SVG Version: 6.00 Build 0)  -->
<svg version="1.1" id="Layer_1" xmlns="http://www.w3.org/2000/svg" xmlns:xlink="http://www.w3.org/1999/xlink" x="0px" y="0px"
	 viewBox="0 0 145 300" style="enable-background:new 0 0 145 300;" xml:space="preserve">
<style type="text/css">
	.st0{fill:#FFF780;}
</style>
<g>
	<g>
		<g>
			<path class="st0" d="M117,167.2l-0.5-1.2c-20.9-47.8-43.9-55.9-44.1-56l-2-0.7l2-0.6c59-17,63.1-80.5,63.1-81.1l0.1-1.8l1.1,1.5
				c8.2,11.5,14.7,81-19,138.8L117,167.2z M74.5,109.5c5.7,2.7,24.7,14.4,42.7,54.8c32.7-57,25.7-120.6,19.4-134.5
				C135.3,41,126.6,93.4,74.5,109.5z"/>
			<g>
				<path class="st0" d="M28.3,167.3l-0.6-1.1C-6.3,108.5,0,39,8.3,27.4l1.1-1.5l0.1,1.8c0,0.6,4.3,64.1,63.3,81l2,0.6l-2,0.7
					c-0.2,0.1-23.2,8.3-44,56.1L28.3,167.3z M8.3,30C2.1,43.8-4.7,107.5,28.1,164.4c17.8-40.5,36.8-52.2,42.5-54.9
					C18.4,93.5,9.6,41.1,8.3,30z"/>
				<path class="st0" d="M72.5,110l-0.2-0.1C12.4,92.9,8.2,28.5,8.1,27.9l0-0.2l0.1-0.2C8.5,27.2,27.2,3.7,72.4,3.6h0.2
					c45.1,0,63.9,23.4,64,23.6l0.1,0.2l0,0.2c0,0.6-4.1,65.1-64,82.3L72.5,110z M9.4,28c0.3,4.4,6.1,64.3,63.1,80.7
					c57-16.5,62.6-76.5,62.9-80.8c-1.9-2.2-20.6-23-62.9-23h-0.2C30,5,11.3,25.8,9.4,28z"/>
			</g>
			<path class="st0" d="M72.6,163.7l-28.8-28.1l0.3-0.4c15.1-21.8,27.6-26.2,28.2-26.4l0.2-0.1l0.2,0.1c0.5,0.2,13.1,4.5,28.2,26.3
				l0.3,0.4L72.6,163.7z M45.5,135.5l27.1,26.4l27-26.5c-13.7-19.5-25.4-24.7-27.1-25.3C70.9,110.7,59.2,115.9,45.5,135.5z"/>
			<path class="st0" d="M72.7,268.8l-29.2-28.4L59.4,149l13.2,12.9L85.8,149l16.2,91.4L72.7,268.8z M44.9,240l27.9,27l27.8-27.1
				l-15.6-88.3l-12.3,12.1l-12.3-12L44.9,240z"/>
		</g>
		<g>
			<path class="st0" d="M110.1,236.3h-2.6l0-0.9l6.3,0v0.9l-2.6,0l0,7.5l-1.1,0L110.1,236.3z"/>
			<path class="st0" d="M121.9,240.1c-0.1-1.2-0.1-2.6-0.1-3.7h0c-0.3,1-0.6,2-1.1,3.2l-1.5,4.1l-0.8,0l-1.4-4
				c-0.4-1.2-0.7-2.3-1-3.3h0c0,1.1-0.1,2.5-0.2,3.7l-0.2,3.6h-1l0.6-8.5h1.4l1.4,4.1c0.4,1,0.6,2,0.9,2.8h0
				c0.2-0.9,0.5-1.8,0.9-2.9l1.5-4.1h1.4l0.5,8.5h-1.1L121.9,240.1z"/>
		</g>
	</g>
	<path class="st0" d="M13.8,50.9l-0.5-1.2c0.3-0.1,27.9-12.6,59.2-12.7c0,0,0.1,0,0.1,0c31.3,0,58.9,12.4,59.1,12.5l-0.5,1.2
		c-0.3-0.1-27.6-12.4-58.6-12.4c0,0-0.1,0-0.1,0C41.4,38.4,14,50.8,13.8,50.9z"/>
	<path class="st0" d="M61.3,20.4c-2,0.6-3.6,0.2-5.3-0.5c-3.8-1.7-6.9,1.1-8.1,3.7c-0.4,0.8-0.4,1.7,0.3,2.5
		c0.6,0.7,1.4,0.7,2.3,0.5c2.7-0.7,4-2.5,4.7-5.1c0,0.3,0.2,0.7,0.1,1c-0.2,2.7-3.5,5.4-6.2,4.6c-1.5-0.4-2.2-1.8-1.8-3.2
		c0.5-1.6,1.4-2.9,2.6-3.9c0.7-0.6,1.4-1,2.2-1.5c1.9-1.1,3.9-0.9,5.8-0.2c0.7,0.2,1.4,0.6,2.2,0.8c1.4,0.4,2.7,0.4,3.8-0.5
		c0.1-0.1,0.3-0.2,0.5-0.3c0.1,0.1,0.1,0.1,0.2,0.2c-1,1-2,1.8-3,2.9c-1,1.1-1.8,2.2-2.7,3.4c-0.9,1.1-1.6,2.4-2.5,3.5
		c-0.9,1.1-1.8,2.2-2.7,3.3c1.6-0.2,3.1-0.6,4.3-1.7c1.2-1.1,2-2.4,1.8-4.1c0.6,1.1,0.4,2.2,0,3.2c-0.5,1.2-1.5,2.1-2.7,2.5
		c-0.9,0.3-1.9,0.6-2.9,0.7c-1,0.2-1.7,0.6-2.3,1.3c-2,2.1-4.3,4-7,5.2c-0.7,0.3-1.6,0.4-2.4,0.4c-1,0-1.5-1-1.2-2
		c0.3-1.2,1.1-2,2.2-2.4c1.6-0.7,3.3-1.5,5-1.9c1.5-0.4,2.5-1.2,3.4-2.4c2.4-3.3,5.3-6.2,8.4-8.8C60.7,21.1,60.9,20.8,61.3,20.4z
		 M49.9,32.8c-0.1-0.1-0.1-0.2-0.2-0.3c-1.7,0.6-3.4,1.1-5,1.8c-0.9,0.4-1.7,0.9-2.3,1.5c-1,0.9-0.6,2.2,0.6,2.6
		C46.2,37.7,47.7,34.9,49.9,32.8z"/>
	<g>
		<g>
			<path class="st0" d="M69.9,27.2c-2.1,0-3.2,0-5.3,0c-0.4,0.8-0.5,1.3-0.9,2.1c-0.2,0.5-0.3,0.9-0.3,1.2c0,0.2,0.1,0.4,0.3,0.5
				c0.2,0.1,0.6,0.2,1.3,0.3c0,0.1,0,0.2,0,0.4c-1.7,0-2.5,0.1-4.2,0.1c0-0.1,0-0.2,0-0.4c0.6-0.1,0.9-0.3,1.1-0.4
				c0.3-0.3,0.7-1,1.1-2c1.8-4.5,2.7-6.7,4.7-11.1c0.1,0,0.2,0,0.4,0c2,4.4,3,6.7,4.8,11.2c0.4,0.9,0.7,1.5,1,1.8
				c0.3,0.3,0.7,0.4,1.3,0.5c0,0.1,0,0.2,0,0.4c-2.1-0.1-3.2-0.1-5.3-0.1c0-0.1,0-0.2,0-0.4c0.5,0,0.9-0.1,1.1-0.3
				c0.2-0.2,0.3-0.3,0.3-0.5c0-0.3-0.1-0.8-0.4-1.4C70.4,28.4,70.2,28,69.9,27.2z M69.6,26.5c-0.9-2.2-1.4-3.2-2.4-5.4
				c-1,2.2-1.4,3.3-2.4,5.4C66.7,26.5,67.7,26.5,69.6,26.5z"/>
			<path class="st0" d="M88.8,19c-0.1,1.8-0.1,2.7-0.2,4.6c-0.1,0-0.2,0-0.3,0c-0.3-1.4-0.8-2.4-1.6-3.1c-0.8-0.7-1.7-1.1-2.8-1.1
				c-1-0.1-1.8,0.1-2.6,0.5c-0.8,0.4-1.4,1.1-1.9,2c-0.5,1-0.8,2.2-0.8,3.6c-0.1,1.2,0.1,2.3,0.4,3.2c0.3,0.9,0.9,1.6,1.7,2.1
				c0.8,0.5,1.6,0.8,2.6,0.9c0.9,0.1,1.7,0,2.4-0.4c0.7-0.3,1.5-1,2.4-2c0.1,0.1,0.2,0.1,0.3,0.2c-0.8,1.1-1.7,1.9-2.6,2.4
				c-1,0.5-2,0.6-3.3,0.6c-2.2-0.2-3.9-1.1-5-2.8c-0.9-1.3-1.3-2.7-1.2-4.4c0.1-1.3,0.4-2.5,1.1-3.6c0.7-1.1,1.6-1.9,2.8-2.5
				c1.2-0.5,2.4-0.8,3.8-0.7c1,0.1,2.1,0.4,3,1c0.3,0.2,0.5,0.3,0.6,0.3c0.2,0,0.4,0,0.5-0.1c0.2-0.1,0.4-0.4,0.5-0.7
				C88.6,19,88.7,19,88.8,19z"/>
			<path class="st0" d="M95.8,26.2c1.8,2.2,2.6,3.4,4.3,5.6c0.7,0.9,1.3,1.6,1.8,2c0.5,0.4,1.1,0.7,1.6,0.8c0,0.1,0,0.2-0.1,0.4
				c-2.5-0.5-3.8-0.7-6.3-1.1c0-0.1,0-0.2,0.1-0.4c0.4,0.1,0.7,0,0.9-0.1c0.2-0.1,0.3-0.2,0.3-0.4c0-0.2,0-0.3,0-0.4
				c0-0.1-0.2-0.4-0.5-0.8c-1.6-2.1-2.4-3.1-4-5.2c-0.2,1.7-0.3,2.6-0.6,4.3c-0.1,0.7-0.1,1.1-0.1,1.3c0,0.2,0.2,0.3,0.4,0.5
				c0.3,0.2,0.6,0.3,0.9,0.4c0.2,0,0.3,0,0.5,0.1c0,0.1,0,0.2,0,0.4c-2.3-0.3-3.4-0.5-5.7-0.7c0-0.1,0-0.2,0-0.4
				c0.2,0,0.3,0,0.5,0.1c0.6,0.1,1,0,1.3-0.3c0.2-0.2,0.3-0.7,0.4-1.5c0.4-3.4,0.6-5.1,1.1-8.6c0.1-0.7,0.1-1.1,0-1.4
				c0-0.2-0.2-0.3-0.4-0.5C91.7,20.1,91.4,20,91,20c-0.2,0-0.3,0-0.5-0.1c0-0.1,0-0.2,0-0.4c2.4,0.3,3.7,0.4,6.1,0.8
				c0,0.1,0,0.2-0.1,0.4c-0.2,0-0.3,0-0.5-0.1c-0.3,0-0.7,0-1,0.1c-0.2,0.1-0.4,0.2-0.5,0.4c-0.1,0.2-0.2,0.6-0.3,1.3
				c-0.2,1.6-0.3,2.4-0.5,4.1c0.2-0.1,0.7-0.5,1.6-1c2.3-1.5,3.7-2.4,4.3-3c0.2-0.2,0.4-0.4,0.4-0.6c0-0.1,0-0.3-0.2-0.4
				c-0.1-0.1-0.4-0.2-0.7-0.3c-0.1,0-0.2,0-0.3-0.1c0-0.1,0-0.2,0.1-0.4c2.1,0.3,3.1,0.5,5.2,0.9c0,0.1,0,0.2-0.1,0.4
				c-0.3-0.1-0.6-0.1-0.9,0c-0.3,0-0.6,0.1-1,0.2c-0.4,0.1-0.9,0.4-1.5,0.8c-0.2,0.1-1,0.6-2.4,1.7C97.3,25.2,96.8,25.5,95.8,26.2z"
				/>
		</g>
	</g>
	<g>
		<g>
			<path class="st0" d="M18.6,84.5c0.1,0,0.2,0,0.3,0c0.2,1.7,0.3,2.5,0.5,4.2c-0.1,0-0.2,0-0.3,0c0-0.2,0-0.3-0.1-0.4
				c-0.1-0.5-0.3-0.8-0.7-1c-0.2-0.1-0.6-0.1-1.3,0c-1.9,0.2-2.9,0.4-4.8,0.6c-1.2,0.1-2.1,0.1-2.8,0c-0.7-0.2-1.3-0.6-1.9-1.2
				c-0.6-0.7-0.9-1.6-1-2.9c-0.1-1.4,0-2.4,0.3-3.2c0.4-0.7,0.9-1.3,1.7-1.7c0.5-0.2,1.5-0.4,2.9-0.6c1.9-0.2,2.8-0.2,4.6-0.4
				c0.7-0.1,1.2-0.2,1.4-0.4c0.2-0.2,0.3-0.6,0.3-1c0-0.2,0-0.3,0-0.5c0.1,0,0.2,0,0.3,0c0.2,2.1,0.3,3.1,0.5,5.1
				c-0.1,0-0.2,0-0.3,0c0-0.2,0-0.3,0-0.5c0-0.5-0.2-0.8-0.6-1c-0.2-0.1-0.7-0.2-1.3-0.1c-2.1,0.2-3.1,0.3-5.2,0.5
				c-0.5,0-1,0.1-1.6,0.3c-0.6,0.1-1,0.4-1.3,0.6c-0.3,0.3-0.6,0.6-0.7,1.1c-0.2,0.5-0.2,1-0.1,1.6c0.1,0.8,0.3,1.5,0.8,2.1
				s0.9,1,1.5,1.1c0.6,0.2,1.5,0.2,2.7,0c1.9-0.2,2.9-0.4,4.8-0.6c0.7-0.1,1.2-0.2,1.4-0.4c0.2-0.3,0.3-0.6,0.3-1.1
				C18.6,84.7,18.6,84.6,18.6,84.5z"/>
			<path class="st0" d="M20.9,96.9c-1.6,0.3-2.4,0.4-4.1,0.7c0-0.1,0-0.2,0-0.3c0.8-0.2,1.4-0.5,1.8-0.9c0.4-0.4,0.7-0.8,0.9-1.3
				c0.2-0.5,0.2-1.1,0.2-1.6c-0.1-0.6-0.4-1.1-0.8-1.4c-0.4-0.3-0.9-0.5-1.3-0.4c-0.4,0.1-0.7,0.2-0.9,0.5c-0.4,0.4-0.8,1.4-1.3,2.9
				c-0.4,1.2-0.7,2.1-1,2.5c-0.2,0.5-0.6,0.8-1,1.1c-0.4,0.3-0.8,0.5-1.3,0.6c-0.9,0.2-1.7-0.1-2.5-0.7c-0.8-0.6-1.2-1.5-1.4-2.6
				c-0.1-0.4-0.1-0.7-0.1-1c0-0.2,0-0.6,0.1-1.2c0.1-0.6,0.1-1,0.1-1.2c0-0.2-0.1-0.3-0.2-0.3c-0.1-0.1-0.3-0.1-0.6-0.1
				c0-0.1,0-0.2,0-0.3c1.6-0.2,2.4-0.3,4-0.6c0,0.1,0,0.2,0,0.3c-0.8,0.3-1.4,0.6-1.8,0.9c-0.4,0.3-0.7,0.8-0.9,1.4
				c-0.2,0.6-0.2,1.2-0.1,1.9c0.1,0.8,0.4,1.3,0.9,1.7s0.9,0.5,1.5,0.4c0.3,0,0.6-0.2,0.8-0.4c0.3-0.2,0.5-0.5,0.7-0.9
				c0.1-0.3,0.4-1,0.8-2.1c0.4-1.1,0.7-1.9,1-2.4c0.3-0.5,0.6-0.9,1-1.2c0.4-0.3,0.8-0.5,1.3-0.5c0.8-0.1,1.6,0.1,2.3,0.7
				c0.7,0.6,1.1,1.3,1.3,2.3c0.1,0.6,0,1.3-0.1,2.1c-0.1,0.4-0.1,0.6-0.1,0.7c0,0.2,0.1,0.3,0.2,0.3c0.1,0.1,0.3,0.1,0.6,0.1
				C20.9,96.8,20.9,96.8,20.9,96.9z"/>
			<path class="st0" d="M23,109c-1.1,0.3-1.6,0.4-2.7,0.7c0-0.1,0-0.2-0.1-0.3c0.5-0.2,0.8-0.3,1-0.5c0.3-0.3,0.5-0.5,0.6-0.9
				c0.1-0.3,0.1-0.7,0-1.2c-0.1-0.7-0.2-1-0.3-1.7c-3.6,0.7-5.4,1.1-8.9,1.8c-0.7,0.1-1.1,0.3-1.3,0.5c-0.2,0.3-0.2,0.7-0.1,1.1
				c0,0.2,0.1,0.3,0.1,0.4c-0.1,0-0.2,0-0.3,0.1c-0.4-2.1-0.6-3.1-1-5.2c0.1,0,0.2,0,0.3-0.1c0,0.2,0.1,0.3,0.1,0.4
				c0.1,0.5,0.3,0.9,0.7,1c0.2,0.1,0.6,0.1,1.3,0c3.6-0.7,5.4-1,8.9-1.7c-0.1-0.6-0.2-0.8-0.3-1.4c-0.1-0.6-0.2-0.9-0.3-1.1
				c-0.2-0.3-0.4-0.5-0.8-0.7c-0.4-0.2-0.8-0.2-1.3-0.2c0-0.1,0-0.2-0.1-0.3c1.1-0.1,1.7-0.2,2.8-0.3C21.8,103.3,22.1,105.2,23,109z
				"/>
			<path class="st0" d="M24.8,115.6c0.4,1.5,0.1,2.9-0.7,4.3c-0.8,1.4-2.1,2.3-3.8,2.8c-1.7,0.5-3.4,0.3-4.8-0.6
				c-1.5-0.9-2.4-2.1-2.8-3.8c-0.4-1.7-0.2-3.2,0.7-4.6c0.9-1.4,2.2-2.3,4-2.7c1.8-0.4,3.5-0.1,4.9,0.9
				C23.6,112.9,24.4,114.1,24.8,115.6z M24.1,115.6c-0.3-1-0.8-1.8-1.7-2.2c-1.1-0.6-2.6-0.6-4.5-0.2c-1.9,0.4-3.3,1.2-4.1,2.3
				c-0.6,0.8-0.8,1.8-0.5,2.8c0.3,1.1,0.9,2,2,2.5c1,0.5,2.5,0.5,4.3,0.1c2-0.5,3.3-1.3,4.1-2.3C24.2,117.7,24.4,116.7,24.1,115.6z"
				/>
			<path class="st0" d="M16.7,132.4c3.3-3,4.9-4.5,8.3-7.3c-3.1,0.9-4.6,1.3-7.7,2.1c-0.7,0.2-1.1,0.4-1.2,0.6
				c-0.2,0.3-0.2,0.7-0.1,1.1c0,0.2,0.1,0.3,0.1,0.4c-0.1,0-0.2,0.1-0.3,0.1c-0.5-1.7-0.7-2.5-1.2-4.2c0.1,0,0.2,0,0.3-0.1
				c0,0.2,0.1,0.3,0.1,0.4c0.1,0.5,0.4,0.8,0.7,1c0.2,0.1,0.6,0,1.3-0.1c3-0.8,4.5-1.2,7.5-2.1c0.5-0.1,0.9-0.3,1.1-0.5
				c0.1-0.1,0.2-0.3,0.3-0.6c0.1-0.2,0-0.6-0.1-1.1c0.1,0,0.2-0.1,0.3-0.1c0.4,1.3,0.5,2,0.9,3.3c-3.1,2.7-4.6,4.1-7.7,6.9
				c4.1,0.6,6.1,0.9,10.2,1.4c0.4,1.3,0.6,1.9,1.1,3.2c-0.1,0-0.2,0.1-0.3,0.1c0-0.2-0.1-0.2-0.1-0.4c-0.2-0.5-0.4-0.8-0.8-0.9
				c-0.2-0.1-0.6,0-1.3,0.2c-3,1-4.4,1.5-7.4,2.4c-0.7,0.2-1.1,0.5-1.2,0.7c-0.2,0.3-0.2,0.7,0,1.1c0.1,0.2,0.1,0.2,0.1,0.4
				c-0.1,0-0.2,0.1-0.3,0.1c-0.7-2-1-3-1.6-5.1c0.1,0,0.2-0.1,0.3-0.1c0.1,0.2,0.1,0.3,0.1,0.4c0.2,0.5,0.4,0.8,0.8,0.9
				c0.2,0.1,0.6,0,1.3-0.2c3-1,4.5-1.5,7.6-2.4c-4.4-0.5-6.6-0.9-11-1.5C16.8,132.6,16.8,132.6,16.7,132.4z"/>
		</g>
	</g>
	<g>
		<g>
			<path class="st0" d="M129.7,119c-0.4,1.8-0.7,2.6-1.1,4.4c0.6,0.5,0.9,0.7,1.5,1.2c0.4,0.3,0.7,0.5,0.9,0.5c0.2,0,0.3,0,0.5-0.1
				c0.2-0.1,0.3-0.5,0.5-1c0.1,0,0.2,0,0.3,0.1c-0.4,1.5-0.6,2.2-1,3.6c-0.1,0-0.2,0-0.3-0.1c0-0.5,0-0.8-0.1-1
				c-0.2-0.4-0.6-0.8-1.3-1.4c-3.2-2.6-4.8-3.8-8-6.3c0-0.1,0-0.2,0.1-0.3c4-0.6,6.1-1,10.1-1.7c0.8-0.1,1.4-0.3,1.6-0.5
				c0.3-0.2,0.5-0.6,0.6-1c0.1,0,0.2,0,0.3,0.1c-0.4,1.8-0.6,2.7-1.1,4.6c-0.1,0-0.2,0-0.3-0.1c0.1-0.5,0.1-0.8,0-1
				c-0.1-0.2-0.2-0.3-0.4-0.4c-0.2-0.1-0.6,0-1.2,0.1C130.8,118.8,130.4,118.9,129.7,119z M129.1,119.1c-2,0.3-2.9,0.5-4.9,0.8
				c1.6,1.2,2.4,1.8,3.9,3.1C128.5,121.4,128.7,120.7,129.1,119.1z"/>
			<path class="st0" d="M135.4,109.8c0.1,0,0.2,0,0.3,0.1c-0.4,2-0.6,3-1.1,5c-0.1,0-0.2,0-0.3-0.1c0-0.2,0.1-0.2,0.1-0.4
				c0.1-0.5,0-0.9-0.2-1.1c-0.1-0.2-0.5-0.3-1.2-0.5c-2.9-0.6-4.3-0.9-7.1-1.5c-0.6-0.1-0.9-0.2-1.1-0.1c-0.1,0-0.3,0.1-0.4,0.3
				c-0.2,0.2-0.3,0.4-0.4,0.7c0,0.2-0.1,0.2-0.1,0.4c-0.1,0-0.2,0-0.3-0.1c0.4-1.9,0.6-2.9,1-4.8c0.1,0,0.2,0,0.3,0.1
				c0,0.2,0,0.2-0.1,0.4c-0.1,0.5,0,0.8,0.2,1.1c0.1,0.2,0.5,0.3,1.2,0.5c2.9,0.6,4.3,0.9,7.1,1.5c0.6,0.1,0.9,0.2,1.1,0.1
				c0.1,0,0.3-0.1,0.4-0.3c0.2-0.2,0.3-0.5,0.4-0.7C135.3,110.1,135.3,110,135.4,109.8z"/>
			<path class="st0" d="M134.5,98.8c0-0.1,0.1-0.2,0.1-0.3c1.1,0.6,1.7,0.9,2.9,1.5c-0.6,3.6-0.9,5.4-1.6,9c-0.1,0-0.2,0-0.3-0.1
				c0-0.2,0.1-0.3,0.1-0.4c0.1-0.5,0-0.9-0.3-1.1c-0.1-0.2-0.5-0.3-1.2-0.4c-2.9-0.6-4.3-0.8-7.2-1.4c-0.7-0.1-1.1-0.1-1.3,0
				c-0.3,0.2-0.5,0.5-0.5,0.9c0,0.2-0.1,0.2-0.1,0.4c-0.1,0-0.2,0-0.3-0.1c0.4-2,0.6-3,1-5.1c0.1,0,0.2,0,0.3,0.1
				c-0.1,0.6-0.1,1-0.1,1.3c0.1,0.3,0.2,0.5,0.3,0.6c0.2,0.1,0.6,0.2,1.2,0.4c2.8,0.5,4.2,0.8,7,1.3c0.5,0.1,0.8,0.1,1,0
				c0.1,0,0.2-0.1,0.3-0.3c0.1-0.1,0.2-0.6,0.3-1.3c0.1-0.3,0.1-0.5,0.2-0.9c0.2-0.9,0.2-1.5,0.1-1.9c-0.1-0.4-0.2-0.7-0.5-1.1
				C135.6,99.6,135.1,99.3,134.5,98.8z"/>
			<path class="st0" d="M127.2,90.7c0.2-1.5,0.9-2.6,2.1-3.6c1.2-0.9,2.7-1.3,4.3-1.2c1.7,0.2,3.1,0.9,4.1,2.1
				c1,1.3,1.4,2.7,1.2,4.3c-0.2,1.6-1,2.9-2.2,3.8c-1.3,0.9-2.8,1.3-4.5,1c-1.8-0.3-3.1-1.1-4.1-2.5C127.3,93.5,127,92.1,127.2,90.7
				z M127.8,90.9c-0.1,1,0.1,1.9,0.8,2.6c0.8,0.9,2.1,1.5,3.9,1.7c1.8,0.3,3.3,0.1,4.4-0.6c0.8-0.5,1.3-1.3,1.5-2.3
				c0.1-1.1-0.2-2.1-0.9-2.9c-0.7-0.8-2-1.3-3.8-1.5c-1.9-0.2-3.4,0-4.4,0.6C128.4,89,127.9,89.8,127.8,90.9z"/>
			<path class="st0" d="M140.4,73.8c-0.1,1.3-0.1,1.9-0.2,3.2c-2.2,1.4-3.3,2.2-5.6,3.5c0,0.3,0,0.5,0,0.7c0,0.1,0,0.2,0,0.2
				c0,0.1,0,0.2,0,0.3c1.3,0.1,2,0.2,3.3,0.3c0.7,0.1,1.2,0,1.3-0.1c0.3-0.2,0.4-0.5,0.5-1c0-0.2,0-0.3,0-0.5c0.1,0,0.2,0,0.3,0
				c-0.2,2-0.3,3-0.5,5.1c-0.1,0-0.2,0-0.3,0c0-0.2,0-0.3,0-0.4c0.1-0.5-0.1-0.9-0.4-1.1c-0.2-0.1-0.6-0.2-1.2-0.3
				c-2.9-0.3-4.4-0.4-7.3-0.7c-0.7-0.1-1.2,0-1.3,0.1c-0.3,0.2-0.4,0.5-0.5,0.9c0,0.2,0,0.3,0,0.4c-0.1,0-0.2,0-0.3,0
				c0.2-1.7,0.2-2.5,0.4-4.1c0.1-1.2,0.3-2.1,0.5-2.6c0.2-0.6,0.6-1,1.1-1.4c0.5-0.4,1.1-0.5,1.7-0.5c0.7,0,1.3,0.3,1.8,0.8
				c0.5,0.5,0.8,1.2,0.9,2.2c1.4-0.9,2.1-1.3,3.4-2.2c0.8-0.5,1.3-1,1.6-1.3c0.3-0.4,0.5-0.9,0.6-1.5
				C140.2,73.8,140.3,73.8,140.4,73.8z M134,81.6c0-0.1,0-0.2,0-0.3c0-0.1,0-0.1,0-0.2c0.1-1.1-0.1-2-0.5-2.6c-0.4-0.6-1-0.9-1.7-1
				c-0.7-0.1-1.3,0.1-1.8,0.5c-0.5,0.4-0.7,1-0.8,1.7c0,0.3,0,0.8,0,1.3C131.2,81.4,132.1,81.5,134,81.6z"/>
			<path class="st0" d="M129.2,65.4c1.6,0,2.3,0.1,3.9,0.1c0,0.1,0,0.2,0,0.3c-0.8,0.1-1.4,0.2-1.8,0.5c-0.5,0.3-0.8,0.6-1.1,1.1
				c-0.3,0.5-0.4,1-0.5,1.5c0,0.6,0.1,1.1,0.5,1.5c0.3,0.4,0.7,0.6,1.2,0.6c0.3,0,0.7-0.1,1-0.3c0.4-0.3,1-1.1,1.8-2.4
				c0.6-1.1,1.1-1.8,1.4-2.2c0.3-0.4,0.7-0.7,1.1-0.9c0.4-0.2,0.9-0.3,1.3-0.3c0.9,0,1.6,0.4,2.2,1.1c0.6,0.7,0.9,1.6,0.8,2.7
				c0,0.3-0.1,0.7-0.1,1c0,0.2-0.2,0.6-0.4,1.1c-0.2,0.6-0.3,0.9-0.3,1.1c0,0.1,0,0.3,0.1,0.4s0.2,0.2,0.5,0.2c0,0.1,0,0.2,0,0.3
				c-1.5-0.1-2.3-0.1-3.9-0.2c0-0.1,0-0.2,0-0.3c0.8-0.1,1.4-0.3,1.8-0.5c0.4-0.2,0.8-0.6,1.1-1.1c0.3-0.5,0.5-1.1,0.5-1.7
				c0-0.7-0.1-1.3-0.5-1.7c-0.4-0.4-0.8-0.7-1.3-0.7c-0.3,0-0.6,0.1-0.8,0.2c-0.3,0.1-0.6,0.4-0.8,0.7c-0.2,0.2-0.6,0.8-1.1,1.8
				c-0.6,1-1,1.7-1.4,2.1c-0.3,0.4-0.7,0.7-1.1,0.9c-0.4,0.2-0.8,0.3-1.3,0.2c-0.8,0-1.5-0.4-2-1.1c-0.6-0.7-0.8-1.5-0.8-2.4
				c0-0.6,0.2-1.2,0.5-1.9c0.1-0.3,0.2-0.5,0.2-0.7c0-0.1,0-0.3-0.1-0.4c-0.1-0.1-0.3-0.2-0.5-0.2C129.2,65.6,129.2,65.5,129.2,65.4
				z"/>
		</g>
	</g>
	<path class="st0" d="M8.2,67.1c0-0.6,0-1,0-1.5c0-1.6,1.6-3,3.5-2.4c2.1,0.7,3.6,3.4,3.5,5.2c0,0.1-0.1,0.2-0.2,0.4
		c-0.1-0.5-0.2-0.8-0.2-1.1c-0.2-1.4-0.8-2.5-2-3.3c-1-0.6-2-0.6-2.9,0c-1.1,0.7-1.3,1.3-1.1,2.7c1.3,0.4,2.5,0.9,3.8,1.3
		c2.9,1,5.2,2.8,6.6,5.6c0.3,0.6,0.3,1.2-0.1,1.7c-0.4,0.5-0.9,0.5-1.5,0.4c-2-0.5-3.6-1.5-5-2.9c-1.2-1.2-2.3-2.4-3.6-3.8
		c-1.8-0.4-3.8-0.9-5.8-0.1c-0.5,0.7-0.5,1.3,0,2c1.3,1.8,3.1,2.7,5.2,2.9c0.4,0,0.9-0.1,1.6-0.2c-0.1-0.5-0.1-1-0.3-1.3
		c-0.6-0.8-1.3-1.3-2.3-1.5c-0.6-0.1-1.1-0.3-1.7-0.5c0-0.1,0-0.2,0.1-0.3c0.7,0.2,1.4,0.2,2,0.5c0.7,0.3,1.4,0.8,2,1.4
		c0.9,0.9,0.5,2.1-0.8,2.4c-1.3,0.3-2.5,0-3.6-0.6c-1.2-0.7-2.2-1.7-2.7-3c-0.8-1.9,0.2-3.5,2-3.9c0.9-0.2,1.8-0.1,2.6-0.1
		C7.6,67.1,7.9,67.1,8.2,67.1z M19.1,75.2c0-0.2,0.1-0.5-0.1-0.8c-0.4-0.6-0.7-1.3-1.2-1.8c-1.6-1.5-3.6-2.1-5.6-2.7
		c-0.7-0.2-1.4-0.3-2.1-0.4c0.2,0.6,0.6,1,0.9,1.5c1.4,1.8,3.3,3.2,5.3,4.2C17.1,75.7,18.1,76.2,19.1,75.2z"/>
	<g>
		<path class="st0" d="M125.6,139.8c0.1,0.3,0.3,0.6,0.4,1c1-1,1.3-3.3,0.3-4.5c-1.6-2-3.3-3.8-4.8-5.7c-1.7-2.1-3-4.4-2.9-7.3
			c0-0.2,0.1-0.4,0.2-0.8c0.1,0.3,0.2,0.4,0.2,0.5c0.2,2,1.4,3.4,2.6,4.8c1.5,1.7,3.1,3.3,4.3,5.2c1.7,2.5,2,5.3,0.5,8.1
			c-0.4,0.8-1.2,1-2,0.6c-0.6-0.3-0.8-0.7-0.6-1.3c0.2-0.6,0.6-0.8,1.2-0.6C125.3,139.7,125.4,139.7,125.6,139.8z"/>
		<path class="st0" d="M117.2,131.9c1-0.5,1.8-0.4,2.6-0.2c1.6,0.4,2.7,2.2,2.5,3.8c-0.2,1.6-1.5,2.2-3,1.6
			c-1.9-0.9-2.8-2.6-3.4-4.5c-0.6-2.1-0.4-4.2,0.2-6.4c0.5-1.8,0.9-3.7,1.2-5.6c0.1-0.6-0.1-1.2-0.2-2c0.9,0.8,1.5,1.7,1.5,2.7
			c-0.1,1.3-0.4,2.6-0.6,3.9c-0.2,0.8-0.4,1.6-0.6,2.4c-0.2,1.3-0.5,2.6-0.6,4c-0.2,1.9,1.2,4.3,2.9,5.1c0.6,0.3,1.2,0.2,1.7-0.2
			c0.6-0.4,0.6-0.9,0.6-1.5c-0.2-1.6-1.9-3-3.5-3C118,132,117.7,131.9,117.2,131.9z"/>
	</g>
	<g>
		<path class="st0" d="M43.7,284.7l0,3.9h-0.3c-0.1-0.7-0.3-1.3-0.5-1.8c-0.3-0.4-0.6-0.8-1.1-1c-0.5-0.3-1-0.4-1.5-0.4
			c-0.6,0-1,0.2-1.4,0.5c-0.4,0.4-0.6,0.7-0.6,1.2c0,0.3,0.1,0.6,0.4,0.9c0.3,0.4,1.1,1,2.4,1.6c1,0.6,1.8,1,2.1,1.3
			c0.4,0.3,0.7,0.6,0.9,1.1c0.2,0.4,0.3,0.8,0.3,1.3c0,0.9-0.3,1.6-1,2.2c-0.7,0.6-1.5,0.9-2.5,0.9c-0.3,0-0.6,0-0.9-0.1
			c-0.2,0-0.5-0.1-1.1-0.3c-0.5-0.2-0.9-0.3-1-0.3c-0.1,0-0.2,0-0.3,0.1c-0.1,0.1-0.1,0.3-0.2,0.5h-0.3l0-3.8h0.3
			c0.1,0.8,0.3,1.4,0.6,1.8c0.2,0.4,0.6,0.7,1.1,1c0.5,0.3,1,0.4,1.6,0.4c0.7,0,1.2-0.2,1.6-0.5s0.6-0.8,0.6-1.3
			c0-0.3-0.1-0.5-0.2-0.8c-0.1-0.3-0.4-0.5-0.7-0.8c-0.2-0.2-0.8-0.5-1.7-1c-1-0.5-1.6-1-2-1.3c-0.4-0.3-0.7-0.7-0.9-1
			c-0.2-0.4-0.3-0.8-0.3-1.3c0-0.8,0.3-1.5,0.9-2.1c0.6-0.6,1.4-0.9,2.3-0.9c0.6,0,1.2,0.1,1.9,0.4c0.3,0.1,0.5,0.2,0.6,0.2
			c0.1,0,0.3,0,0.4-0.1c0.1-0.1,0.2-0.3,0.2-0.5L43.7,284.7z"/>
		<path class="st0" d="M48.5,288.3l0,6c0,0.5,0,0.8,0.1,0.9c0.1,0.2,0.2,0.3,0.3,0.3c0.1,0.1,0.4,0.1,0.7,0.1v0.3l-3.7,0v-0.3
			c0.4,0,0.6,0,0.7-0.1c0.1-0.1,0.2-0.2,0.3-0.4c0.1-0.2,0.1-0.5,0.1-0.9l0-2.9c0-0.8,0-1.3-0.1-1.6c0-0.2-0.1-0.3-0.2-0.4
			c-0.1-0.1-0.2-0.1-0.3-0.1c-0.2,0-0.3,0-0.6,0.1l-0.1-0.3l2.3-0.9L48.5,288.3z M47.8,284.4c0.2,0,0.4,0.1,0.6,0.2
			c0.2,0.2,0.2,0.4,0.2,0.6c0,0.2-0.1,0.4-0.2,0.6c-0.2,0.2-0.4,0.2-0.6,0.2c-0.2,0-0.4-0.1-0.6-0.2c-0.2-0.2-0.2-0.4-0.2-0.6
			c0-0.2,0.1-0.4,0.2-0.6C47.4,284.5,47.6,284.4,47.8,284.4z"/>
		<path class="st0" d="M52.8,289.9c0.9-1.1,1.7-1.6,2.5-1.6c0.4,0,0.8,0.1,1.1,0.3c0.3,0.2,0.5,0.5,0.7,1c0.1,0.3,0.2,0.8,0.2,1.5
			l0,3.2c0,0.5,0,0.8,0.1,1c0.1,0.1,0.2,0.2,0.3,0.3s0.4,0.1,0.7,0.1v0.3l-3.7,0v-0.3h0.2c0.3,0,0.6-0.1,0.7-0.2
			c0.1-0.1,0.2-0.3,0.3-0.5c0-0.1,0-0.3,0-0.8l0-3.1c0-0.7-0.1-1.2-0.3-1.5c-0.2-0.3-0.5-0.5-0.9-0.5c-0.6,0-1.3,0.4-1.9,1.1l0,4
			c0,0.5,0,0.8,0.1,0.9c0.1,0.2,0.2,0.3,0.3,0.4c0.1,0.1,0.4,0.1,0.8,0.1v0.3l-3.7,0v-0.3h0.2c0.4,0,0.6-0.1,0.8-0.3
			c0.1-0.2,0.2-0.6,0.2-1.1l0-2.8c0-0.9,0-1.5-0.1-1.7c0-0.2-0.1-0.3-0.2-0.4c-0.1-0.1-0.2-0.1-0.3-0.1c-0.2,0-0.3,0-0.5,0.1
			l-0.1-0.3l2.3-0.9h0.4L52.8,289.9z"/>
		<path class="st0" d="M65.4,293.2c-0.2,1-0.6,1.8-1.2,2.3c-0.6,0.5-1.2,0.8-2,0.8c-0.9,0-1.6-0.4-2.2-1.1c-0.6-0.7-1-1.7-1-2.9
			c0-1.2,0.3-2.1,1-2.9c0.7-0.7,1.5-1.1,2.5-1.1c0.7,0,1.3,0.2,1.8,0.6c0.5,0.4,0.7,0.8,0.7,1.2c0,0.2-0.1,0.4-0.2,0.5
			c-0.1,0.1-0.3,0.2-0.6,0.2c-0.3,0-0.6-0.1-0.7-0.3c-0.1-0.1-0.2-0.3-0.2-0.7c0-0.3-0.1-0.6-0.3-0.7c-0.2-0.2-0.5-0.2-0.8-0.2
			c-0.5,0-1,0.2-1.3,0.6c-0.4,0.5-0.7,1.2-0.7,2.1c0,0.9,0.2,1.7,0.7,2.4c0.4,0.7,1,1,1.8,1c0.5,0,1-0.2,1.4-0.6
			c0.3-0.2,0.6-0.7,0.9-1.4L65.4,293.2z"/>
		<path class="st0" d="M67.7,291.3c0,1.1,0.3,2,0.8,2.6c0.5,0.6,1.2,0.9,1.9,0.9c0.5,0,0.9-0.1,1.3-0.4c0.4-0.3,0.7-0.7,0.9-1.4
			l0.3,0.2c-0.1,0.8-0.4,1.4-1,2.1c-0.6,0.6-1.2,0.9-2.1,0.9c-0.9,0-1.7-0.3-2.3-1c-0.6-0.7-1-1.7-1-2.8c0-1.3,0.3-2.3,1-3
			c0.7-0.7,1.5-1.1,2.5-1.1c0.8,0,1.5,0.3,2.1,0.8c0.5,0.6,0.8,1.3,0.8,2.2L67.7,291.3z M67.7,290.9l3.5,0c0-0.5-0.1-0.8-0.2-1
			c-0.1-0.3-0.3-0.5-0.6-0.7c-0.3-0.2-0.6-0.3-0.9-0.3c-0.5,0-0.9,0.2-1.2,0.5C68,289.7,67.8,290.2,67.7,290.9z"/>
		<path class="st0" d="M79.5,286l2.7-1.3h0.3l0,9.4c0,0.6,0,1,0.1,1.2c0,0.2,0.2,0.3,0.3,0.4c0.2,0.1,0.5,0.1,1,0.1v0.3l-4.2,0
			l0-0.3c0.5,0,0.9-0.1,1-0.1c0.2-0.1,0.3-0.2,0.3-0.3c0.1-0.1,0.1-0.5,0.1-1.2l0-6c0-0.8,0-1.3-0.1-1.6c0-0.2-0.1-0.3-0.2-0.4
			c-0.1-0.1-0.2-0.1-0.4-0.1c-0.2,0-0.5,0.1-0.8,0.3L79.5,286z"/>
		<path class="st0" d="M86.9,296.2v-0.3c0.7,0,1.4-0.2,2-0.5c0.6-0.3,1.2-0.9,1.8-1.7c0.6-0.8,1-1.7,1.2-2.6
			c-0.9,0.6-1.6,0.8-2.3,0.8c-0.8,0-1.5-0.3-2-0.9c-0.6-0.6-0.8-1.4-0.8-2.4c0-1,0.3-1.8,0.8-2.6c0.7-0.9,1.5-1.4,2.6-1.4
			c0.9,0,1.7,0.4,2.3,1.1c0.8,0.9,1.2,2.1,1.2,3.5c0,1.2-0.3,2.4-0.9,3.5c-0.6,1.1-1.4,2-2.5,2.7c-0.9,0.6-1.8,0.9-2.9,0.9
			L86.9,296.2L86.9,296.2z M92,290.5c0.1-0.7,0.1-1.3,0.1-1.7c0-0.5-0.1-1.1-0.3-1.7c-0.2-0.6-0.4-1.1-0.8-1.4
			c-0.3-0.3-0.7-0.5-1.1-0.5c-0.5,0-0.9,0.2-1.3,0.7c-0.4,0.4-0.5,1.1-0.5,2c0,1.2,0.3,2.1,0.7,2.7c0.4,0.5,0.8,0.7,1.3,0.7
			c0.3,0,0.6-0.1,0.9-0.2C91.4,290.9,91.7,290.7,92,290.5z"/>
		<path class="st0" d="M97.6,290.3c-0.9-0.7-1.5-1.3-1.7-1.7c-0.3-0.4-0.4-0.9-0.4-1.4c0-0.7,0.3-1.3,0.8-1.9
			c0.6-0.5,1.3-0.8,2.2-0.8c0.9,0,1.6,0.2,2.2,0.7c0.6,0.5,0.8,1,0.8,1.7c0,0.4-0.1,0.8-0.4,1.3c-0.3,0.4-0.9,0.9-1.8,1.5
			c1,0.7,1.6,1.3,1.9,1.7c0.4,0.6,0.6,1.1,0.6,1.8c0,0.8-0.3,1.5-0.9,2c-0.6,0.6-1.4,0.8-2.3,0.8c-1.1,0-1.9-0.3-2.5-1
			c-0.5-0.5-0.7-1.1-0.7-1.7c0-0.5,0.2-1,0.5-1.5C96.2,291.5,96.8,290.9,97.6,290.3z M98,290.7c-0.5,0.4-0.8,0.8-1,1.3
			c-0.2,0.4-0.3,0.9-0.3,1.5c0,0.7,0.2,1.3,0.6,1.7c0.4,0.4,0.9,0.6,1.5,0.6c0.6,0,1.1-0.2,1.4-0.5c0.4-0.3,0.5-0.7,0.5-1.2
			c0-0.4-0.1-0.7-0.3-1.1C100,292.3,99.2,291.6,98,290.7z M98.9,289.5c0.7-0.6,1.1-1.1,1.2-1.4c0.2-0.3,0.3-0.7,0.3-1.2
			c0-0.6-0.2-1-0.5-1.3c-0.3-0.3-0.8-0.5-1.3-0.5c-0.6,0-1,0.2-1.4,0.5c-0.3,0.3-0.5,0.7-0.5,1.1c0,0.3,0.1,0.6,0.2,0.9
			c0.1,0.3,0.4,0.6,0.6,0.8L98.9,289.5z"/>
		<path class="st0" d="M106,290.3c-0.9-0.7-1.5-1.3-1.7-1.7c-0.3-0.4-0.4-0.9-0.4-1.4c0-0.7,0.3-1.3,0.8-1.9
			c0.6-0.5,1.3-0.8,2.2-0.8c0.9,0,1.6,0.2,2.2,0.7c0.6,0.5,0.8,1,0.8,1.7c0,0.4-0.1,0.8-0.4,1.3s-0.9,0.9-1.8,1.5
			c1,0.7,1.6,1.3,1.9,1.7c0.4,0.6,0.6,1.1,0.6,1.8c0,0.8-0.3,1.5-0.9,2c-0.6,0.6-1.4,0.8-2.3,0.8c-1.1,0-1.9-0.3-2.5-1
			c-0.5-0.5-0.7-1.1-0.7-1.7c0-0.5,0.2-1,0.5-1.5C104.6,291.4,105.2,290.9,106,290.3z M106.4,290.6c-0.5,0.4-0.8,0.8-1,1.3
			c-0.2,0.4-0.3,0.9-0.3,1.5c0,0.7,0.2,1.3,0.6,1.7c0.4,0.4,0.9,0.6,1.5,0.6c0.6,0,1.1-0.2,1.4-0.5c0.4-0.3,0.5-0.7,0.5-1.2
			c0-0.4-0.1-0.7-0.3-1.1C108.4,292.3,107.6,291.6,106.4,290.6z M107.3,289.4c0.7-0.6,1.1-1.1,1.2-1.4c0.2-0.3,0.3-0.7,0.3-1.2
			c0-0.6-0.2-1-0.5-1.3s-0.8-0.5-1.3-0.5c-0.6,0-1,0.2-1.4,0.5c-0.3,0.3-0.5,0.7-0.5,1.1c0,0.3,0.1,0.6,0.2,0.9
			c0.1,0.3,0.4,0.6,0.6,0.8L107.3,289.4z"/>
	</g>
</g>
</svg>
