<?xml version="1.0" encoding="utf-8"?>
<!-- Generator: Adobe Illustrator 16.0.0, SVG Export Plug-In . SVG Version: 6.00 Build 0)  -->
<!DOCTYPE svg PUBLIC "-//W3C//DTD SVG 1.1//EN" "http://www.w3.org/Graphics/SVG/1.1/DTD/svg11.dtd">
<svg version="1.1" id="Layer_1" xmlns="http://www.w3.org/2000/svg" xmlns:xlink="http://www.w3.org/1999/xlink" x="0px" y="0px"
	 width="40.109px" height="83px" viewBox="0 0 40.109 83" enable-background="new 0 0 40.109 83" xml:space="preserve">
<g>
	<g>
		<g>
			<path fill="#FFF780" d="M32.666,46.365l-0.144-0.33c-5.934-13.563-12.445-15.857-12.51-15.88l-0.562-0.186l0.569-0.164
				C36.746,24.993,37.896,6.986,37.906,6.804l0.027-0.521l0.305,0.424c2.335,3.26,4.172,22.966-5.391,39.347L32.666,46.365z
				 M20.613,30.012c1.627,0.774,7.01,4.081,12.099,15.547c9.269-16.155,7.28-34.206,5.505-38.137
				C37.859,10.592,35.406,25.448,20.613,30.012z"/>
			<g>
				<path fill="#FFF780" d="M7.517,46.398l-0.183-0.312C-2.272,29.729-0.484,10.019,1.843,6.753l0.303-0.425l0.03,0.522
					c0.01,0.181,1.207,18.187,17.945,22.955l0.566,0.16l-0.558,0.189c-0.066,0.022-6.582,2.358-12.469,15.911L7.517,46.398z
					 M1.867,7.467C0.101,11.404-1.842,29.459,7.469,45.59c5.06-11.478,10.435-14.798,12.059-15.576
					C4.723,25.486,2.231,10.638,1.867,7.467z"/>
				<path fill="#FFF780" d="M20.071,30.173l-0.05-0.015C3.027,25.315,1.82,7.054,1.81,6.87L1.806,6.802l0.042-0.054
					C1.899,6.681,7.208,0.016,20.032,0h0.047c12.787,0,18.103,6.635,18.155,6.701l0.042,0.054l-0.003,0.069
					c-0.01,0.184-1.172,18.448-18.152,23.334L20.071,30.173z M2.18,6.919c0.096,1.238,1.727,18.233,17.891,22.873
					c16.15-4.681,17.738-21.68,17.832-22.918c-0.526-0.62-5.83-6.508-17.823-6.508h-0.047C8.006,0.384,2.705,6.296,2.18,6.919z"/>
			</g>
			<path fill="#FFF780" d="M20.09,45.384l-8.153-7.964l0.088-0.126c4.284-6.188,7.838-7.437,7.987-7.485l0.059-0.02l0.058,0.019
				c0.149,0.05,3.705,1.29,8.005,7.464l0.089,0.127L20.09,45.384z M12.415,37.375l7.674,7.497l7.655-7.518
				c-3.887-5.531-7.197-6.99-7.673-7.177C19.595,30.366,16.287,31.833,12.415,37.375z"/>
			<path fill="#FFF780" d="M20.128,75.183l-8.292-8.05l4.515-25.914l3.737,3.653l3.729-3.662L28.4,67.112L20.128,75.183z
				 M12.231,67.005l7.897,7.666l7.877-7.687l-4.426-25.026l-3.489,3.426l-3.496-3.416L12.231,67.005z"/>
		</g>
		<g>
			<path fill="#FFF780" d="M30.712,65.968h-0.73l-0.001-0.264l1.779-0.003v0.265l-0.734,0.001l0.002,2.138l-0.313,0.001
				L30.712,65.968z"/>
			<path fill="#FFF780" d="M34.052,67.046c-0.019-0.335-0.04-0.737-0.036-1.037h-0.012c-0.082,0.283-0.181,0.581-0.301,0.914
				l-0.423,1.165l-0.235,0.001l-0.39-1.145c-0.114-0.337-0.212-0.646-0.28-0.933h-0.006c-0.008,0.299-0.024,0.702-0.045,1.062
				l-0.063,1.03h-0.295l0.163-2.402h0.396l0.41,1.161c0.101,0.296,0.184,0.559,0.244,0.808h0.01
				c0.061-0.241,0.146-0.505,0.253-0.809l0.425-1.162h0.396l0.153,2.401h-0.304L34.052,67.046z"/>
		</g>
	</g>
	<path fill="#FFF780" d="M3.402,13.413L3.249,13.08c0.078-0.037,7.907-3.577,16.794-3.588c0.014,0,0.028,0,0.042,0
		c8.872,0,16.686,3.509,16.764,3.543l-0.151,0.335c-0.078-0.036-7.823-3.513-16.612-3.513c-0.014,0-0.027,0-0.041,0
		C11.239,9.869,3.479,13.377,3.402,13.413z"/>
	<path fill="#FFF780" d="M16.889,4.757c-0.559,0.17-1.029,0.057-1.499-0.153c-1.077-0.483-1.952,0.318-2.301,1.04
		c-0.106,0.218-0.103,0.492,0.079,0.697c0.177,0.199,0.405,0.197,0.656,0.132c0.756-0.2,1.144-0.72,1.346-1.46
		c0.014,0.096,0.048,0.194,0.04,0.29c-0.067,0.754-0.995,1.518-1.761,1.31c-0.428-0.117-0.624-0.498-0.499-0.901
		c0.138-0.444,0.386-0.812,0.742-1.104c0.194-0.157,0.407-0.296,0.625-0.422c0.537-0.313,1.097-0.26,1.658-0.07
		c0.208,0.07,0.41,0.162,0.62,0.229c0.384,0.125,0.755,0.124,1.086-0.155c0.042-0.034,0.099-0.049,0.149-0.073
		c0.018,0.02,0.036,0.038,0.054,0.057c-0.281,0.27-0.578,0.523-0.838,0.812c-0.272,0.301-0.517,0.628-0.761,0.953
		c-0.245,0.325-0.462,0.671-0.712,0.991c-0.248,0.317-0.521,0.616-0.768,0.945c0.457-0.046,0.879-0.17,1.212-0.492
		c0.327-0.313,0.577-0.672,0.512-1.171c0.167,0.314,0.118,0.619-0.013,0.911c-0.155,0.343-0.426,0.583-0.779,0.705
		c-0.268,0.094-0.548,0.163-0.828,0.207c-0.275,0.043-0.481,0.176-0.664,0.371c-0.568,0.607-1.21,1.123-1.971,1.464
		c-0.204,0.092-0.457,0.112-0.684,0.101c-0.271-0.011-0.419-0.285-0.35-0.554c0.087-0.337,0.32-0.555,0.616-0.687
		c0.46-0.206,0.926-0.427,1.413-0.539c0.438-0.104,0.72-0.341,0.963-0.679c0.676-0.942,1.489-1.752,2.385-2.483
		C16.699,4.961,16.768,4.878,16.889,4.757z M13.652,8.282c-0.017-0.029-0.032-0.059-0.049-0.087
		c-0.472,0.167-0.953,0.317-1.413,0.512c-0.241,0.102-0.476,0.256-0.666,0.438c-0.275,0.262-0.18,0.636,0.173,0.75
		C12.599,9.661,13.039,8.869,13.652,8.282z"/>
	<g>
		<g>
			<path fill="#FFF780" d="M19.314,6.685c-0.604-0.003-0.908-0.001-1.512,0.014c-0.1,0.24-0.15,0.361-0.249,0.604
				c-0.06,0.149-0.088,0.263-0.086,0.333c0.001,0.057,0.031,0.109,0.087,0.15c0.057,0.041,0.178,0.067,0.362,0.076
				c0,0.041,0.001,0.063,0.002,0.104c-0.479,0.012-0.72,0.018-1.201,0.038c-0.001-0.04-0.002-0.061-0.004-0.103
				c0.157-0.035,0.261-0.075,0.305-0.121c0.093-0.094,0.192-0.278,0.3-0.557c0.504-1.266,0.771-1.896,1.34-3.148
				c0.042,0,0.063,0.001,0.105,0.001c0.578,1.261,0.85,1.891,1.361,3.164c0.103,0.256,0.196,0.424,0.282,0.501
				c0.086,0.078,0.205,0.124,0.359,0.14c-0.001,0.04-0.001,0.061-0.002,0.102c-0.602-0.021-0.903-0.026-1.504-0.029
				c0-0.04,0-0.06,0.001-0.103c0.151-0.006,0.255-0.032,0.309-0.073c0.054-0.043,0.082-0.095,0.083-0.155
				c0-0.082-0.035-0.214-0.109-0.391C19.454,7.013,19.408,6.903,19.314,6.685z M19.234,6.477c-0.263-0.614-0.399-0.919-0.679-1.53
				c-0.275,0.615-0.41,0.924-0.668,1.542C18.426,6.477,18.696,6.476,19.234,6.477z"/>
			<path fill="#FFF780" d="M24.688,4.37c-0.016,0.518-0.023,0.775-0.043,1.293c-0.035-0.004-0.055-0.006-0.09-0.01
				c-0.082-0.396-0.229-0.692-0.442-0.883c-0.213-0.19-0.482-0.301-0.806-0.326c-0.27-0.021-0.52,0.025-0.746,0.14
				c-0.226,0.113-0.408,0.306-0.547,0.578c-0.139,0.273-0.218,0.616-0.24,1.033c-0.019,0.343,0.023,0.641,0.122,0.898
				c0.098,0.259,0.255,0.458,0.469,0.608c0.214,0.148,0.463,0.234,0.748,0.257c0.247,0.021,0.47-0.013,0.669-0.101
				c0.199-0.086,0.428-0.273,0.691-0.563c0.032,0.027,0.049,0.04,0.082,0.066c-0.23,0.313-0.479,0.538-0.747,0.67
				c-0.27,0.132-0.577,0.183-0.925,0.156c-0.629-0.049-1.102-0.307-1.43-0.789c-0.244-0.359-0.361-0.773-0.344-1.242
				c0.016-0.379,0.119-0.722,0.313-1.029c0.193-0.309,0.457-0.543,0.785-0.699c0.33-0.153,0.688-0.218,1.067-0.188
				c0.296,0.021,0.586,0.115,0.856,0.275c0.079,0.047,0.138,0.075,0.173,0.078c0.054,0.006,0.104-0.008,0.146-0.039
				c0.057-0.042,0.102-0.11,0.133-0.195C24.625,4.363,24.646,4.365,24.688,4.37z"/>
			<path fill="#FFF780" d="M26.668,6.408c0.5,0.636,0.742,0.955,1.209,1.6c0.189,0.267,0.358,0.458,0.504,0.567
				c0.146,0.113,0.298,0.19,0.457,0.233c-0.009,0.04-0.013,0.062-0.021,0.102c-0.713-0.14-1.07-0.203-1.787-0.319
				c0.006-0.039,0.01-0.062,0.016-0.102c0.108,0.018,0.188,0.012,0.241-0.017c0.054-0.029,0.085-0.063,0.092-0.108
				c0.008-0.045,0.005-0.084-0.007-0.121c-0.013-0.038-0.06-0.115-0.144-0.227c-0.442-0.597-0.673-0.891-1.144-1.479
				c-0.066,0.485-0.098,0.728-0.164,1.211c-0.025,0.19-0.031,0.317-0.016,0.381c0.014,0.05,0.047,0.095,0.102,0.136
				c0.074,0.056,0.156,0.09,0.244,0.104c0.052,0.008,0.078,0.011,0.129,0.017c-0.006,0.041-0.01,0.062-0.014,0.104
				c-0.645-0.095-0.967-0.137-1.613-0.211c0.005-0.04,0.008-0.061,0.012-0.103c0.054,0.006,0.082,0.011,0.135,0.018
				c0.156,0.018,0.277-0.014,0.357-0.096c0.053-0.053,0.094-0.194,0.121-0.42c0.121-0.973,0.182-1.459,0.303-2.432
				c0.024-0.19,0.028-0.319,0.01-0.384c-0.014-0.046-0.052-0.092-0.109-0.131c-0.08-0.055-0.172-0.09-0.268-0.1
				c-0.057-0.008-0.086-0.011-0.143-0.019c0.004-0.04,0.006-0.061,0.012-0.102c0.693,0.079,1.039,0.123,1.731,0.227
				c-0.007,0.039-0.009,0.06-0.015,0.102c-0.055-0.009-0.082-0.013-0.137-0.021c-0.095-0.014-0.189-0.004-0.281,0.026
				c-0.065,0.021-0.115,0.058-0.146,0.115c-0.032,0.054-0.061,0.177-0.086,0.36c-0.063,0.461-0.093,0.689-0.154,1.149
				c0.043-0.03,0.19-0.13,0.447-0.296c0.645-0.419,1.057-0.694,1.207-0.84c0.064-0.066,0.102-0.127,0.111-0.18
				c0.006-0.042-0.008-0.085-0.044-0.123c-0.036-0.039-0.104-0.067-0.204-0.084c-0.037-0.005-0.056-0.009-0.092-0.015
				c0.006-0.04,0.01-0.061,0.016-0.102c0.595,0.094,0.892,0.146,1.484,0.256c-0.008,0.041-0.012,0.062-0.018,0.103
				c-0.089-0.015-0.17-0.018-0.244-0.011s-0.17,0.029-0.283,0.069c-0.113,0.039-0.256,0.112-0.427,0.214
				c-0.049,0.03-0.282,0.183-0.69,0.469C27.08,6.119,26.941,6.215,26.668,6.408z"/>
		</g>
	</g>
	<g>
		<g>
			<path fill="#FFF780" d="M4.763,22.918c0.037-0.005,0.055-0.009,0.093-0.013c0.055,0.478,0.086,0.715,0.15,1.19
				c-0.037,0.005-0.055,0.007-0.092,0.013c-0.006-0.051-0.008-0.075-0.015-0.127c-0.018-0.133-0.09-0.226-0.207-0.283
				c-0.055-0.025-0.176-0.031-0.361-0.008c-0.544,0.069-0.815,0.104-1.359,0.175c-0.336,0.042-0.601,0.041-0.794-0.005
				c-0.194-0.045-0.37-0.162-0.528-0.351c-0.157-0.189-0.256-0.46-0.295-0.814c-0.042-0.386-0.008-0.686,0.099-0.898
				c0.108-0.21,0.265-0.369,0.472-0.471c0.142-0.069,0.417-0.12,0.821-0.159c0.526-0.047,0.789-0.07,1.315-0.119
				c0.206-0.021,0.339-0.061,0.398-0.123c0.059-0.065,0.083-0.159,0.072-0.288c-0.004-0.051-0.006-0.076-0.011-0.128
				c0.037-0.002,0.054-0.004,0.091-0.007c0.05,0.585,0.078,0.876,0.139,1.459c-0.036,0.005-0.055,0.007-0.091,0.009
				c-0.006-0.052-0.008-0.077-0.014-0.129c-0.014-0.14-0.069-0.234-0.162-0.286c-0.063-0.034-0.189-0.044-0.377-0.025
				c-0.586,0.059-0.878,0.086-1.464,0.145c-0.131,0.013-0.279,0.04-0.445,0.081c-0.167,0.041-0.293,0.1-0.38,0.174
				c-0.088,0.075-0.156,0.178-0.205,0.308c-0.048,0.131-0.062,0.286-0.042,0.467c0.025,0.229,0.097,0.43,0.214,0.599
				s0.254,0.279,0.412,0.326c0.157,0.049,0.414,0.05,0.77,0.004c0.542-0.067,0.813-0.101,1.355-0.168
				c0.209-0.026,0.338-0.066,0.385-0.118c0.064-0.073,0.089-0.176,0.074-0.302C4.773,22.992,4.77,22.968,4.763,22.918z"/>
			<path fill="#FFF780" d="M5.44,26.458c-0.461,0.078-0.691,0.117-1.152,0.192c-0.005-0.036-0.008-0.055-0.014-0.092
				c0.216-0.066,0.383-0.149,0.5-0.247c0.119-0.101,0.205-0.227,0.26-0.38c0.054-0.154,0.07-0.308,0.047-0.458
				c-0.026-0.172-0.1-0.307-0.221-0.403c-0.121-0.098-0.248-0.136-0.38-0.117c-0.102,0.015-0.191,0.064-0.263,0.147
				c-0.107,0.121-0.236,0.392-0.38,0.814c-0.117,0.346-0.209,0.586-0.279,0.717c-0.07,0.133-0.16,0.24-0.271,0.323
				c-0.109,0.085-0.231,0.139-0.364,0.162C2.67,27.16,2.436,27.094,2.22,26.919c-0.217-0.174-0.352-0.423-0.403-0.746
				c-0.016-0.102-0.021-0.2-0.02-0.291c0-0.055,0.013-0.171,0.039-0.347c0.027-0.175,0.038-0.285,0.031-0.328
				c-0.006-0.045-0.024-0.077-0.052-0.099c-0.029-0.021-0.082-0.032-0.161-0.033c-0.006-0.038-0.008-0.058-0.013-0.096
				c0.458-0.064,0.687-0.097,1.146-0.162c0.005,0.037,0.007,0.058,0.013,0.095c-0.234,0.078-0.404,0.164-0.513,0.256
				c-0.108,0.093-0.19,0.223-0.246,0.391c-0.056,0.165-0.069,0.343-0.041,0.529c0.033,0.215,0.115,0.376,0.243,0.482
				c0.128,0.106,0.267,0.148,0.414,0.123c0.082-0.014,0.16-0.05,0.237-0.11c0.075-0.062,0.141-0.146,0.198-0.256
				c0.038-0.074,0.113-0.272,0.229-0.589c0.115-0.318,0.212-0.546,0.289-0.683c0.077-0.14,0.17-0.248,0.277-0.328
				c0.105-0.079,0.228-0.128,0.366-0.146c0.24-0.035,0.459,0.029,0.659,0.19c0.201,0.161,0.321,0.381,0.365,0.666
				c0.027,0.177,0.013,0.373-0.042,0.586c-0.025,0.1-0.036,0.167-0.03,0.205c0.007,0.044,0.027,0.075,0.057,0.099
				s0.084,0.037,0.163,0.041C5.43,26.403,5.434,26.423,5.44,26.458z"/>
			<path fill="#FFF780" d="M6.014,29.87c-0.306,0.081-0.459,0.122-0.765,0.203c-0.009-0.037-0.013-0.055-0.021-0.093
				c0.133-0.047,0.226-0.094,0.277-0.137c0.084-0.071,0.139-0.153,0.166-0.248c0.027-0.093,0.025-0.208-0.003-0.345
				c-0.039-0.188-0.058-0.283-0.095-0.471c-1.011,0.203-1.517,0.304-2.529,0.505c-0.204,0.042-0.326,0.09-0.367,0.146
				c-0.057,0.078-0.07,0.186-0.042,0.32c0.009,0.049,0.015,0.073,0.025,0.12c-0.036,0.008-0.053,0.011-0.089,0.019
				c-0.122-0.588-0.181-0.883-0.29-1.474c0.036-0.006,0.053-0.009,0.089-0.017c0.009,0.049,0.015,0.073,0.024,0.123
				c0.029,0.146,0.09,0.244,0.187,0.288c0.06,0.027,0.182,0.022,0.368-0.014c1.013-0.194,1.519-0.293,2.533-0.489
				c-0.032-0.159-0.046-0.239-0.077-0.4c-0.029-0.156-0.06-0.265-0.096-0.325c-0.045-0.08-0.119-0.144-0.219-0.188
				C4.99,27.35,4.864,27.333,4.711,27.35c-0.006-0.039-0.009-0.058-0.016-0.096c0.315-0.038,0.472-0.06,0.786-0.098
				C5.674,28.246,5.78,28.788,6.014,29.87z"/>
			<path fill="#FFF780" d="M6.525,31.747c0.104,0.427,0.035,0.836-0.205,1.232c-0.24,0.399-0.598,0.665-1.08,0.793
				c-0.496,0.132-0.951,0.081-1.363-0.161C3.464,33.37,3.2,33.011,3.086,32.543c-0.116-0.476-0.048-0.913,0.201-1.309
				c0.25-0.396,0.632-0.646,1.145-0.758c0.524-0.116,0.99-0.027,1.402,0.257C6.191,30.979,6.42,31.317,6.525,31.747z M6.337,31.743
				c-0.072-0.295-0.235-0.507-0.496-0.636c-0.324-0.161-0.748-0.182-1.272-0.062c-0.537,0.122-0.925,0.333-1.158,0.641
				c-0.177,0.233-0.229,0.505-0.155,0.808c0.079,0.322,0.265,0.561,0.557,0.708c0.293,0.148,0.698,0.154,1.214,0.021
				c0.559-0.146,0.948-0.365,1.166-0.658C6.365,32.333,6.413,32.057,6.337,31.743z"/>
			<path fill="#FFF780" d="M4.245,36.519c0.931-0.852,1.401-1.268,2.352-2.083C5.728,34.68,5.293,34.8,4.425,35.045
				c-0.199,0.056-0.317,0.113-0.354,0.173c-0.049,0.081-0.056,0.188-0.017,0.322c0.014,0.047,0.021,0.074,0.035,0.121
				C4.053,35.671,4.035,35.677,4,35.686c-0.136-0.474-0.204-0.711-0.332-1.188c0.034-0.01,0.053-0.014,0.088-0.022
				c0.013,0.048,0.021,0.072,0.034,0.119c0.04,0.146,0.109,0.235,0.208,0.273c0.062,0.022,0.184,0.01,0.366-0.042
				c0.85-0.236,1.274-0.354,2.125-0.591c0.144-0.041,0.243-0.086,0.298-0.136c0.04-0.034,0.066-0.087,0.082-0.156
				c0.015-0.068,0.004-0.17-0.032-0.304c0.036-0.009,0.054-0.015,0.089-0.024c0.101,0.37,0.152,0.557,0.257,0.926
				c-0.881,0.763-1.317,1.152-2.181,1.946c1.157,0.173,1.735,0.251,2.889,0.39c0.118,0.367,0.177,0.55,0.3,0.915
				c-0.034,0.01-0.053,0.017-0.088,0.028c-0.014-0.045-0.022-0.065-0.038-0.111c-0.045-0.139-0.119-0.223-0.219-0.252
				c-0.062-0.019-0.184,0.001-0.363,0.061c-0.838,0.275-1.258,0.413-2.095,0.688c-0.197,0.064-0.312,0.129-0.346,0.19
				c-0.045,0.082-0.047,0.191-0.003,0.323c0.016,0.047,0.023,0.07,0.038,0.117c-0.034,0.013-0.052,0.018-0.086,0.029
				c-0.192-0.573-0.284-0.858-0.464-1.435c0.036-0.013,0.052-0.018,0.087-0.027c0.016,0.048,0.022,0.072,0.038,0.119
				c0.045,0.146,0.119,0.233,0.22,0.266c0.062,0.02,0.184,0.001,0.364-0.058c0.859-0.275,1.288-0.413,2.148-0.689
				c-1.245-0.154-1.867-0.242-3.112-0.438C4.259,36.569,4.255,36.553,4.245,36.519z"/>
		</g>
	</g>
	<g>
		<g>
			<path fill="#FFF780" d="M36.289,32.715c-0.123,0.5-0.186,0.75-0.317,1.246c0.173,0.139,0.26,0.209,0.432,0.349
				c0.105,0.086,0.188,0.137,0.247,0.152c0.047,0.014,0.096,0.001,0.145-0.037c0.047-0.035,0.098-0.133,0.15-0.286
				c0.033,0.008,0.05,0.012,0.084,0.021c-0.108,0.412-0.164,0.616-0.277,1.025c-0.033-0.009-0.051-0.014-0.084-0.022
				c0.014-0.142,0.009-0.237-0.016-0.288c-0.051-0.101-0.176-0.232-0.371-0.391c-0.896-0.73-1.349-1.086-2.26-1.783
				c0.008-0.033,0.013-0.049,0.021-0.081c1.144-0.174,1.716-0.27,2.86-0.479c0.23-0.042,0.384-0.095,0.463-0.154
				c0.08-0.061,0.14-0.156,0.178-0.289c0.034,0.007,0.051,0.012,0.086,0.02c-0.119,0.519-0.18,0.776-0.307,1.293
				c-0.033-0.007-0.051-0.011-0.085-0.022c0.026-0.13,0.026-0.225,0.001-0.277c-0.023-0.055-0.061-0.088-0.111-0.1
				c-0.066-0.017-0.181-0.01-0.342,0.019C36.587,32.664,36.488,32.681,36.289,32.715z M36.104,32.74
				c-0.557,0.095-0.835,0.141-1.392,0.226c0.446,0.348,0.669,0.522,1.111,0.877C35.938,33.401,35.994,33.183,36.104,32.74z"/>
			<path fill="#FFF780" d="M37.885,30.109c0.034,0.008,0.051,0.011,0.086,0.018c-0.116,0.565-0.176,0.846-0.303,1.41
				c-0.034-0.007-0.051-0.011-0.085-0.02c0.01-0.046,0.016-0.069,0.026-0.116c0.03-0.135,0.013-0.244-0.049-0.32
				c-0.04-0.049-0.155-0.095-0.344-0.135c-0.809-0.175-1.213-0.263-2.021-0.439c-0.158-0.033-0.266-0.046-0.322-0.037
				c-0.041,0.007-0.083,0.031-0.119,0.072c-0.053,0.06-0.086,0.127-0.103,0.203c-0.01,0.044-0.015,0.065-0.025,0.111
				c-0.034-0.009-0.051-0.012-0.085-0.02c0.121-0.538,0.179-0.809,0.289-1.349c0.034,0.008,0.051,0.012,0.084,0.018
				c-0.008,0.046-0.014,0.069-0.022,0.113c-0.026,0.129-0.007,0.231,0.056,0.307c0.041,0.049,0.154,0.093,0.344,0.132
				c0.811,0.171,1.215,0.257,2.025,0.426c0.158,0.033,0.266,0.045,0.321,0.034c0.042-0.008,0.083-0.034,0.121-0.08
				c0.052-0.063,0.085-0.132,0.101-0.21C37.869,30.181,37.875,30.157,37.885,30.109z"/>
			<path fill="#FFF780" d="M37.639,26.997c0.012-0.03,0.018-0.046,0.029-0.077c0.325,0.168,0.487,0.252,0.813,0.422
				c-0.169,1.027-0.262,1.542-0.467,2.563c-0.033-0.007-0.051-0.011-0.084-0.018c0.01-0.049,0.016-0.073,0.024-0.124
				c0.028-0.14,0.003-0.247-0.072-0.324c-0.042-0.043-0.154-0.082-0.333-0.117c-0.813-0.157-1.219-0.234-2.031-0.392
				c-0.196-0.039-0.322-0.04-0.381-0.007c-0.08,0.047-0.131,0.132-0.154,0.252c-0.01,0.047-0.015,0.07-0.024,0.117
				c-0.034-0.008-0.051-0.009-0.085-0.017c0.113-0.571,0.168-0.858,0.271-1.432c0.034,0.006,0.052,0.009,0.085,0.015
				c-0.031,0.169-0.037,0.29-0.018,0.363c0.02,0.074,0.055,0.128,0.098,0.162c0.045,0.034,0.162,0.069,0.35,0.104
				c0.791,0.147,1.188,0.222,1.979,0.368c0.129,0.024,0.221,0.028,0.272,0.012c0.036-0.014,0.065-0.04,0.089-0.077
				s0.055-0.162,0.092-0.376c0.018-0.096,0.025-0.144,0.043-0.241c0.045-0.253,0.057-0.435,0.039-0.544
				c-0.02-0.106-0.066-0.212-0.144-0.311S37.82,27.113,37.639,26.997z"/>
			<path fill="#FFF780" d="M35.56,24.681c0.055-0.412,0.255-0.751,0.604-1.021c0.35-0.269,0.757-0.381,1.227-0.33
				c0.484,0.054,0.87,0.254,1.152,0.609c0.282,0.356,0.395,0.765,0.334,1.22c-0.061,0.459-0.271,0.825-0.628,1.088
				c-0.356,0.265-0.781,0.355-1.273,0.278c-0.503-0.076-0.886-0.316-1.151-0.709C35.592,25.474,35.506,25.098,35.56,24.681z
				 M35.725,24.749c-0.037,0.286,0.035,0.528,0.221,0.731c0.232,0.254,0.6,0.419,1.104,0.495c0.519,0.075,0.935,0.021,1.245-0.172
				c0.236-0.146,0.377-0.369,0.415-0.662c0.042-0.314-0.044-0.587-0.251-0.819c-0.209-0.23-0.564-0.374-1.067-0.433
				c-0.544-0.064-0.964-0.003-1.257,0.182C35.9,24.219,35.765,24.445,35.725,24.749z"/>
			<path fill="#FFF780" d="M39.309,19.886c-0.021,0.358-0.034,0.538-0.06,0.896c-0.63,0.411-0.946,0.613-1.583,1.006
				c-0.004,0.083-0.008,0.15-0.013,0.203c-0.002,0.021-0.005,0.043-0.008,0.065c-0.003,0.024-0.005,0.05-0.009,0.077
				c0.37,0.033,0.555,0.051,0.926,0.084c0.2,0.019,0.328,0.006,0.381-0.034c0.073-0.056,0.117-0.146,0.129-0.271
				c0.004-0.052,0.006-0.079,0.01-0.131c0.035,0.002,0.053,0.003,0.088,0.006c-0.049,0.575-0.075,0.863-0.136,1.436
				c-0.034-0.003-0.053-0.004-0.087-0.008c0.005-0.051,0.007-0.075,0.013-0.127c0.015-0.141-0.022-0.246-0.103-0.315
				c-0.044-0.04-0.158-0.068-0.34-0.087c-0.823-0.08-1.236-0.121-2.061-0.201c-0.2-0.021-0.328-0.01-0.381,0.028
				c-0.074,0.056-0.117,0.143-0.131,0.265c-0.006,0.048-0.008,0.071-0.012,0.121c-0.035-0.003-0.053-0.006-0.086-0.01
				c0.049-0.468,0.07-0.7,0.111-1.167c0.03-0.342,0.074-0.592,0.137-0.749c0.063-0.158,0.164-0.288,0.305-0.394
				c0.141-0.102,0.303-0.148,0.486-0.136c0.197,0.013,0.363,0.09,0.498,0.23c0.136,0.144,0.223,0.354,0.26,0.636
				c0.389-0.242,0.582-0.365,0.968-0.613c0.222-0.143,0.372-0.271,0.448-0.38c0.077-0.108,0.131-0.254,0.16-0.437
				C39.256,19.882,39.273,19.883,39.309,19.886z M37.487,22.118c0.003-0.03,0.007-0.058,0.009-0.079
				c0.002-0.022,0.004-0.04,0.006-0.054c0.027-0.313-0.02-0.556-0.139-0.725s-0.28-0.261-0.484-0.276
				c-0.199-0.016-0.367,0.035-0.502,0.151s-0.211,0.279-0.229,0.484c-0.008,0.094-0.005,0.218,0.011,0.378
				C36.689,22.046,36.957,22.07,37.487,22.118z"/>
			<path fill="#FFF780" d="M36.131,17.507c0.443,0.013,0.664,0.019,1.107,0.032c-0.001,0.034-0.002,0.052-0.002,0.088
				c-0.215,0.022-0.385,0.07-0.514,0.14c-0.128,0.072-0.23,0.173-0.31,0.307c-0.079,0.135-0.122,0.273-0.128,0.42
				c-0.007,0.163,0.037,0.303,0.133,0.417c0.094,0.111,0.205,0.172,0.332,0.179c0.098,0.004,0.188-0.026,0.271-0.091
				c0.121-0.093,0.293-0.321,0.504-0.69c0.172-0.301,0.302-0.508,0.392-0.618c0.089-0.11,0.192-0.195,0.311-0.253
				c0.118-0.057,0.241-0.085,0.368-0.083c0.242,0.006,0.449,0.108,0.619,0.312s0.25,0.461,0.238,0.772
				c-0.004,0.098-0.016,0.19-0.033,0.274c-0.01,0.053-0.043,0.158-0.1,0.316c-0.058,0.159-0.089,0.259-0.091,0.303
				c-0.003,0.041,0.009,0.075,0.031,0.1c0.022,0.025,0.069,0.045,0.143,0.062c-0.003,0.037-0.003,0.056-0.005,0.092
				c-0.438-0.024-0.658-0.036-1.098-0.059c0.002-0.037,0.003-0.056,0.005-0.093c0.231-0.029,0.407-0.078,0.524-0.146
				c0.118-0.065,0.219-0.171,0.302-0.316c0.083-0.146,0.128-0.31,0.134-0.487c0.009-0.207-0.037-0.371-0.137-0.495
				c-0.1-0.122-0.222-0.188-0.363-0.191c-0.079-0.003-0.158,0.018-0.24,0.062c-0.082,0.041-0.159,0.109-0.231,0.201
				c-0.05,0.062-0.157,0.232-0.321,0.509c-0.166,0.275-0.297,0.471-0.395,0.584c-0.097,0.115-0.204,0.199-0.316,0.254
				c-0.114,0.055-0.236,0.078-0.368,0.07c-0.229-0.012-0.424-0.112-0.58-0.299c-0.157-0.185-0.229-0.413-0.218-0.688
				c0.008-0.17,0.056-0.351,0.146-0.54c0.041-0.086,0.064-0.148,0.065-0.186c0.001-0.04-0.011-0.075-0.034-0.102
				c-0.023-0.028-0.072-0.05-0.146-0.067C36.129,17.562,36.129,17.543,36.131,17.507z"/>
		</g>
	</g>
	<path fill="#FFF780" d="M1.842,17.999c-0.004-0.161-0.01-0.294-0.012-0.427c-0.006-0.455,0.458-0.843,0.987-0.676
		c0.587,0.187,1.018,0.954,0.982,1.483c-0.001,0.022-0.021,0.044-0.058,0.117c-0.026-0.135-0.045-0.22-0.061-0.306
		C3.616,17.804,3.46,17.47,3.12,17.247c-0.273-0.18-0.566-0.182-0.821-0.006c-0.305,0.21-0.37,0.369-0.3,0.759
		c0.355,0.123,0.716,0.25,1.078,0.378c0.827,0.29,1.477,0.793,1.875,1.587c0.081,0.16,0.091,0.328-0.025,0.47
		c-0.111,0.136-0.269,0.149-0.437,0.109c-0.56-0.129-1.028-0.417-1.422-0.825c-0.33-0.341-0.648-0.694-1.008-1.081
		c-0.512-0.112-1.081-0.249-1.656-0.028c-0.145,0.192-0.151,0.38-0.013,0.564c0.369,0.501,0.874,0.76,1.484,0.813
		c0.127,0.011,0.257-0.025,0.446-0.045c-0.033-0.145-0.03-0.276-0.091-0.362c-0.157-0.224-0.381-0.359-0.65-0.426
		c-0.161-0.038-0.318-0.091-0.478-0.14c0.006-0.025,0.013-0.052,0.019-0.078c0.193,0.045,0.399,0.058,0.574,0.141
		c0.205,0.096,0.408,0.228,0.564,0.388c0.26,0.269,0.142,0.598-0.223,0.689c-0.364,0.093-0.704-0.001-1.017-0.17
		c-0.352-0.191-0.616-0.488-0.776-0.854c-0.239-0.545,0.062-0.99,0.576-1.103c0.241-0.053,0.499-0.031,0.751-0.039
		C1.655,17.984,1.74,17.994,1.842,17.999z M4.909,20.306c-0.003-0.062,0.018-0.152-0.016-0.213
		c-0.101-0.178-0.198-0.369-0.343-0.506C4.102,19.167,3.521,19,2.951,18.823c-0.191-0.059-0.393-0.084-0.591-0.124
		c0.068,0.165,0.158,0.295,0.254,0.418c0.41,0.518,0.923,0.916,1.513,1.197C4.353,20.423,4.633,20.57,4.909,20.306z"/>
	<g>
		<path fill="#FFF780" d="M35.102,38.606c0.039,0.088,0.08,0.176,0.123,0.27c0.292-0.293,0.359-0.94,0.094-1.274
			c-0.441-0.555-0.927-1.074-1.373-1.626c-0.486-0.598-0.854-1.253-0.82-2.063c0.002-0.054,0.027-0.106,0.057-0.218
			c0.04,0.082,0.061,0.106,0.063,0.133c0.056,0.558,0.395,0.952,0.742,1.351c0.418,0.479,0.87,0.938,1.223,1.464
			c0.476,0.712,0.567,1.497,0.147,2.287c-0.121,0.226-0.346,0.288-0.564,0.181c-0.16-0.076-0.215-0.203-0.166-0.363
			c0.051-0.168,0.18-0.223,0.351-0.176C35.016,38.581,35.055,38.593,35.102,38.606z"/>
		<path fill="#FFF780" d="M32.74,36.358c0.271-0.154,0.502-0.121,0.725-0.062c0.443,0.121,0.761,0.621,0.697,1.075
			c-0.062,0.44-0.439,0.634-0.849,0.447c-0.552-0.252-0.804-0.731-0.962-1.272c-0.177-0.603-0.109-1.202,0.05-1.805
			c0.138-0.518,0.241-1.047,0.332-1.574c0.028-0.166-0.03-0.351-0.054-0.569c0.269,0.225,0.434,0.476,0.414,0.778
			c-0.021,0.37-0.104,0.739-0.176,1.105c-0.043,0.23-0.127,0.452-0.168,0.682c-0.07,0.374-0.133,0.75-0.176,1.129
			c-0.063,0.533,0.334,1.206,0.819,1.434c0.179,0.085,0.341,0.058,0.495-0.045c0.156-0.102,0.18-0.259,0.158-0.428
			c-0.053-0.445-0.543-0.856-1-0.85C32.964,36.405,32.879,36.38,32.74,36.358z"/>
	</g>
	<g>
		<path fill="#FFF780" d="M11.899,79.694l0.003,1.092h-0.086c-0.029-0.209-0.08-0.376-0.152-0.5
			c-0.072-0.125-0.175-0.222-0.309-0.294c-0.133-0.073-0.271-0.108-0.414-0.108c-0.162,0.001-0.296,0.05-0.4,0.148
			c-0.105,0.1-0.157,0.211-0.157,0.337c0,0.096,0.033,0.184,0.1,0.264c0.096,0.116,0.326,0.27,0.688,0.463
			c0.295,0.157,0.497,0.278,0.604,0.362c0.108,0.083,0.191,0.184,0.25,0.299c0.059,0.114,0.088,0.233,0.088,0.358
			c0,0.241-0.091,0.446-0.276,0.62c-0.186,0.173-0.423,0.261-0.715,0.262c-0.091,0-0.178-0.007-0.258-0.02
			c-0.048-0.009-0.147-0.036-0.299-0.085c-0.151-0.048-0.247-0.072-0.288-0.072c-0.039,0-0.069,0.012-0.092,0.034
			c-0.022,0.023-0.039,0.071-0.049,0.146h-0.087l-0.003-1.082h0.085c0.042,0.226,0.097,0.395,0.166,0.507
			c0.068,0.113,0.172,0.207,0.313,0.279c0.141,0.075,0.295,0.112,0.462,0.111c0.193,0,0.346-0.052,0.458-0.155
			c0.112-0.103,0.169-0.224,0.168-0.363c0-0.077-0.022-0.155-0.065-0.235c-0.042-0.079-0.109-0.151-0.2-0.22
			c-0.06-0.047-0.225-0.146-0.496-0.296c-0.271-0.15-0.463-0.271-0.578-0.36c-0.114-0.09-0.201-0.188-0.26-0.296
			c-0.059-0.109-0.089-0.228-0.089-0.358c0-0.227,0.086-0.423,0.259-0.587c0.173-0.164,0.394-0.247,0.662-0.247
			c0.168,0,0.345,0.041,0.533,0.122c0.086,0.039,0.149,0.059,0.184,0.059c0.041,0,0.074-0.014,0.1-0.038
			c0.025-0.023,0.046-0.071,0.061-0.145L11.899,79.694z"/>
		<path fill="#FFF780" d="M13.251,80.724l0.004,1.713c0,0.133,0.011,0.223,0.031,0.267c0.02,0.043,0.048,0.076,0.087,0.099
			c0.037,0.021,0.106,0.032,0.207,0.032v0.083l-1.035,0.003l0-0.084c0.104,0,0.174-0.01,0.209-0.029
			c0.036-0.021,0.064-0.056,0.085-0.102s0.031-0.136,0.03-0.268l-0.002-0.821c0-0.231-0.008-0.382-0.022-0.449
			c-0.011-0.049-0.028-0.085-0.052-0.104c-0.023-0.02-0.056-0.029-0.096-0.028c-0.043,0-0.096,0.012-0.158,0.035l-0.033-0.083
			l0.642-0.263L13.251,80.724z M13.055,79.61c0.064,0,0.121,0.021,0.167,0.066c0.045,0.048,0.069,0.104,0.069,0.167
			c0,0.066-0.023,0.122-0.068,0.168c-0.046,0.047-0.102,0.07-0.167,0.07c-0.065,0-0.121-0.022-0.168-0.069
			c-0.046-0.046-0.069-0.101-0.069-0.167c0-0.065,0.022-0.119,0.067-0.167C12.932,79.634,12.988,79.61,13.055,79.61z"/>
		<path fill="#FFF780" d="M14.463,81.172c0.249-0.302,0.486-0.452,0.712-0.453c0.117-0.001,0.217,0.028,0.301,0.087
			c0.084,0.058,0.151,0.152,0.201,0.286c0.034,0.093,0.052,0.235,0.052,0.428l0.003,0.909c0,0.136,0.011,0.228,0.034,0.275
			c0.017,0.038,0.044,0.068,0.083,0.091s0.108,0.032,0.21,0.031l0,0.084l-1.054,0.003v-0.084h0.044c0.099,0,0.169-0.015,0.208-0.045
			c0.04-0.032,0.067-0.076,0.083-0.135c0.007-0.023,0.009-0.097,0.009-0.22l-0.002-0.872c0-0.194-0.027-0.335-0.077-0.421
			c-0.051-0.089-0.137-0.133-0.256-0.132c-0.184,0.001-0.368,0.104-0.551,0.304l0.003,1.124c0,0.145,0.009,0.234,0.026,0.268
			c0.022,0.045,0.052,0.079,0.09,0.1c0.038,0.021,0.115,0.03,0.231,0.03l0,0.083l-1.055,0.003v-0.083h0.046
			c0.109-0.001,0.182-0.027,0.22-0.084c0.038-0.055,0.056-0.159,0.056-0.315l-0.002-0.79c0-0.257-0.007-0.413-0.019-0.468
			c-0.011-0.056-0.03-0.094-0.054-0.114c-0.024-0.021-0.057-0.03-0.097-0.03c-0.044,0-0.096,0.013-0.155,0.035l-0.036-0.083
			l0.642-0.263h0.1L14.463,81.172z"/>
		<path fill="#FFF780" d="M18.037,82.095c-0.056,0.281-0.168,0.497-0.335,0.648c-0.167,0.153-0.352,0.229-0.555,0.229
			c-0.242,0.001-0.454-0.1-0.634-0.302c-0.181-0.203-0.271-0.477-0.272-0.824c-0.001-0.334,0.098-0.606,0.296-0.817
			c0.199-0.21,0.438-0.315,0.717-0.315c0.21-0.001,0.382,0.054,0.518,0.164c0.135,0.111,0.203,0.228,0.203,0.345
			c0,0.061-0.019,0.107-0.057,0.144c-0.038,0.036-0.091,0.056-0.159,0.057c-0.091,0-0.16-0.03-0.208-0.089
			c-0.026-0.031-0.043-0.094-0.053-0.187c-0.008-0.092-0.04-0.161-0.095-0.208c-0.054-0.047-0.129-0.07-0.226-0.07
			c-0.155,0-0.28,0.059-0.374,0.174c-0.125,0.152-0.188,0.353-0.187,0.604c0,0.254,0.063,0.478,0.189,0.673
			c0.125,0.194,0.294,0.29,0.507,0.29c0.152-0.001,0.289-0.053,0.409-0.157c0.084-0.07,0.167-0.2,0.248-0.389L18.037,82.095z"/>
		<path fill="#FFF780" d="M18.699,81.574c0,0.316,0.077,0.564,0.233,0.744c0.155,0.18,0.338,0.269,0.547,0.268
			c0.14,0,0.261-0.038,0.365-0.116c0.103-0.077,0.189-0.209,0.258-0.396l0.072,0.046c-0.032,0.215-0.125,0.407-0.282,0.582
			c-0.156,0.175-0.353,0.264-0.589,0.264c-0.255,0.001-0.475-0.098-0.657-0.296c-0.184-0.2-0.275-0.468-0.276-0.803
			c-0.001-0.366,0.092-0.65,0.278-0.855c0.186-0.203,0.421-0.307,0.703-0.308c0.239-0.002,0.436,0.077,0.589,0.234
			c0.155,0.157,0.231,0.367,0.232,0.632L18.699,81.574z M18.698,81.439l0.986-0.003c-0.007-0.137-0.024-0.232-0.049-0.289
			c-0.04-0.088-0.097-0.154-0.174-0.203c-0.077-0.051-0.158-0.075-0.241-0.075c-0.129,0.001-0.244,0.05-0.345,0.152
			C18.774,81.121,18.715,81.261,18.698,81.439z"/>
		<path fill="#FFF780" d="M22.053,80.048l0.767-0.379h0.077l0.007,2.666c0.001,0.177,0.009,0.287,0.024,0.33
			c0.014,0.043,0.045,0.075,0.092,0.1c0.045,0.023,0.141,0.037,0.283,0.04v0.085l-1.187,0.003l-0.001-0.085
			c0.149-0.004,0.246-0.018,0.289-0.04c0.043-0.023,0.074-0.053,0.09-0.091c0.018-0.038,0.026-0.152,0.025-0.342l-0.005-1.702
			c-0.001-0.229-0.009-0.378-0.024-0.442c-0.011-0.05-0.031-0.086-0.061-0.109c-0.027-0.023-0.063-0.034-0.103-0.034
			c-0.058,0.001-0.138,0.024-0.239,0.071L22.053,80.048z"/>
		<path fill="#FFF780" d="M24.137,82.953v-0.087c0.201-0.004,0.389-0.051,0.563-0.143c0.173-0.091,0.34-0.25,0.502-0.478
			c0.161-0.227,0.273-0.477,0.337-0.748c-0.244,0.157-0.464,0.238-0.661,0.238c-0.222,0-0.412-0.085-0.57-0.256
			c-0.159-0.172-0.238-0.399-0.239-0.683c-0.001-0.276,0.077-0.522,0.234-0.738c0.19-0.263,0.439-0.395,0.747-0.396
			c0.258-0.001,0.48,0.106,0.666,0.318c0.228,0.265,0.341,0.593,0.342,0.982c0.002,0.35-0.084,0.678-0.255,0.981
			s-0.41,0.556-0.717,0.756c-0.249,0.166-0.521,0.25-0.815,0.251H24.137z M25.574,81.327c0.027-0.202,0.041-0.363,0.041-0.484
			c0-0.151-0.027-0.313-0.078-0.487c-0.053-0.174-0.125-0.308-0.219-0.401s-0.201-0.14-0.32-0.139c-0.139,0-0.26,0.063-0.363,0.187
			c-0.104,0.126-0.154,0.31-0.154,0.555c0.001,0.328,0.071,0.583,0.21,0.768c0.101,0.133,0.226,0.199,0.372,0.199
			c0.072-0.001,0.156-0.019,0.254-0.052C25.414,81.437,25.5,81.388,25.574,81.327z"/>
		<path fill="#FFF780" d="M27.178,81.29c-0.25-0.206-0.412-0.369-0.484-0.492c-0.072-0.124-0.109-0.254-0.109-0.387
			c0-0.204,0.078-0.382,0.235-0.529c0.158-0.148,0.368-0.225,0.63-0.225c0.255-0.001,0.46,0.069,0.615,0.204
			c0.156,0.139,0.233,0.296,0.234,0.473c0,0.118-0.041,0.238-0.125,0.361c-0.083,0.123-0.258,0.268-0.522,0.435
			c0.274,0.21,0.455,0.375,0.544,0.496c0.118,0.158,0.178,0.324,0.179,0.499c0.001,0.223-0.083,0.413-0.253,0.57
			c-0.168,0.158-0.391,0.237-0.664,0.237c-0.3,0-0.533-0.092-0.701-0.278c-0.135-0.15-0.201-0.314-0.201-0.492
			c-0.001-0.14,0.045-0.279,0.139-0.417C26.787,81.608,26.949,81.455,27.178,81.29z M27.287,81.378
			c-0.129,0.108-0.224,0.228-0.285,0.356C26.94,81.86,26.91,82,26.91,82.148c0,0.2,0.055,0.36,0.166,0.481
			c0.109,0.118,0.248,0.179,0.418,0.179c0.167-0.001,0.301-0.049,0.401-0.144c0.101-0.096,0.151-0.21,0.15-0.345
			c-0.001-0.112-0.03-0.212-0.089-0.3C27.846,81.854,27.623,81.642,27.287,81.378z M27.543,81.039
			c0.185-0.169,0.303-0.301,0.352-0.397c0.049-0.098,0.074-0.207,0.074-0.33c-0.001-0.163-0.047-0.29-0.139-0.382
			c-0.092-0.093-0.217-0.139-0.375-0.138s-0.287,0.046-0.387,0.139c-0.099,0.091-0.147,0.199-0.146,0.321
			c0,0.081,0.02,0.161,0.061,0.242c0.042,0.08,0.102,0.156,0.177,0.229L27.543,81.039z"/>
		<path fill="#FFF780" d="M29.561,81.282c-0.25-0.204-0.412-0.368-0.484-0.492c-0.072-0.123-0.109-0.252-0.109-0.385
			c-0.001-0.205,0.078-0.382,0.235-0.53s0.368-0.225,0.63-0.225c0.255-0.001,0.46,0.067,0.615,0.204
			c0.156,0.139,0.233,0.296,0.234,0.473c0,0.118-0.041,0.238-0.125,0.361s-0.258,0.268-0.522,0.435
			c0.274,0.21,0.455,0.375,0.544,0.496c0.119,0.158,0.178,0.324,0.178,0.499c0.001,0.223-0.082,0.412-0.252,0.57
			c-0.168,0.158-0.39,0.236-0.664,0.237c-0.3,0.001-0.533-0.092-0.701-0.278c-0.135-0.149-0.201-0.314-0.202-0.493
			c-0.001-0.14,0.046-0.277,0.14-0.416C29.17,81.602,29.331,81.448,29.561,81.282z M29.67,81.37
			c-0.129,0.109-0.223,0.229-0.285,0.356c-0.063,0.127-0.092,0.266-0.092,0.416c0,0.199,0.055,0.359,0.165,0.479
			c0.109,0.118,0.249,0.18,0.418,0.18c0.168-0.002,0.302-0.05,0.402-0.144c0.101-0.096,0.151-0.21,0.15-0.346
			c0-0.111-0.03-0.211-0.089-0.3C30.229,81.848,30.006,81.634,29.67,81.37z M29.925,81.032c0.186-0.168,0.304-0.302,0.353-0.397
			c0.049-0.097,0.073-0.208,0.072-0.33c0-0.163-0.045-0.29-0.137-0.382s-0.217-0.138-0.375-0.138
			c-0.158,0.001-0.287,0.047-0.387,0.138c-0.099,0.092-0.148,0.199-0.147,0.322c0.001,0.08,0.021,0.161,0.063,0.242
			c0.041,0.08,0.1,0.157,0.177,0.229L29.925,81.032z"/>
	</g>
</g>
</svg>
