<?xml version="1.0" encoding="utf-8"?>
<!-- Generator: Adobe Illustrator 16.0.0, SVG Export Plug-In . SVG Version: 6.00 Build 0)  -->
<!DOCTYPE svg PUBLIC "-//W3C//DTD SVG 1.1//EN" "http://www.w3.org/Graphics/SVG/1.1/DTD/svg11.dtd">
<svg version="1.1" id="Layer_1" xmlns="http://www.w3.org/2000/svg" xmlns:xlink="http://www.w3.org/1999/xlink" x="0px" y="0px"
	 width="44.552px" height="83.513px" viewBox="0 0 44.552 83.513" enable-background="new 0 0 44.552 83.513" xml:space="preserve">
<g>
	<g>
		<g>
			<path fill="#DDC493" d="M36.285,51.502l-0.16-0.367c-6.592-15.065-13.823-17.613-13.896-17.639l-0.625-0.207l0.632-0.182
				C40.816,27.762,42.094,7.76,42.105,7.558l0.03-0.579l0.339,0.471c2.594,3.621,4.634,25.51-5.988,43.707L36.285,51.502z
				 M22.896,33.337c1.808,0.86,7.787,4.533,13.439,17.269c10.296-17.944,8.087-37.995,6.114-42.361
				C42.053,11.765,39.329,28.268,22.896,33.337z"/>
			<g>
				<path fill="#DDC493" d="M8.35,51.539l-0.204-0.348c-10.67-18.169-8.684-40.063-6.1-43.69l0.337-0.472l0.033,0.58
					C2.428,7.81,3.757,27.811,22.35,33.107l0.629,0.178l-0.621,0.209c-0.072,0.024-7.311,2.62-13.85,17.674L8.35,51.539z
					 M2.074,8.294c-1.961,4.373-4.12,24.429,6.222,42.347c5.622-12.75,11.592-16.438,13.396-17.301
					C5.247,28.309,2.478,11.817,2.074,8.294z"/>
				<path fill="#DDC493" d="M22.294,33.516l-0.056-0.017C3.362,28.12,2.021,7.835,2.011,7.631L2.006,7.555l0.046-0.06
					C2.109,7.421,8.006,0.018,22.25,0h0.053c14.203,0,20.108,7.37,20.166,7.443l0.047,0.06L42.513,7.58
					c-0.011,0.204-1.302,20.492-20.163,25.919L22.294,33.516z M2.422,7.686c0.106,1.375,1.917,20.253,19.873,25.407
					c17.939-5.2,19.703-24.082,19.808-25.457c-0.585-0.689-6.477-7.229-19.798-7.229h-0.052C8.892,0.426,3.004,6.993,2.422,7.686z"
					/>
			</g>
			<path fill="#DDC493" d="M22.315,50.411l-9.056-8.846l0.098-0.14c4.759-6.874,8.707-8.261,8.872-8.314l0.065-0.022l0.063,0.021
				c0.166,0.055,4.116,1.433,8.892,8.291l0.101,0.141L22.315,50.411z M13.79,41.516l8.524,8.327l8.503-8.351
				c-4.317-6.144-7.994-7.764-8.522-7.972C21.766,33.73,18.091,35.359,13.79,41.516z"/>
			<path fill="#DDC493" d="M22.357,83.513l-9.21-8.942l5.016-28.785l4.15,4.058l4.143-4.067l5.091,28.771L22.357,83.513z
				 M13.586,74.428l8.771,8.516l8.75-8.538l-4.916-27.799l-3.876,3.805l-3.883-3.794L13.586,74.428z"/>
		</g>
	</g>
	<path fill="#DDC493" d="M3.779,14.899l-0.17-0.37c0.087-0.042,8.783-3.974,18.655-3.985c0.016,0,0.031,0,0.046,0
		c9.855,0,18.535,3.897,18.622,3.935l-0.168,0.372c-0.087-0.04-8.689-3.902-18.452-3.902c-0.016,0-0.029,0-0.046,0
		C12.484,10.962,3.864,14.859,3.779,14.899z"/>
</g>
</svg>
